<svg width="146" height="16" viewBox="0 0 146 16" fill="none" xmlns="http://www.w3.org/2000/svg">
<path d="M1 7.00073V9.00073" stroke="#AD8D65"/>
<path d="M4 6.00073L4 10.0007" stroke="#AD8D65"/>
<path d="M7 4.33276L7 11.6661" stroke="#AD8D65"/>
<path d="M10 1.66724L10 14.3339" stroke="#AD8D65"/>
<path d="M13 5L13 11" stroke="#AD8D65"/>
<path d="M16 6.66797L16 9.33464" stroke="#AD8D65"/>
<path d="M19 3.66724L19 12.3339" stroke="#AD8D65"/>
<path d="M22 4.66724L22 11.3339" stroke="#AD8D65"/>
<path d="M25 5.33398L25 10.6673" stroke="#AD8D65"/>
<path d="M28 7.33398L28 8.66732" stroke="#AD8D65"/>
<path d="M31 5L31 11" stroke="#AD8D65"/>
<path d="M34 4.33276L34 11.6661" stroke="#AD8D65"/>
<path d="M37 3.33398L37 12.6673" stroke="#AD8D65"/>
<path d="M40 2.33398L40 13.6673" stroke="#525252"/>
<path d="M43 1L43 15" stroke="#525252"/>
<path d="M46 2L46 14" stroke="#525252"/>
<path d="M49 0.667236L49 15.3339" stroke="#525252"/>
<path d="M52 2.66724L52 13.3339" stroke="#525252"/>
<path d="M55 0L55 16" stroke="#525252"/>
<path d="M58 1.33276L58 14.6661" stroke="#525252"/>
<path d="M61 2.66724L61 13.3339" stroke="#525252"/>
<path d="M64 2L64 14" stroke="#525252"/>
<path d="M67 4.33276L67 11.6661" stroke="#525252"/>
<path d="M70 7.00073L70 9.00073" stroke="#525252"/>
<path d="M73 7.33398L73 8.66732" stroke="#525252"/>
<path d="M76 6.00073L76 10.0007" stroke="#525252"/>
<path d="M79 5.33398L79 10.6673" stroke="#525252"/>
<path d="M82 4L82 12" stroke="#525252"/>
<path d="M85 5.33398L85 10.6673" stroke="#525252"/>
<path d="M88 6.33398L88 9.66732" stroke="#525252"/>
<path d="M91 7.33398L91 8.66732" stroke="#525252"/>
<path d="M94 4.33276L94 11.6661" stroke="#525252"/>
<path d="M97 5L97 11" stroke="#525252"/>
<path d="M100 5.33398L100 10.6673" stroke="#525252"/>
<path d="M103 6.33398L103 9.66732" stroke="#525252"/>
<path d="M106 3.00073L106 13.0007" stroke="#525252"/>
<path d="M109 2L109 14" stroke="#525252"/>
<path d="M112 0.667236L112 15.3339" stroke="#525252"/>
<path d="M115 2L115 14" stroke="#525252"/>
<path d="M118 0.332764L118 15.6661" stroke="#525252"/>
<path d="M121 3.66724L121 12.3339" stroke="#525252"/>
<path d="M124 2.33398L124 13.6673" stroke="#525252"/>
<path d="M127 5.66724L127 10.3339" stroke="#525252"/>
<path d="M130 6.33398L130 9.66732" stroke="#525252"/>
<path d="M133 7.00073L133 9.00073" stroke="#525252"/>
<path d="M136 7.00073L136 9.00073" stroke="#525252"/>
<path d="M139 7.33398L139 8.66732" stroke="#525252"/>
<path d="M142 7.66797L142 8.33464" stroke="#525252"/>
<path d="M145 7.66797L145 8.33464" stroke="#525252"/>
</svg>
