<svg width="46" height="46" viewBox="0 0 46 46" fill="none" xmlns="http://www.w3.org/2000/svg">
<g id="V1.3 1231">
<g id="&#229;&#164;&#180;&#229;&#131;&#143;">
<g id="&#229;&#164;&#180;&#229;&#131;&#143;4&#229;&#164;&#135;&#228;&#187;&#189; 12">
<mask id="mask0_450_1005" style="mask-type:alpha" maskUnits="userSpaceOnUse" x="0" y="0" width="46" height="46">
<g id="mask 2">
<path id="Vector" d="M23 45.5C35.4264 45.5 45.5 35.4264 45.5 23C45.5 10.5736 35.4264 0.5 23 0.5C10.5736 0.5 0.5 10.5736 0.5 23C0.5 35.4264 10.5736 45.5 23 45.5Z" fill="white"/>
</g>
</mask>
<g mask="url(#mask0_450_1005)">
<path id="Vector_2" d="M23 46.0625C35.7371 46.0625 46.0625 35.7371 46.0625 23C46.0625 10.2629 35.7371 -0.0625 23 -0.0625C10.2629 -0.0625 -0.0625 10.2629 -0.0625 23C-0.0625 35.7371 10.2629 46.0625 23 46.0625Z" stroke="white" stroke-width="1.125"/>
<path id="&#231;&#159;&#169;&#229;&#189;&#162;" d="M50 -1.75H-1.75V50H50V-1.75Z" fill="#23AE97"/>
<g id="&#231;&#159;&#169;&#229;&#189;&#162;_2">
<g id="Group">
<mask id="mask1_450_1005" style="mask-type:alpha" maskUnits="userSpaceOnUse" x="-83" y="-199" width="234" height="234">
<g id="mask 4">
<path id="Vector_3" d="M33.875 34.25C98.2852 34.25 150.5 -17.9648 150.5 -82.375C150.5 -146.785 98.2852 -199 33.875 -199C-30.5352 -199 -82.75 -146.785 -82.75 -82.375C-82.75 -17.9648 -30.5352 34.25 33.875 34.25Z" fill="white"/>
</g>
</mask>
<g mask="url(#mask1_450_1005)">
<path id="&#232;&#146;&#153;&#231;&#137;&#136;" d="M33.875 34.25C98.2852 34.25 150.5 -17.9648 150.5 -82.375C150.5 -146.785 98.2852 -199 33.875 -199C-30.5352 -199 -82.75 -146.785 -82.75 -82.375C-82.75 -17.9648 -30.5352 34.25 33.875 34.25Z" fill="#FFF4D7"/>
<path id="&#231;&#159;&#169;&#229;&#189;&#162;_3" d="M26 -7.75H-5.5V34.25H26V-7.75Z" fill="#FCC50A"/>
</g>
</g>
</g>
</g>
</g>
</g>
</g>
</svg>
