<svg width="148" height="148" viewBox="0 0 148 148" fill="none" xmlns="http://www.w3.org/2000/svg">
<path d="M0.5 10.2071L10.2071 0.5H137.793L147.5 10.2071V137.793L137.793 147.5H10.2071L0.5 137.793V10.2071Z" stroke="#2A231C"/>
<g filter="url(#filter0_di_44_5390)">
<path d="M16.9189 8H131.081L140 16.9189V131.081L131.081 140H16.9189L8 131.081V16.9189L16.9189 8Z" fill="#181818"/>
<path d="M8.5 17.126L17.126 8.5H130.874L139.5 17.126V130.874L130.874 139.5H17.126L8.5 130.874V17.126Z" stroke="#514233"/>
</g>
<g clip-path="url(#clip0_44_5390)">
<path fill-rule="evenodd" clip-rule="evenodd" d="M123.862 37.7129C123.862 35.3399 123.207 33.6562 122.533 32.5337C121.86 31.4113 121.404 30.9555 121.186 30.7378C119.862 29.4134 118.138 28.6457 116.719 28.0133L116.719 28.0132L116.718 28.013L116.718 28.0129C116.213 27.7879 115.746 27.5801 115.35 27.3703C111.624 25.3978 109.396 22.7364 109.242 22.5526L109.234 22.5437L109.231 22.5407L109.226 22.5355C109.152 22.4592 108.591 21.8882 108.166 20.1865C107.901 19.1241 107.873 18.3374 107.852 17.7356V17.7355C107.843 17.4649 107.834 17.2318 107.806 17.0278C107.717 16.3701 107.043 15.6966 105.921 16.1456C104.973 16.6194 104.997 17.8128 105.017 18.8559L105.017 18.8569C105.02 19.0046 105.023 19.1493 105.023 19.2885C105.023 20.0338 105.472 22.6559 107.268 24.6764C107.424 24.852 107.566 25.014 107.699 25.165L107.7 25.1663L107.701 25.1666C109.094 26.7514 109.416 27.1172 113.105 29.1663C114.12 29.7306 115.01 30.1616 115.763 30.5266C116.637 30.9502 117.328 31.2849 117.819 31.6358C117.971 31.7443 118.124 31.8487 118.276 31.9527C119.697 32.9239 121.056 33.8527 121.056 37.6814C121.056 38.5884 120.899 39.4594 120.607 40.2676C120.071 39.8366 119.453 39.5043 118.782 39.2933C118.243 39.1204 117.666 39.0284 117.071 39.0284C116.537 39.0284 116.019 39.1025 115.529 39.2439C114.808 39.4437 114.148 39.7872 113.576 40.2384C113.575 40.237 113.574 40.2356 113.574 40.2343L113.574 40.2317C112.705 40.8648 111.636 41.2352 110.48 41.2352C109.641 41.2352 108.846 41.0399 108.141 40.6874C108.142 40.6879 108.142 40.6886 108.142 40.6893C108.143 40.6903 108.143 40.6913 108.143 40.6924L108.143 40.6932C108.142 40.6938 108.142 40.6944 108.142 40.6949C108.142 40.6955 108.141 40.696 108.141 40.6964C107.483 40.418 106.794 40.2003 106.078 40.0521C105.912 40.0162 105.746 39.987 105.577 39.9601C105.348 38.8959 104.935 37.9014 104.374 37.0079C104.188 36.7094 103.986 36.422 103.766 36.1481C103.687 36.0471 103.606 35.9506 103.521 35.854C103.497 35.826 103.473 35.7985 103.449 35.771C103.425 35.7435 103.401 35.716 103.377 35.6879C103.043 35.322 102.681 34.983 102.295 34.6732C102.089 34.5071 101.875 34.3499 101.653 34.2017C101.429 34.0513 101.197 33.9099 100.957 33.7797C99.6281 33.0478 98.0993 32.6303 96.4739 32.6303C95.787 32.6303 95.118 32.7044 94.4737 32.8458H94.4714C94.1953 32.9064 93.9259 32.9782 93.6633 33.0636C93.239 33.196 92.8281 33.3599 92.433 33.5485C92.1838 33.2791 91.9234 33.0209 91.654 32.7717C89.0005 30.3157 85.449 28.8138 81.545 28.8138C80.5931 28.8138 79.6637 28.9036 78.7635 29.0743C82.2746 29.7837 85.2761 31.8962 87.1574 34.8034C86.2167 35.0234 85.2379 35.1401 84.2299 35.1401C80.9924 35.1401 76.3061 32.4431 74.4946 31.4006L74.4945 31.4005C74.1129 31.1809 73.8589 31.0347 73.7729 31.0027C73.1331 30.6929 72.4776 30.41 71.8064 30.1608C71.537 30.0598 71.2653 29.9633 70.9914 29.8735C70.0755 29.5682 69.1326 29.3212 68.1695 29.1349C67.734 29.0496 67.294 28.9777 66.8495 28.9194C66.4454 28.8655 66.0368 28.8206 65.6282 28.7869C65.2645 28.7487 64.9121 28.6769 64.5731 28.5669C64.4249 28.522 64.2768 28.4681 64.1331 28.4053C63.7963 28.2661 63.4776 28.091 63.179 27.8867C61.7961 26.9348 60.8914 25.3431 60.8914 23.5382C60.8914 23.0825 60.9497 22.6402 61.0575 22.2204C61.0665 22.189 61.0755 22.1553 61.0844 22.1216C61.1069 22.0206 61.1181 21.9151 61.1181 21.8073C61.1181 21.3426 60.8981 20.9296 60.5546 20.6691C60.4918 20.6198 60.4244 20.5771 60.3548 20.5412C60.155 20.4334 59.926 20.3728 59.6836 20.3728C59.1313 20.3728 58.6532 20.6849 58.4129 21.1428C58.395 21.1765 58.377 21.2147 58.3613 21.2506C58.2895 21.401 58.2244 21.5537 58.1637 21.7086C58.1099 21.8455 58.0605 21.9824 58.0133 22.1216C57.7462 22.9298 57.6003 23.7941 57.6003 24.6921V24.6928C57.6003 24.7577 57.6003 24.8225 57.6025 24.8874C57.607 25.0311 57.6137 25.177 57.625 25.3185V25.3229C57.735 26.7597 58.2154 28.091 58.9719 29.2224C59.0707 29.3706 59.1762 29.5165 59.2862 29.658C58.6913 29.7747 58.0762 29.8376 57.4476 29.8376C57.4027 29.8376 57.3601 29.8375 57.3152 29.8353C57.1311 29.8331 56.947 29.8263 56.7651 29.8129C56.4149 29.7882 56.0692 29.7433 55.7302 29.6804C53.8175 29.3279 52.1091 28.394 50.7936 27.0718C49.1009 25.3746 48.057 23.0331 48.057 20.4469V20.3459C48.0457 19.4703 47.3318 18.7632 46.4541 18.7632C45.6369 18.7632 44.9634 19.3738 44.8646 20.164C44.8601 20.2044 44.8556 20.2471 44.8534 20.2898C44.8197 20.6602 44.804 21.0328 44.804 21.4122C44.804 24.7842 46.0926 27.8575 48.2051 30.1631C49.0515 31.088 50.0325 31.8894 51.1146 32.5382C52.2662 33.2297 53.5346 33.746 54.8839 34.0513C55.1218 34.1052 55.3598 34.1524 55.6022 34.1928C56.3049 34.3117 57.0256 34.3724 57.7619 34.3724C58.3074 34.3724 58.844 34.3387 59.3715 34.2736H59.3738L59.623 34.2399L59.6777 34.232L59.7622 34.2197C60.6018 34.0962 61.4593 34.0244 62.3281 34.0087C62.4628 34.0064 62.5998 34.0042 62.7345 34.0042C63.6976 34.0042 64.6449 34.0715 65.5721 34.2017C65.7382 34.2219 65.9044 34.2489 66.0682 34.2758C67.2087 34.4622 68.3154 34.7428 69.384 35.111C71.0408 35.6789 72.5988 36.4557 74.0311 37.4075C74.0523 37.4221 74.0741 37.4366 74.0958 37.4511L74.0963 37.4514C74.1181 37.4659 74.14 37.4805 74.1613 37.4951C77.0169 39.3921 80.3754 40.5909 83.9965 40.8446C84.4791 40.8805 84.9663 40.8984 85.4579 40.8984C85.6353 40.8984 85.8104 40.8962 85.9855 40.8917C86.4008 40.8805 86.8161 40.858 87.2247 40.8199C87.6355 40.7884 88.0441 40.7413 88.4482 40.6807C88.6952 40.6448 88.9399 40.6044 89.1823 40.5595C91.0277 40.2205 92.7855 39.6323 94.4198 38.8331C94.7543 38.6715 95.118 38.5592 95.5019 38.5053C95.6186 38.4874 95.7353 38.4761 95.8566 38.4717L95.8567 38.4716C95.9128 38.4694 95.9689 38.4672 96.0249 38.4672C97.0486 38.4672 97.9736 38.8825 98.6448 39.5515C98.912 39.8186 99.1365 40.1262 99.3116 40.4652C99.3273 40.4944 99.343 40.5235 99.3565 40.5527C99.3789 40.5976 99.3991 40.6425 99.4193 40.6897C99.6191 41.1432 99.7291 41.6438 99.7291 42.1713C99.7291 43.4218 99.1095 44.5263 98.1621 45.1953C97.7783 45.4692 97.3382 45.6712 96.8646 45.779C96.676 45.8239 96.4807 45.8531 96.2809 45.8665C96.1956 45.8733 96.1103 45.8755 96.0249 45.8755C95.32 45.8755 94.6623 45.678 94.101 45.3367C93.459 44.9461 92.9426 44.3647 92.6373 43.6687C91.9526 43.9763 91.2477 44.2457 90.5248 44.4769C89.995 44.6475 89.454 44.7957 88.9039 44.9237H88.9017C88.6098 44.991 88.3135 45.0516 88.0172 45.1055H88.0149C87.9184 45.1257 87.8219 45.1414 87.7253 45.1571C87.658 45.1706 87.5884 45.1818 87.5188 45.1908C86.9621 45.2806 86.3986 45.3479 85.8261 45.3884C85.3187 45.4265 84.8046 45.4467 84.2861 45.4467C83.745 45.4467 83.2062 45.4265 82.6764 45.3839C82.095 45.339 81.518 45.2694 80.9523 45.1751C78.3975 44.7575 75.9999 43.864 73.8582 42.5889C72.8727 42.0075 71.8535 41.4821 70.8006 41.0152H70.7984C69.6355 40.5011 68.4344 40.0611 67.1997 39.7019C65.9717 39.3427 64.71 39.0621 63.4192 38.8645C62.6873 38.7545 61.9465 38.6692 61.1989 38.6131C60.4626 38.5592 59.7217 38.53 58.9719 38.53C58.3209 38.53 57.6743 38.5502 57.0323 38.5929C56.2757 38.6423 55.5282 38.7208 54.7873 38.8286C52.4616 39.1586 50.2233 39.7647 48.1063 40.6111C47.8841 40.7009 47.6641 40.7907 47.4441 40.885C47.4553 40.8693 47.4665 40.8558 47.4822 40.8401C46.2273 41.2734 44.8961 41.545 43.5132 41.6281C43.3987 41.637 43.2819 41.6438 43.1652 41.646C42.9676 41.655 42.7678 41.6595 42.5658 41.6595H42.5164C39.0435 41.6483 35.8444 40.4652 33.2986 38.4829C33.4445 38.8398 33.6039 39.1878 33.7745 39.529C33.7824 39.5447 33.7903 39.5599 33.7981 39.575L33.8104 39.5988L33.8217 39.6211C35.1395 42.1938 37.1756 44.34 39.6631 45.7947C40.2265 46.1247 40.8125 46.4188 41.4209 46.6747C42.009 46.9217 42.6152 47.1327 43.237 47.3056C43.3403 47.3347 43.4436 47.3617 43.5468 47.3864H43.5491C43.7421 47.4358 43.933 47.4807 44.1283 47.5211C45.143 47.7388 46.1959 47.8511 47.2757 47.8511C50.1066 47.8511 52.7512 47.0743 55.0141 45.7229C55.0152 45.7229 55.0158 45.7223 55.0163 45.7217C55.0169 45.7212 55.0174 45.7206 55.0186 45.7206L55.025 45.7171L55.032 45.7128C55.0365 45.71 55.041 45.7071 55.0455 45.7049C55.05 45.7004 55.0545 45.6982 55.059 45.6959C55.0612 45.6937 55.0635 45.6937 55.0657 45.6914C55.0971 45.6713 55.1285 45.6533 55.1599 45.6354L55.1599 45.6354L55.16 45.6353L55.16 45.6353C55.4316 45.4692 55.71 45.312 55.9906 45.1639C58.0852 44.0459 60.4154 43.314 62.8871 43.0581C62.8894 43.0581 62.8894 43.0581 62.8916 43.0559L63.1116 43.0356C63.6841 42.984 64.2633 42.9571 64.8492 42.9571C65.4643 42.9571 66.0705 42.9863 66.6699 43.0446C70.0912 43.3724 73.2476 44.6138 75.8899 46.5288C73.9615 46.2212 71.9837 46.0798 69.9655 46.118C68.9261 46.1382 67.8979 46.2055 66.8832 46.3178C65.9088 46.4255 64.9458 46.5759 63.9961 46.7668C61.7265 47.2225 59.5377 47.9094 57.4566 48.8007C57.0682 48.9668 56.6843 49.1397 56.3049 49.3193C55.8649 49.5281 55.4316 49.7436 55.0028 49.9703C53.9814 50.5091 52.9891 51.1018 52.0305 51.7416C51.9071 51.8224 51.7858 51.9032 51.6668 51.9885C50.8474 52.5475 50.0572 53.1402 49.2894 53.7733C49.2883 53.7733 49.2877 53.7733 49.2871 53.7736L49.2862 53.7743L49.2849 53.7755C48.5733 54.3615 47.8841 54.9743 47.2218 55.6141C47.2218 55.6141 47.2218 55.6164 47.2196 55.6164C47.2196 55.6164 47.2196 55.6171 47.2192 55.6177C47.2189 55.6182 47.2183 55.6186 47.2173 55.6186C46.898 55.8661 46.2021 56.6295 45.7903 57.0813L45.7177 57.1609C45.1767 57.7536 44.6558 58.3642 44.1552 58.995C43.8117 59.4261 43.4795 59.8661 43.1562 60.3128L43.1557 60.3136C43.0391 60.4772 42.9226 60.6408 42.8082 60.8067C41.1447 63.2021 39.7708 65.822 38.7359 68.6124C38.0355 70.5027 37.4899 72.467 37.1173 74.4965V74.4987C36.7401 76.5416 36.5403 78.6474 36.5291 80.7981V80.8699C36.5291 81.1348 36.5313 81.3997 36.5358 81.6646C36.5718 83.5818 36.7603 85.4608 37.0858 87.2882C37.1263 87.5217 37.1712 87.7552 37.2183 87.9864V87.9887C37.5259 89.5467 37.9367 91.0642 38.4396 92.5369C38.453 92.5773 38.4598 92.6222 38.4598 92.6694C38.4598 92.8333 38.37 92.977 38.2375 93.0533C38.1724 93.0914 38.0961 93.1139 38.0153 93.1139C37.8334 93.1139 37.6785 93.0061 37.6067 92.8512C37.6022 92.8355 37.5955 92.8176 37.5887 92.8018C37.5887 92.801 37.5884 92.8004 37.5881 92.8C37.5879 92.7996 37.5877 92.7993 37.5877 92.799C37.5877 92.7986 37.588 92.7981 37.5887 92.7974C37.3485 92.1441 37.0567 91.5043 36.7132 90.8869C35.4919 88.7924 34.7982 86.4733 34.6344 84.1251C34.6334 84.1242 34.6329 84.1233 34.6326 84.1225C34.6321 84.1214 34.6321 84.1206 34.6321 84.1206C34.6052 83.7232 34.5917 83.3259 34.5939 82.9308C34.4615 83.1059 34.329 83.2855 34.2056 83.4651C33.559 84.3877 33.0359 85.3688 32.6319 86.388C31.9 88.2266 31.5633 90.1842 31.6194 92.1351C31.6261 92.4067 31.6418 92.6784 31.6643 92.95C31.7586 94.0792 31.9853 95.1972 32.3445 96.2838C32.3647 96.3444 32.3849 96.405 32.4051 96.4634C33.7162 100.529 33.5388 104.972 31.8753 108.936C32.8025 108.382 33.6758 107.704 34.475 106.905C35.6109 105.769 36.5022 104.478 37.1465 103.102C37.7436 101.824 38.1275 100.475 38.2981 99.1034C38.3206 98.9418 38.3385 98.7779 38.352 98.6163V98.6028C38.352 98.5714 38.3542 98.5422 38.361 98.513V98.5108C38.4036 98.3087 38.5832 98.1561 38.7988 98.1561C39.03 98.1561 39.2208 98.3312 39.2433 98.5579C39.2792 98.971 39.3263 99.3818 39.3869 99.7881C39.6429 101.654 40.1053 103.456 40.7451 105.169C43.026 111.289 47.5788 116.302 53.3797 119.182C52.1899 117.636 51.4334 115.743 51.2852 113.68C51.2672 113.433 51.2583 113.186 51.2583 112.935C51.2583 111.922 51.4042 110.943 51.6781 110.021C51.8622 109.397 52.1046 108.797 52.3987 108.229C52.3852 108.447 52.3807 108.667 52.3807 108.887C52.3807 109.453 52.4167 110.012 52.4863 110.559C52.9869 114.443 55.2071 117.788 58.3568 119.809C58.5387 119.925 58.725 120.038 58.9136 120.145C59.9058 120.722 60.9363 121.243 62.0026 121.699C62.0049 121.701 62.0049 121.701 62.0071 121.701C62.8804 122.076 63.7739 122.408 64.6921 122.696H64.6943C67.3928 123.544 70.2618 124 73.2386 124C81.435 124 88.8209 120.543 94.018 115.007C94.0988 114.924 94.1774 114.838 94.2537 114.753C94.3053 114.699 94.3547 114.645 94.4018 114.591C94.4759 114.513 94.5478 114.432 94.6174 114.351L94.6208 114.346L94.6233 114.343C94.6253 114.341 94.6272 114.339 94.6291 114.337L94.6308 114.335C96.4268 112.263 97.7693 109.789 98.5034 107.066C98.9254 105.52 99.1477 103.894 99.1477 102.215C99.1477 101.656 99.123 101.104 99.0736 100.558C99.0669 100.482 99.0601 100.406 99.0512 100.329C98.9367 99.1798 98.7166 98.0618 98.3979 96.9864C98.1779 96.2299 97.9085 95.4935 97.5942 94.7819L97.5877 94.7649C97.5827 94.7526 97.5772 94.7403 97.5695 94.728C97.4213 94.389 97.2642 94.0568 97.0935 93.7313C96.4694 92.5212 95.7151 91.3898 94.8486 90.3526C93.8451 89.1471 92.6889 88.074 91.4116 87.1558C91.2993 87.0772 91.1871 86.9986 91.0748 86.9223C90.9581 86.8392 90.8391 86.7607 90.7201 86.6843C89.8401 86.1096 88.9084 85.609 87.9319 85.1914C87.7635 85.1174 87.5929 85.0478 87.4223 84.9804C86.1606 84.482 84.8316 84.1184 83.4509 83.9073C83.4405 83.9063 83.43 83.9047 83.4193 83.9032C83.4071 83.9014 83.3945 83.8995 83.3813 83.8983C82.7326 83.7996 82.0703 83.7367 81.4013 83.712C81.3564 83.7075 81.3093 83.7053 81.2644 83.7075C81.0533 83.6985 80.84 83.6941 80.6268 83.6941C79.7108 83.6941 78.8084 83.7614 77.9283 83.8894C77.9162 83.8914 77.904 83.8932 77.8918 83.895L77.8631 83.8989L77.854 83.9002C77.8379 83.9024 77.8215 83.9047 77.8049 83.9073C77.5849 83.941 77.3671 83.9792 77.1493 84.0218C77.1157 84.0173 77.082 84.0128 77.0483 84.0061C76.9136 84.0218 76.7767 84.0353 76.642 84.0488C76.5589 84.0555 76.4759 84.0622 76.3928 84.0667C75.8944 84.1071 75.3871 84.1273 74.8774 84.1273C74.2758 84.1273 73.6831 84.1004 73.0972 84.0465L72.9535 84.033C70.6973 83.8108 68.5714 83.2002 66.6632 82.2797C66.3803 82.145 66.1019 82.0014 65.828 81.8487C65.269 81.5434 64.7325 81.2089 64.2184 80.8497C64.1398 80.7958 64.0635 80.7419 63.9894 80.6858C63.9715 80.6746 63.9557 80.6634 63.9378 80.6499C63.5202 80.3446 63.1184 80.0236 62.7367 79.6846C62.5414 79.5139 62.3506 79.3366 62.1665 79.157C61.2304 78.25 60.4154 77.2443 59.7464 76.1555C59.4479 75.6706 59.1762 75.17 58.9405 74.6536C58.9158 74.6065 58.8934 74.5571 58.8732 74.5099C58.7856 74.3191 58.7025 74.1238 58.6262 73.9285C58.5364 73.7107 58.4556 73.4885 58.3793 73.2662C58.184 72.6915 58.0246 72.1033 57.9056 71.5017C57.8831 71.5073 57.8601 71.5135 57.8371 71.5196C57.8141 71.5258 57.7911 71.532 57.7686 71.5376C57.7781 71.5316 57.7875 71.5255 57.7968 71.5194L57.8213 71.5031L57.8214 71.503C57.8458 71.4867 57.8704 71.4702 57.8966 71.4545C57.7776 70.8507 57.699 70.231 57.6631 69.6047C57.6564 69.4857 57.6519 69.3645 57.6497 69.2455C57.6429 69.1041 57.6407 68.9627 57.6407 68.819C57.6407 67.0522 57.9774 65.3528 58.6015 63.7746C58.7362 63.4266 58.8866 63.0831 59.0527 62.7464C59.1762 62.4927 59.3064 62.2413 59.4456 61.9943C59.7869 61.3882 60.1707 60.8045 60.5973 60.2477C60.925 59.8167 61.2775 59.4014 61.6524 59.004C62.299 58.3148 63.0151 57.6772 63.7896 57.1003C64.5888 56.5031 65.4486 55.9688 66.3623 55.5086C66.643 55.3649 66.9303 55.2303 67.2221 55.1023C68.3334 54.6106 69.5143 54.2245 70.7467 53.9574C70.8096 53.9416 70.8702 53.9282 70.9331 53.917C72.1992 53.652 73.5215 53.5129 74.8774 53.5129C76.1212 53.5129 77.3334 53.6296 78.5008 53.8541H78.5076L78.5076 53.8541C78.5525 53.8608 78.5974 53.8676 78.64 53.881C78.9812 53.9731 79.2372 54.2672 79.2753 54.6264C79.2776 54.6578 79.2798 54.6892 79.2798 54.7206C79.2798 55.1696 78.9386 55.5401 78.5008 55.5849C76.9249 55.7084 75.414 56.0384 74.0019 56.5436C72.7223 57.0015 71.528 57.6009 70.4369 58.326H70.4347C70.1473 58.5146 69.869 58.7122 69.5973 58.9187C69.3257 59.123 69.063 59.3363 68.8093 59.5585C68.5646 59.7673 68.3289 59.9851 68.1022 60.2118C67.0897 61.2041 66.2321 62.3266 65.5631 63.5478C65.2354 64.145 64.9525 64.7646 64.719 65.4066C64.3598 66.3809 64.1174 67.4046 64.0029 68.4598L64.0433 68.4935C64.0336 68.4962 64.024 68.4998 64.0148 68.5032C64.0091 68.5054 64.0036 68.5074 63.9984 68.5092C63.949 68.9627 63.9243 69.4206 63.9243 69.8831C63.9243 70.1188 63.931 70.3523 63.9423 70.5858C63.9512 70.7205 63.9602 70.8551 63.9715 70.9898C63.9984 71.3154 64.0388 71.6386 64.0904 71.9597C64.1668 72.4378 64.27 72.907 64.398 73.3673C64.4429 73.5311 64.4923 73.6905 64.5439 73.8499V73.8522C64.6113 74.0677 64.6853 74.2787 64.7639 74.4897H64.7662C64.7997 74.5815 64.8356 74.6733 64.8714 74.7651L64.8715 74.7655L64.8717 74.7659H64.8739C64.9547 74.9679 65.0423 75.17 65.1343 75.3675C65.159 75.4236 65.1837 75.4775 65.2107 75.5314C65.3252 75.244 65.4464 74.9589 65.5743 74.6783C65.6103 74.5952 65.6484 74.5144 65.6888 74.4314C65.947 73.8858 66.2321 73.3538 66.5397 72.8397C66.6032 72.7315 66.6694 72.6259 66.7352 72.521L66.7956 72.4244H66.7979C67.0807 71.9776 67.3815 71.5443 67.7026 71.1268C67.7924 71.0056 67.8867 70.8866 67.9809 70.7698C67.9473 70.7654 67.9136 70.7609 67.8799 70.7586C67.9537 70.7094 68.0298 70.6624 68.1059 70.6154L68.1059 70.6154L68.106 70.6153L68.1067 70.6149C68.4838 70.1547 68.8812 69.7125 69.301 69.2927C69.3773 69.2141 69.4536 69.1378 69.5345 69.0614C69.6624 68.9357 69.7904 68.8145 69.9206 68.6977C70.2102 68.4283 70.5088 68.1724 70.8163 67.9255C71.2182 67.6 71.6335 67.2924 72.0623 67.0028H72.0668C72.0668 67.0028 72.0669 67.0028 72.0672 67.0028C72.0674 67.0027 72.0677 67.0026 72.0679 67.0025C72.0685 67.0022 72.069 67.0017 72.069 67.0006C73.0703 66.3226 74.1344 65.7389 75.2613 65.2652V65.263C75.414 65.2001 75.5689 65.1372 75.726 65.0766C76.2042 64.8903 76.6914 64.7219 77.1875 64.576C78.3661 64.228 79.5941 63.9923 80.8603 63.8868C81.069 63.8666 81.2778 63.8531 81.4889 63.8419L81.4888 63.8418L81.4855 63.835C81.4844 63.8325 81.4833 63.8296 81.4821 63.8262H81.5607C81.6976 63.8262 81.8346 63.8262 81.9693 63.8239H81.9738C82.3823 63.8172 82.7864 63.8015 83.1883 63.7746C83.3262 63.7702 83.462 63.7594 83.5998 63.7484H83.5998H83.5999H83.5999L83.6103 63.7476C85.0696 63.6399 86.4951 63.4131 87.8802 63.0764C88.7648 62.8631 89.6335 62.6072 90.4799 62.3064C90.8099 62.1919 91.1354 62.0706 91.4565 61.9427C91.2275 62.2457 90.9917 62.5443 90.7493 62.8384C90.1432 63.5725 89.4988 64.2752 88.8209 64.9397C88.6098 65.1485 88.3943 65.3528 88.1766 65.5548C86.9306 66.6975 85.5747 67.7279 84.1267 68.6192C83.9583 68.7269 83.7877 68.8302 83.6171 68.9267C83.0626 69.2567 82.4946 69.5643 81.9131 69.8494C81.6303 69.9908 81.3429 70.1278 81.0533 70.258L81.0246 70.2707C81.0118 70.2765 80.9988 70.2823 80.9859 70.2878L80.9689 70.295C80.9603 70.2986 80.9518 70.302 80.9433 70.3051C80.6043 70.4578 80.2609 70.6037 79.9129 70.7407C79.2394 71.0078 78.5524 71.248 77.852 71.4613C76.6308 71.8339 75.3736 72.1191 74.0872 72.3144L74.0872 72.3144L74.0871 72.3144L74.087 72.3144C73.9816 72.3301 73.8761 72.3458 73.7707 72.3593C73.6382 72.3795 73.5058 72.3974 73.3733 72.4132C73.0029 72.4603 72.628 72.4985 72.2531 72.5276L72.2531 72.529C72.2529 72.5297 72.2525 72.5293 72.2508 72.5276L72.2101 72.531C72.1169 72.5389 72.0262 72.5465 71.9321 72.5523C71.8917 72.5568 71.8512 72.5591 71.8108 72.5591C71.409 72.5883 71.0049 72.6062 70.5986 72.6129C70.8635 72.7297 71.1329 72.8419 71.4045 72.9497C71.4876 72.9834 71.5706 73.0148 71.6559 73.0462L71.6746 73.0504C71.7094 73.058 71.7452 73.0659 71.7794 73.0754C71.86 73.0956 71.9406 73.118 72.0212 73.1403L72.0219 73.1405C72.0982 73.1607 72.1723 73.1809 72.2464 73.2034C72.7582 73.3538 73.2588 73.5356 73.7415 73.7489L73.7451 73.7506C73.7461 73.7511 73.7472 73.7515 73.7483 73.7519C73.749 73.7521 73.7496 73.7523 73.7503 73.7525C73.7514 73.7528 73.7525 73.753 73.7536 73.7532C73.7548 73.7533 73.756 73.7534 73.7572 73.7534C75.1805 74.1665 76.6555 74.4583 78.1686 74.6222C78.3257 74.6401 78.4851 74.6559 78.6467 74.6671H78.649L78.649 74.667C78.6535 74.6626 78.658 74.6581 78.6602 74.6536C78.6692 74.6581 78.6782 74.6626 78.6871 74.6716C79.4482 74.7412 80.216 74.7748 80.995 74.7748C81.3878 74.7748 81.7785 74.7659 82.1668 74.7479C83.2085 74.703 84.2344 74.5952 85.2402 74.4269C85.3311 74.4151 85.4221 74.3995 85.5131 74.3839L85.6039 74.3685C86.2863 74.245 88.5852 73.6546 89.0544 73.5019C89.5976 73.3246 90.1319 73.1315 90.6595 72.9183C90.9783 72.7925 91.2926 72.6601 91.6046 72.5209C93.1222 71.8429 94.5635 71.0235 95.9104 70.0761C95.9778 70.0312 96.0452 69.9841 96.1125 69.9347C96.1327 69.9212 96.1529 69.9078 96.1731 69.8898C97.2103 69.1467 98.1891 68.3273 99.105 67.4361C99.7987 66.7671 100.456 66.0532 101.074 65.3079C101.15 65.2158 101.224 65.126 101.296 65.034C102.374 65.6828 103.097 66.8636 103.097 68.2128C103.097 68.2937 103.094 68.3745 103.088 68.4553C103.063 68.8459 102.978 69.2186 102.841 69.5665C102.58 70.2355 102.129 70.808 101.554 71.2211C101.195 71.4792 100.845 71.7509 100.506 72.036C99.9087 72.5344 99.3452 73.0732 98.8199 73.6456C97.913 74.6334 97.1182 75.7267 96.4537 76.9031C96.2337 77.2937 96.0272 77.6933 95.8364 78.1041C95.1404 79.5903 94.6465 81.1932 94.3884 82.8702C95.3313 81.9654 96.355 81.146 97.4482 80.4232C98.1338 79.9692 98.8676 79.5938 99.6044 79.2168C99.9461 79.042 100.289 78.8668 100.627 78.6833C102.104 77.8819 105.104 77.2555 105.384 77.2039H105.386C106.729 76.9727 108.026 76.6157 109.27 76.1465C111.176 75.4304 112.954 74.4516 114.559 73.255C115.417 72.6174 116.225 71.917 116.979 71.1627C117.321 70.8192 117.653 70.4623 117.972 70.0964C117.972 70.0941 117.974 70.0919 117.976 70.0896L117.981 70.0851C118.001 70.0646 118.018 70.044 118.036 70.0217L118.041 70.0155C118.051 70.0043 118.061 69.9931 118.07 69.9819C118.08 69.9707 118.089 69.9594 118.1 69.9482C118.268 69.7394 118.407 69.5037 118.506 69.25C118.627 68.9469 118.692 68.6169 118.692 68.2712C118.692 67.3822 118.257 66.5942 117.588 66.1093C118.077 65.4381 118.362 64.6142 118.362 63.7207C118.362 61.6216 116.777 59.893 114.739 59.6685C115.457 60.4363 115.893 61.4667 115.893 62.5982C115.893 63.366 115.693 64.0866 115.338 64.7107C115.154 65.0407 114.925 65.3415 114.665 65.6087C114.661 65.612 114.657 65.6157 114.653 65.6196C114.65 65.6225 114.647 65.6256 114.644 65.6287C114.641 65.6325 114.637 65.6363 114.633 65.6401C114.413 65.8534 114.108 65.9881 113.774 65.9881C113.093 65.9881 112.539 65.4336 112.539 64.7534C112.539 64.7107 112.541 64.668 112.546 64.6276C112.55 64.585 112.557 64.5446 112.564 64.5042C112.588 64.3111 112.599 64.1113 112.599 63.9093C112.599 62.7194 112.166 61.6329 111.446 60.7955C111.185 60.4879 110.884 60.2141 110.552 59.9851C110.06 59.6393 109.499 59.3834 108.895 59.2442C108.841 59.2869 108.79 59.3318 108.738 59.3789V59.3812C108.936 59.8593 109.077 60.3645 109.156 60.8898C109.207 61.2153 109.232 61.5498 109.232 61.8888C109.232 62.7104 109.082 63.4962 108.805 64.2213C108.323 63.7229 107.818 63.2447 107.292 62.7845C107.086 62.6072 106.877 62.4298 106.666 62.2592C106.549 62.1627 106.433 62.0684 106.314 61.9741C105.689 61.4802 105.041 61.0133 104.372 60.58C104.325 60.5463 104.275 60.5149 104.228 60.4857C104.098 60.4026 103.97 60.3218 103.84 60.241C102.194 59.224 100.425 58.3867 98.5617 57.7536C98.2923 57.6638 98.0185 57.5762 97.7446 57.4954C96.9229 57.244 96.0833 57.033 95.228 56.8668C94.999 56.8219 94.7655 56.7793 94.5321 56.7411C94.3749 56.7142 94.2155 56.6872 94.0561 56.667C92.7967 56.4762 91.5059 56.3797 90.1926 56.3797C89.9052 56.3797 89.6178 56.3842 89.3327 56.3954C89.335 56.3954 89.3395 56.3931 89.3417 56.3909C89.317 56.3931 89.2923 56.3931 89.2676 56.3931C87.7927 56.3931 86.5984 55.1966 86.5984 53.7216C86.5984 53.6206 86.6029 53.5218 86.6141 53.4253C86.7286 52.3994 87.42 51.5508 88.3584 51.2118C88.639 51.1108 88.9399 51.0546 89.2542 51.0524H89.2856C89.3968 51.0535 89.5075 51.0541 89.6181 51.0546C89.7286 51.0552 89.8391 51.0558 89.9501 51.0569C90.8166 51.0614 91.6832 51.0681 92.5453 51.0771C93.1918 51.0816 93.8339 51.0883 94.4759 51.095C94.4778 51.0907 94.4798 51.0865 94.4819 51.0824C94.4845 51.0776 94.4872 51.0729 94.4898 51.0683C94.4928 51.0629 94.4958 51.0576 94.4984 51.0524C94.5702 51.0681 94.6443 51.0838 94.7184 51.0973H94.7565L96.3325 51.1175C96.6033 51.1219 96.8741 51.1259 97.1446 51.1298C97.4191 51.1337 97.6932 51.1377 97.9668 51.1422H98.4921C98.7436 51.1422 99.1903 51.1579 99.4418 51.1669C99.4654 51.1674 99.4888 51.1678 99.512 51.1681L99.5899 51.1691C99.6393 51.1697 99.6884 51.1702 99.7381 51.1714C101.262 51.1983 102.78 51.2297 104.286 51.2679C104.915 51.2814 105.539 51.2971 106.163 51.3128L106.891 51.333C107.272 51.342 107.654 51.3532 108.033 51.3644L108.035 51.3667C108.042 51.9302 108.006 52.4824 107.93 53.0235C107.829 53.771 107.654 54.4939 107.411 55.1876C107.349 55.3694 107.281 55.5468 107.209 55.7241C107.393 55.6254 107.573 55.5243 107.75 55.4188C108.388 55.0417 108.987 54.6129 109.549 54.1347C110.456 53.3647 111.257 52.4734 111.928 51.4857C112.067 51.3263 112.093 51.3128 112.106 51.3061L112.109 51.3043C112.12 51.2982 112.127 51.2871 112.207 51.1669L112.207 51.1669C112.266 51.0778 112.321 50.9917 112.374 50.9093C112.736 50.3436 112.986 49.9533 113.715 49.9905C114.431 50.0264 114.99 50.6281 114.99 51.3442V51.3577C114.99 51.4048 114.988 51.452 114.984 51.4991C114.984 51.5328 114.984 51.5642 114.979 51.5957C114.91 53.0392 114.568 54.4108 114.003 55.6613C115.893 54.806 117.505 53.441 118.663 51.7438C119.101 51.1018 119.474 50.4103 119.772 49.683L119.774 49.6807C120.578 49.2452 121.265 48.6189 121.775 47.8623C122.385 46.9598 122.74 45.871 122.74 44.6969C122.74 44.0773 122.641 43.4802 122.455 42.9212C123.351 41.3923 123.862 39.6121 123.862 37.7129ZM66.7305 121.778H66.7103L66.7179 121.777L66.7205 121.777C66.7249 121.777 66.7288 121.777 66.7327 121.775C66.7305 121.775 66.7305 121.778 66.7305 121.778ZM65.9201 90.9587C65.9268 90.9879 65.9335 91.0171 65.9425 91.0463L65.8909 90.9947C65.8999 90.9812 65.9089 90.97 65.9201 90.9587ZM59.0146 94.389C59.6858 95.159 60.3099 95.6238 60.3099 95.6238C60.3274 95.6207 60.4942 95.7499 60.7087 95.9159L60.7091 95.9163L60.7093 95.9164C60.9622 96.1124 61.2812 96.3595 61.4998 96.5015H61.502C61.6794 96.6183 61.8545 96.7283 62.0385 96.8338C62.0947 96.8697 62.1508 96.9011 62.2092 96.9326C62.3977 97.0403 62.5886 97.1436 62.7839 97.2379C63.4102 97.5544 64.068 97.8193 64.7505 98.0281C65.9605 98.403 67.2468 98.6051 68.5804 98.6051C68.944 98.6051 69.3055 98.5893 69.6602 98.5602C69.7028 98.5579 69.7455 98.5534 69.7881 98.5489C70.2416 98.5085 70.6906 98.4434 71.1284 98.3559C70.8231 98.1471 70.5267 97.9248 70.2416 97.6914C69.7634 97.2962 69.3122 96.8697 68.8969 96.414H68.8946C68.6612 96.1581 68.4367 95.8932 68.2234 95.6193C68.1833 95.568 68.1432 95.5146 68.1031 95.4611L68.1022 95.4599C68.0056 95.3319 67.9114 95.2039 67.8216 95.0715C67.716 94.9256 67.6173 94.7752 67.5207 94.6225C67.4848 94.5686 67.4489 94.5125 67.4152 94.4541C67.1413 94.0096 66.8921 93.5472 66.6744 93.069C66.3758 92.4224 66.1311 91.7467 65.9448 91.0485C66.0278 91.1271 66.1131 91.2057 66.2007 91.282V91.2843C66.6385 91.6816 67.1077 92.0498 67.5993 92.3843C68.0887 92.7188 68.605 93.0219 69.1416 93.2868L69.1753 93.2618C69.2089 93.2369 69.2426 93.2121 69.2763 93.1835C69.2493 93.2261 69.2202 93.2665 69.1887 93.3092L69.2308 93.3299C69.9954 93.7057 70.695 94.0496 71.7974 94.2701C72.7466 94.4599 73.8563 94.4892 75.5705 94.5344H75.5707L75.5756 94.5346C75.887 94.5428 76.2184 94.5515 76.5724 94.5619C77.0191 94.5754 77.4569 94.5978 77.8834 94.6696C78.081 94.7011 78.2786 94.7415 78.4716 94.7909H78.4739C80.9321 95.3925 82.9436 97.1346 83.9156 99.4245C84.102 99.8645 84.2501 100.325 84.3557 100.801C84.405 101.03 84.4477 101.263 84.4769 101.499C84.5218 101.838 84.5442 102.184 84.5442 102.534C84.5442 104.359 83.9314 106.04 82.8987 107.383C81.7627 108.865 80.1194 109.935 78.2269 110.333L78.2202 110.407H78.2179C77.879 110.438 77.5355 110.463 77.192 110.483L77.1124 110.488C77.1004 110.489 77.0885 110.49 77.0766 110.49C77.0682 110.491 77.0598 110.491 77.0514 110.492C77.0287 110.493 77.006 110.494 76.9832 110.494C76.9799 110.494 76.9765 110.495 76.9731 110.495C76.9697 110.496 76.9664 110.497 76.963 110.497C76.5904 110.515 76.2132 110.53 75.836 110.537C74.3521 110.566 72.8862 110.497 71.4494 110.335C68.5534 110.009 65.7607 109.313 63.1251 108.29C60.5367 107.286 58.0964 105.969 55.8492 104.381C55.4114 104.074 54.9826 103.755 54.5606 103.427C54.3249 103.243 54.0914 103.057 53.8602 102.868C53.8287 102.842 53.7977 102.816 53.7668 102.791C53.736 102.765 53.7052 102.739 53.6738 102.713C52.1899 101.476 50.807 100.114 49.5454 98.641C48.8831 97.871 48.2545 97.0695 47.6596 96.2389C47.1971 95.5946 46.7571 94.9323 46.3396 94.2543C46.2543 94.1174 46.1712 93.9804 46.0881 93.8435C45.6908 93.1812 45.3159 92.5078 44.9612 91.8186V91.8163C43.7399 89.4299 42.7768 86.8819 42.1146 84.2059V84.2037C42.0629 83.9949 42.0135 83.7816 41.9664 83.5706C41.9619 83.5527 41.9574 83.5326 41.953 83.5124L41.9529 83.5122C41.9305 83.4179 41.9103 83.3236 41.8901 83.2294C41.8721 83.1508 41.8564 83.0744 41.8407 82.9959C41.8362 82.9846 41.8339 82.9734 41.8317 82.96C41.789 82.7557 41.7486 82.5514 41.7105 82.3448C41.715 82.3471 41.7194 82.3471 41.7239 82.3471C41.5915 81.5209 41.5241 80.6746 41.5241 79.8125C41.5241 79.1884 41.56 78.5733 41.6296 77.9672C41.7172 77.2039 41.8564 76.4586 42.0472 75.7312C42.8666 72.604 44.602 69.8494 46.9524 67.7751L46.939 67.7279L46.9479 67.7259C46.9737 67.7198 46.9979 67.7142 47.022 67.7122L47.0243 67.71C47.0557 67.6808 47.0894 67.6516 47.123 67.6247C47.1769 67.5775 47.2308 67.5326 47.2847 67.4877C47.8482 67.014 48.4431 66.5808 49.0672 66.1901C48.7394 66.6189 48.4319 67.0612 48.1423 67.5191C48.0345 67.6875 47.9312 67.8604 47.828 68.0332C47.7808 68.1118 47.7359 68.1904 47.691 68.2712C47.5765 68.471 47.4665 68.6731 47.361 68.8773C46.05 71.4007 45.3001 74.2607 45.2822 77.2959C45.2799 77.3363 45.2799 77.379 45.2799 77.4194C45.2799 77.8908 45.2979 78.3555 45.3316 78.8158V78.818C45.3473 79.0223 45.3652 79.2266 45.3899 79.4286C45.4932 80.4164 45.6773 81.3818 45.9355 82.3179C46.1667 83.1665 46.4563 83.9926 46.8043 84.7896C48.4027 88.4758 51.164 91.5424 54.6279 93.5225C54.0016 91.6637 53.6626 89.6746 53.6626 87.6048C53.6626 86.3947 53.7794 85.2139 54.0016 84.069C54.0809 84.2046 54.5815 85.5906 54.8283 86.2738C54.8961 86.4615 54.9447 86.5961 54.9602 86.6372C55.0168 86.7882 55.0767 86.9504 55.1401 87.1223C55.8305 88.9941 56.9461 92.0183 59.0146 94.389ZM66.9617 70.6688C66.9572 70.6666 66.9527 70.6643 66.9505 70.6621C66.955 70.6621 66.9595 70.6621 66.964 70.6643C66.964 70.6643 66.9595 70.6666 66.9617 70.6688L66.9617 70.6688ZM68.9912 67.3081C68.9902 67.3061 68.9892 67.3042 68.988 67.3022C68.9865 67.2997 68.9847 67.2972 68.9822 67.2946L68.9878 67.2934L68.9934 67.2924C68.9968 67.2918 69.0002 67.2913 69.0046 67.2902L69.002 67.2948C68.9995 67.2987 68.9959 67.3034 68.9912 67.3081ZM117.002 75.0442C116.919 76.0679 116.762 77.0714 116.539 78.0502C116.409 78.6227 116.256 79.1884 116.079 79.7407V79.7452C115.54 81.4581 114.795 83.0789 113.87 84.5786C113.603 85.0118 113.32 85.4361 113.024 85.8514C111.203 88.368 109.912 91.2932 109.315 94.4631C109.171 95.2062 109.068 95.965 109.008 96.7328C108.958 97.3232 108.933 97.9181 108.933 98.5197C108.933 99.1416 108.96 99.759 109.012 100.37C109.086 101.268 109.219 102.15 109.4 103.014C109.452 103.259 109.508 103.499 109.569 103.739C109.324 103.477 109.091 103.207 108.866 102.931H108.864C108.498 102.482 108.152 102.015 107.831 101.53C106.908 100.145 106.179 98.6208 105.676 96.9977C105.434 96.2119 105.245 95.4037 105.113 94.5776C105.016 93.9782 104.951 93.3676 104.919 92.7502V92.748L104.918 92.7465L104.918 92.7457C104.918 92.7452 104.918 92.7446 104.919 92.7435L104.919 92.7434L104.92 92.7433L104.92 92.7432C104.931 92.7231 104.942 92.703 104.951 92.6829C104.948 92.685 104.946 92.6869 104.943 92.6886C104.934 92.694 104.925 92.6974 104.915 92.7008C104.901 92.3977 104.893 92.0924 104.893 91.7849C104.893 87.5958 106.356 83.7457 108.801 80.7195H108.803C108.846 80.6611 108.893 80.6027 108.945 80.5444C110.04 79.2198 111.331 78.057 112.768 77.1029C113.58 76.5618 114.44 76.0859 115.338 75.6863C115.879 75.4438 116.434 75.2283 117.002 75.0442ZM104.605 84.0533C105.241 82.9982 105.647 81.7926 105.759 80.4995C105.407 80.5377 105.061 80.6005 104.724 80.6814C103.301 81.0271 102.021 81.7387 100.989 82.7153C100.432 83.2384 99.9492 83.84 99.554 84.5C98.9255 85.5484 98.5236 86.7472 98.4136 88.0291C99.0467 87.9595 99.6573 87.8181 100.237 87.6138C100.362 87.5711 100.483 87.524 100.605 87.4724H100.607C102.282 86.7944 103.685 85.5844 104.605 84.0533ZM48.2792 50.5653C47.3318 50.9739 46.4316 51.47 45.5875 52.0447H45.5853C45.1048 52.3725 44.6424 52.7227 44.2001 53.0976C43.5177 53.6768 42.8846 54.3099 42.3054 54.9901V54.9923C42.0517 55.2887 41.8092 55.5962 41.578 55.9128C41.5039 56.016 41.4276 56.1171 41.349 56.2158C38.9065 59.3722 35.0811 61.4039 30.782 61.4039C30.6518 61.4039 30.5194 61.4017 30.3891 61.3972C29.655 61.377 28.9367 61.2962 28.2362 61.1592C26.7164 60.8674 25.2886 60.3174 24 59.5541C27.015 58.9771 29.6842 57.4304 31.671 55.2483C31.6733 55.2438 31.6755 55.2415 31.68 55.237C32.1896 54.678 32.7374 54.155 33.3211 53.6701C33.7319 53.3266 34.1607 53.0056 34.6052 52.7047C36.473 51.4386 38.6192 50.5518 40.9337 50.1545C41.5421 50.0489 42.1662 49.9771 42.797 49.9412C43.0327 49.93 43.2707 49.921 43.5087 49.9187C43.5783 49.9165 43.6479 49.9165 43.7175 49.9165C43.814 49.9165 43.9105 49.9165 44.0071 49.9187C45.4887 49.9457 46.921 50.1679 48.2792 50.5653ZM33.999 69.6205C34.6658 67.0545 35.7726 64.6703 37.2408 62.5489C35.4875 63.8756 33.9339 65.4583 32.6364 67.2386C31.5655 68.7045 30.6698 70.3074 29.9806 72.0136C29.7381 72.6018 29.5248 73.2057 29.3363 73.8185C28.8087 75.5202 28.4809 77.3095 28.3754 79.1593C28.3732 79.1683 28.3732 79.1773 28.3732 79.1862C28.2497 80.8969 27.7783 82.5896 26.9566 84.1453C26.4425 85.1197 25.7937 86.0378 25.008 86.8775H25.0058C24.9137 86.9762 24.8194 87.075 24.7229 87.1715C24.5366 87.3579 24.3457 87.5375 24.1504 87.7103C24.678 87.625 25.2011 87.5083 25.7174 87.3556C26.8623 87.0256 27.9668 86.534 29.0018 85.8785C29.4059 85.627 29.7987 85.3486 30.1781 85.0433C30.5575 84.7425 30.9257 84.4147 31.2782 84.0623C32.0123 83.3282 32.6408 82.5267 33.1617 81.6804C33.4221 81.2606 33.6556 80.8295 33.8621 80.3873C33.7476 79.9046 33.6511 79.4152 33.5725 78.9191C33.3794 77.736 33.2784 76.5215 33.2784 75.2845C33.2784 73.3291 33.5276 71.4322 33.999 69.6227V69.6205Z" fill="url(#paint0_linear_44_5390)"/>
</g>
<defs>
<filter id="filter0_di_44_5390" x="4" y="8" width="140" height="140" filterUnits="userSpaceOnUse" color-interpolation-filters="sRGB">
<feFlood flood-opacity="0" result="BackgroundImageFix"/>
<feColorMatrix in="SourceAlpha" type="matrix" values="0 0 0 0 0 0 0 0 0 0 0 0 0 0 0 0 0 0 127 0" result="hardAlpha"/>
<feOffset dy="4"/>
<feGaussianBlur stdDeviation="2"/>
<feComposite in2="hardAlpha" operator="out"/>
<feColorMatrix type="matrix" values="0 0 0 0 0 0 0 0 0 0 0 0 0 0 0 0 0 0 0.25 0"/>
<feBlend mode="normal" in2="BackgroundImageFix" result="effect1_dropShadow_44_5390"/>
<feBlend mode="normal" in="SourceGraphic" in2="effect1_dropShadow_44_5390" result="shape"/>
<feColorMatrix in="SourceAlpha" type="matrix" values="0 0 0 0 0 0 0 0 0 0 0 0 0 0 0 0 0 0 127 0" result="hardAlpha"/>
<feOffset/>
<feGaussianBlur stdDeviation="3"/>
<feComposite in2="hardAlpha" operator="arithmetic" k2="-1" k3="1"/>
<feColorMatrix type="matrix" values="0 0 0 0 0.317647 0 0 0 0 0.258824 0 0 0 0 0.2 0 0 0 1 0"/>
<feBlend mode="normal" in2="shape" result="effect2_innerShadow_44_5390"/>
</filter>
<linearGradient id="paint0_linear_44_5390" x1="24" y1="70" x2="122.494" y2="69.8662" gradientUnits="userSpaceOnUse">
<stop stop-color="#95765C"/>
<stop offset="1" stop-color="#DDBA8E"/>
</linearGradient>
<clipPath id="clip0_44_5390">
<rect width="108" height="108" fill="white" transform="translate(20 16)"/>
</clipPath>
</defs>
</svg>
