<svg xmlns="http://www.w3.org/2000/svg" width="1em" height="1em" viewBox="0 0 24 24" fill="none">
    <g clip-path="url(#clip0_404_12708)">
        <rect width="24" height="24" rx="12" fill="white"/>
        <path fill-rule="evenodd" clip-rule="evenodd" d="M19.398 7.21607C19.398 6.86447 19.3009 6.615 19.2011 6.44868C19.1013 6.28237 19.0338 6.21484 19.0015 6.18258C18.8053 5.98634 18.5499 5.87259 18.3396 5.7789C18.2647 5.74554 18.1955 5.71472 18.1367 5.68363C17.5847 5.39137 17.2545 4.99702 17.2317 4.9698L17.2306 4.96847L17.2295 4.96725C17.2184 4.95595 17.1353 4.87134 17.0723 4.61921C17.033 4.4618 17.0289 4.34523 17.0258 4.25607C17.0244 4.21598 17.0232 4.18142 17.0191 4.15119C17.0058 4.05373 16.906 3.95394 16.7396 4.02047C16.5992 4.09067 16.6027 4.2675 16.6057 4.42206V4.42209V4.42213V4.42216C16.6062 4.44406 16.6066 4.46551 16.6066 4.48615C16.6066 4.59659 16.6731 4.9851 16.9392 5.28447C16.9624 5.31058 16.9836 5.33467 17.0034 5.35711C17.2099 5.59192 17.2576 5.64612 17.8041 5.94974C17.9545 6.03334 18.0863 6.09721 18.198 6.1513C18.3275 6.21405 18.4299 6.26364 18.5026 6.31563C18.5251 6.33171 18.5478 6.34718 18.5703 6.36259C18.7809 6.50649 18.9823 6.64412 18.9823 7.21141C18.9823 7.34579 18.959 7.47485 18.9157 7.5946C18.8362 7.53074 18.7448 7.48151 18.6453 7.45024C18.5655 7.42463 18.48 7.41099 18.3918 7.41099C18.3127 7.41099 18.2358 7.42197 18.1633 7.44292C18.0565 7.47253 17.9587 7.52342 17.8739 7.59028C17.8736 7.58995 17.8736 7.58961 17.8736 7.58928C17.7449 7.68308 17.5865 7.73797 17.4152 7.73797C17.2908 7.73797 17.1731 7.70903 17.0686 7.6568L17.0688 7.65713L17.0689 7.65763L17.0686 7.65813C16.9712 7.61689 16.869 7.58462 16.7629 7.56267C16.7383 7.55735 16.7137 7.55302 16.6888 7.54903C16.6548 7.39136 16.5936 7.24401 16.5105 7.11162C16.4829 7.06738 16.4529 7.0248 16.4203 6.98422C16.4087 6.96925 16.3967 6.95495 16.3841 6.94065L16.3734 6.92834L16.3628 6.91603C16.3132 6.86181 16.2597 6.81159 16.2024 6.76568C16.1718 6.74107 16.1402 6.71778 16.1073 6.69583C16.0741 6.67354 16.0398 6.65259 16.0042 6.63329C15.8073 6.52486 15.5808 6.46299 15.3399 6.46299C15.2381 6.46299 15.139 6.47396 15.0436 6.49492H15.0432C15.0023 6.5039 14.9624 6.51455 14.9235 6.52719C14.8606 6.54681 14.7997 6.57109 14.7412 6.59903C14.7043 6.55912 14.6657 6.52086 14.6258 6.48394C14.2326 6.12004 13.7064 5.89751 13.1279 5.89751C12.9869 5.89751 12.8492 5.91082 12.7158 5.9361C13.236 6.04121 13.6808 6.35422 13.9595 6.78498C13.8201 6.81757 13.6751 6.83487 13.5258 6.83487C13.0461 6.83487 12.3517 6.43525 12.0833 6.28078L12.0833 6.28078L12.0832 6.28074L12.0832 6.28072C12.0267 6.24821 11.9891 6.22657 11.9764 6.22183C11.8816 6.17593 11.7844 6.13401 11.685 6.09709C11.6451 6.08212 11.6048 6.06782 11.5642 6.05451C11.4285 6.00928 11.2888 5.97269 11.1461 5.94508C11.0816 5.93244 11.0164 5.92179 10.9505 5.91315C10.8906 5.90516 10.8301 5.89851 10.7696 5.89352C10.7157 5.88787 10.6635 5.87722 10.6132 5.86092C10.5913 5.85427 10.5693 5.84629 10.548 5.83697C10.4981 5.81635 10.4509 5.7904 10.4067 5.76014C10.2018 5.6191 10.0677 5.38326 10.0677 5.11583C10.0677 5.0483 10.0764 4.98277 10.0923 4.92057L10.0963 4.90594C10.0996 4.89097 10.1013 4.87533 10.1013 4.85937C10.1013 4.79051 10.0687 4.72931 10.0178 4.69072C10.0085 4.6834 9.99852 4.67708 9.98821 4.67176C9.95861 4.6558 9.92468 4.64682 9.88876 4.64682C9.80693 4.64682 9.73608 4.69305 9.70049 4.76091C9.69782 4.7659 9.69516 4.77155 9.69283 4.77687C9.68219 4.79916 9.67254 4.82178 9.66356 4.84473C9.65558 4.86502 9.64826 4.88531 9.64128 4.90594C9.60169 5.02568 9.58007 5.15375 9.58007 5.2868V5.28684C9.58007 5.29647 9.58007 5.30611 9.5804 5.31574C9.58107 5.33703 9.58207 5.35865 9.58373 5.3796V5.38027C9.60003 5.59315 9.67121 5.7904 9.78331 5.95805C9.79795 5.98001 9.81358 6.00163 9.82988 6.02258C9.74173 6.03988 9.65059 6.04919 9.55745 6.04919C9.5508 6.04919 9.54448 6.04919 9.53783 6.04886C9.51055 6.04853 9.48328 6.04753 9.45633 6.04553C9.40444 6.04187 9.35322 6.03522 9.30299 6.02591C9.01959 5.97368 8.76645 5.83531 8.57153 5.63939C8.32073 5.38792 8.16605 5.04098 8.16605 4.65779V4.64282C8.16439 4.5131 8.05861 4.40832 7.92855 4.40832C7.80747 4.40832 7.70769 4.49879 7.69305 4.61588C7.69238 4.62187 7.69172 4.62819 7.69139 4.63451C7.6864 4.68939 7.68407 4.74461 7.68407 4.80082C7.68407 5.30044 7.875 5.75581 8.18801 6.09742C8.31341 6.23447 8.45877 6.35322 8.6191 6.44935C8.78974 6.5518 8.97768 6.62831 9.17759 6.67354C9.21285 6.68153 9.2481 6.68851 9.28403 6.6945C9.38814 6.71213 9.49492 6.72111 9.60402 6.72111C9.68485 6.72111 9.76435 6.71612 9.84252 6.70647H9.84285L9.87977 6.70148L9.9004 6.69849C10.0248 6.6802 10.1519 6.66955 10.2806 6.66722C10.3006 6.66689 10.3208 6.66656 10.3408 6.66656C10.4835 6.66656 10.6239 6.67654 10.7612 6.69583C10.7859 6.69882 10.8105 6.70281 10.8348 6.70681C11.0037 6.73441 11.1677 6.77599 11.3261 6.83055C11.5715 6.9147 11.8024 7.02979 12.0146 7.17083L12.0339 7.1838C12.457 7.46488 12.9546 7.6425 13.4912 7.68009C13.5627 7.68541 13.6349 7.68807 13.7077 7.68807C13.734 7.68807 13.7599 7.68774 13.7859 7.68707C13.8474 7.68541 13.9089 7.68208 13.9695 7.67643C14.0304 7.67177 14.0909 7.66479 14.1508 7.65581C14.1874 7.65048 14.2236 7.6445 14.2595 7.63784C14.533 7.58762 14.7934 7.50047 15.0356 7.38205C15.0851 7.3581 15.139 7.34147 15.1959 7.33349C15.2132 7.33082 15.2305 7.32916 15.2485 7.3285L15.2485 7.3285C15.2568 7.32816 15.2651 7.32783 15.2734 7.32783C15.4251 7.32783 15.5621 7.38937 15.6616 7.48849C15.7012 7.52808 15.7344 7.57365 15.7604 7.62387L15.7604 7.62391C15.7627 7.62822 15.765 7.63253 15.767 7.63685C15.7704 7.6435 15.7734 7.65015 15.7763 7.65714C15.806 7.72433 15.8222 7.79851 15.8222 7.87667C15.8222 8.06195 15.7304 8.2256 15.5901 8.32473C15.5332 8.36531 15.468 8.39525 15.3978 8.41121C15.3699 8.41787 15.3409 8.42219 15.3113 8.42419C15.2987 8.42518 15.286 8.42552 15.2734 8.42552C15.169 8.42552 15.0715 8.39625 14.9883 8.34569C14.8932 8.28781 14.8167 8.20166 14.7715 8.09854C14.67 8.14411 14.5656 8.18403 14.4585 8.21829C14.38 8.24357 14.2998 8.26552 14.2183 8.28448H14.218C14.1747 8.29446 14.1308 8.30344 14.0869 8.31142H14.0866C14.0723 8.31442 14.058 8.31675 14.0437 8.31907C14.0337 8.32107 14.0234 8.32273 14.0131 8.32406C13.9306 8.33737 13.8471 8.34735 13.7623 8.35334C13.6871 8.35899 13.6109 8.36198 13.5341 8.36198C13.4539 8.36198 13.3741 8.35899 13.2956 8.35267C13.2094 8.34602 13.1239 8.33571 13.0401 8.32174C12.6616 8.25987 12.3063 8.12748 11.989 7.93854C11.843 7.85239 11.692 7.77456 11.536 7.70537H11.5356C11.3633 7.6292 11.1854 7.564 11.0024 7.51078C10.8205 7.45756 10.6335 7.41598 10.4423 7.38671C10.3338 7.37041 10.224 7.35777 10.1133 7.34945C10.0042 7.34147 9.89441 7.33714 9.78331 7.33714C9.68685 7.33714 9.59105 7.34014 9.49592 7.34646C9.38382 7.35378 9.27305 7.36542 9.16328 7.38138C8.81868 7.43028 8.48704 7.52009 8.17337 7.64549C8.14044 7.6588 8.10784 7.67211 8.07524 7.68608C8.07691 7.68375 8.07857 7.68175 8.0809 7.67942C7.89496 7.74362 7.69771 7.78387 7.49281 7.79618C7.47584 7.79751 7.45854 7.79851 7.44125 7.79884C7.41197 7.80017 7.38237 7.80083 7.35243 7.80083H7.34512C6.83053 7.79917 6.35653 7.62387 5.97933 7.33016C6.00095 7.38305 6.02457 7.43461 6.04985 7.48517L6.05683 7.4988C6.25209 7.88 6.55378 8.198 6.92234 8.41354C7.00583 8.46244 7.09265 8.50601 7.18279 8.54393C7.26994 8.58052 7.35975 8.61179 7.45189 8.6374C7.46719 8.64173 7.48249 8.64572 7.49779 8.64938H7.49813C7.52673 8.6567 7.55501 8.66335 7.58395 8.66934C7.7343 8.7016 7.8903 8.71823 8.0503 8.71823C8.46975 8.71823 8.86159 8.60314 9.19688 8.4029C9.19721 8.4029 9.19721 8.40257 9.19755 8.40257L9.20154 8.40024C9.2022 8.39957 9.20287 8.39924 9.20353 8.39891L9.20453 8.39824C9.20919 8.39525 9.21384 8.39259 9.2185 8.38993C9.25875 8.36531 9.3 8.34203 9.34157 8.32007C9.65192 8.15442 9.99719 8.04598 10.3634 8.00806C10.3638 8.00806 10.3638 8.00806 10.3641 8.00773L10.3967 8.00474C10.4815 7.99709 10.5673 7.99309 10.6541 7.99309C10.7453 7.99309 10.8351 7.99742 10.9239 8.00607C11.4308 8.05463 11.8985 8.23858 12.29 8.52231C12.0043 8.47674 11.7112 8.45579 11.4122 8.46144C11.2582 8.46443 11.1059 8.47441 10.9555 8.49104C10.8111 8.50701 10.6684 8.5293 10.5277 8.55757C10.1915 8.6251 9.86713 8.72688 9.55878 8.85894C9.50124 8.88355 9.44436 8.90916 9.38814 8.93577C9.32295 8.96671 9.25875 8.99864 9.19522 9.03224C9.04387 9.11207 8.89685 9.19988 8.75481 9.29468C8.73652 9.30666 8.71855 9.31863 8.70092 9.33127C8.57951 9.4141 8.46243 9.50191 8.34867 9.59572C8.34833 9.59572 8.34834 9.59572 8.348 9.59605C8.24256 9.68287 8.14044 9.77367 8.04231 9.86848C8.04231 9.86848 8.04231 9.86881 8.04198 9.86881C8.04198 9.86881 8.04198 9.86914 8.04165 9.86914C7.99434 9.9058 7.89124 10.0189 7.83023 10.0858L7.83021 10.0859L7.8302 10.0859L7.81945 10.0977C7.73928 10.1855 7.66211 10.2759 7.58794 10.3694C7.53704 10.4333 7.48782 10.4985 7.43992 10.5647L7.43988 10.5647L7.43987 10.5647L7.43986 10.5648C7.42258 10.589 7.4053 10.6133 7.38836 10.6379C7.14188 10.9928 6.93831 11.381 6.78496 11.7944C6.68118 12.0745 6.60035 12.3655 6.54513 12.6662V12.6666C6.48925 12.9693 6.45965 13.2813 6.45799 13.5999V13.6106C6.45799 13.6498 6.45832 13.6891 6.45898 13.7283C6.46431 14.0124 6.49225 14.2908 6.54048 14.5616C6.54647 14.5962 6.55312 14.6308 6.5601 14.665V14.6654C6.60567 14.8962 6.66655 15.1211 6.74106 15.3393C6.74305 15.3453 6.74405 15.3519 6.74405 15.3589C6.74405 15.3832 6.73074 15.4045 6.71112 15.4158C6.70147 15.4214 6.69016 15.4248 6.67819 15.4248C6.65124 15.4248 6.62829 15.4088 6.61765 15.3858C6.61698 15.3835 6.61599 15.3809 6.61499 15.3785L6.6149 15.3783L6.61485 15.3781L6.61499 15.3779C6.5794 15.2811 6.53615 15.1863 6.48526 15.0948C6.30431 14.7844 6.20153 14.4408 6.17724 14.0929C6.17691 14.0926 6.17691 14.0922 6.17691 14.0922C6.17292 14.0334 6.17092 13.9745 6.17126 13.9159C6.15163 13.9419 6.13201 13.9685 6.11371 13.9951C6.01791 14.1318 5.94041 14.2772 5.88054 14.4282C5.7721 14.7006 5.7222 14.9907 5.73052 15.2797C5.73152 15.32 5.73385 15.3602 5.73717 15.4005C5.75114 15.5678 5.78474 15.7334 5.83796 15.8944L5.84694 15.9211C6.0412 16.5234 6.01492 17.1817 5.76844 17.7692C5.90582 17.687 6.03521 17.5865 6.15363 17.4681C6.32194 17.2998 6.45399 17.1085 6.54946 16.9046C6.63794 16.7154 6.69482 16.5155 6.7201 16.3122C6.72343 16.2883 6.72609 16.264 6.72808 16.24V16.238C6.72808 16.2334 6.72842 16.2291 6.72941 16.2247V16.2244C6.73573 16.1945 6.76234 16.1719 6.79428 16.1719C6.82854 16.1719 6.85681 16.1978 6.86014 16.2314C6.86546 16.2926 6.87245 16.3535 6.88143 16.4137C6.91935 16.6901 6.98787 16.9572 7.08267 17.211C7.42062 18.1178 8.0952 18.8605 8.95472 19.2873C8.77843 19.0581 8.66633 18.7777 8.64438 18.472C8.64172 18.4354 8.64039 18.3988 8.64039 18.3616C8.64039 18.2116 8.66201 18.0665 8.70259 17.9298C8.72986 17.8373 8.76579 17.7485 8.80936 17.6644C8.80737 17.6966 8.8067 17.7292 8.8067 17.7618C8.8067 17.8457 8.81202 17.9285 8.82234 18.0096C8.89651 18.5851 9.22549 19.0807 9.69217 19.3801C9.71911 19.3974 9.74672 19.414 9.77466 19.43C9.92169 19.5155 10.0744 19.5926 10.2324 19.6602L10.2327 19.6605L10.233 19.6605C10.3624 19.7161 10.4948 19.7653 10.6309 19.8079H10.6312C11.031 19.9336 11.4561 20.0011 11.8972 20.0011C13.1116 20.0011 14.206 19.4889 14.976 18.6686C14.988 18.6563 14.9997 18.6436 15.011 18.631C15.0186 18.623 15.0259 18.615 15.0329 18.6071C15.0439 18.5954 15.0545 18.5834 15.0648 18.5715C15.0655 18.5705 15.0662 18.5698 15.0668 18.5691C15.3329 18.2621 15.5319 17.8956 15.6406 17.4921C15.7032 17.2629 15.7361 17.0221 15.7361 16.7733C15.7361 16.6904 15.7324 16.6086 15.7251 16.5278C15.7241 16.5165 15.7231 16.5052 15.7218 16.4938C15.7048 16.3235 15.6722 16.1579 15.625 15.9986C15.5924 15.8865 15.5525 15.7774 15.5059 15.6719C15.5049 15.6692 15.5039 15.6666 15.5023 15.6639C15.4803 15.6137 15.457 15.5645 15.4317 15.5162C15.3393 15.3369 15.2275 15.1693 15.0991 15.0156C14.9504 14.837 14.7791 14.678 14.5898 14.542L14.5897 14.5419L14.5896 14.5418L14.5895 14.5418L14.5894 14.5417C14.5729 14.5301 14.5565 14.5186 14.54 14.5074C14.5227 14.4951 14.505 14.4834 14.4874 14.4721C14.357 14.387 14.219 14.3128 14.0743 14.2509C14.0493 14.2399 14.024 14.2296 13.9988 14.2196C13.8118 14.1458 13.6149 14.0919 13.4103 14.0606L13.4057 14.06L13.4 14.0593C13.3039 14.0447 13.2058 14.0354 13.1066 14.0317C13.1 14.031 13.093 14.0307 13.0863 14.031C13.0551 14.0297 13.0235 14.029 12.9919 14.029C12.8562 14.029 12.7224 14.039 12.5921 14.058L12.5824 14.0594L12.5738 14.0606C12.5412 14.0656 12.5089 14.0713 12.4766 14.0776C12.4716 14.0769 12.4667 14.0763 12.4617 14.0753C12.4417 14.0776 12.4214 14.0796 12.4015 14.0816C12.3892 14.0826 12.3768 14.0836 12.3645 14.0843C12.2907 14.0902 12.2155 14.0932 12.14 14.0932C12.0509 14.0932 11.9631 14.0892 11.8762 14.0813L11.8549 14.0793C11.5206 14.0463 11.2056 13.9559 10.9229 13.8195C10.881 13.7995 10.8398 13.7782 10.7992 13.7556C10.7163 13.7104 10.6368 13.6608 10.5607 13.6076C10.549 13.5996 10.5377 13.5916 10.5267 13.5833C10.5241 13.5816 10.5218 13.58 10.5191 13.578C10.4572 13.5328 10.3977 13.4852 10.3411 13.435C10.3122 13.4097 10.2839 13.3834 10.2566 13.3568C10.1179 13.2224 9.99719 13.0734 9.89807 12.9121C9.85383 12.8402 9.81358 12.766 9.77865 12.6895C9.775 12.6825 9.77167 12.6752 9.76867 12.6682C9.7557 12.64 9.74339 12.611 9.73208 12.5821C9.71878 12.5498 9.70681 12.5169 9.6955 12.484C9.66656 12.3988 9.64294 12.3117 9.62531 12.2225L9.60502 12.2278L9.61281 12.2227C9.61644 12.2203 9.6201 12.2179 9.62398 12.2155C9.60635 12.126 9.59471 12.0342 9.58939 11.9414C9.58839 11.9238 9.58772 11.9058 9.58739 11.8882C9.58639 11.8673 9.58606 11.8463 9.58606 11.825C9.58606 11.5632 9.63595 11.3114 9.72843 11.0776C9.74838 11.026 9.77067 10.9751 9.79529 10.9252C9.81358 10.8877 9.83287 10.8504 9.8535 10.8138C9.90406 10.724 9.96094 10.6375 10.0241 10.555C10.0727 10.4912 10.1249 10.4296 10.1805 10.3707C10.2763 10.2686 10.3824 10.1742 10.4971 10.0887C10.6156 10.0002 10.743 9.92103 10.8783 9.85284C10.9199 9.83155 10.9625 9.8116 11.0057 9.79264C11.1704 9.71979 11.3454 9.66258 11.528 9.62299C11.5373 9.62066 11.5463 9.61867 11.5556 9.61701C11.7432 9.57775 11.9391 9.55713 12.14 9.55713C12.3243 9.55713 12.5039 9.57443 12.6769 9.60769H12.6779C12.6845 9.60869 12.6912 9.60969 12.6975 9.61168C12.7481 9.62532 12.786 9.6689 12.7916 9.72212L12.792 9.72754L12.7923 9.73609C12.7923 9.80261 12.7417 9.8575 12.6769 9.86415C12.4434 9.88245 12.2195 9.93134 12.0103 10.0062C11.8207 10.074 11.6437 10.1629 11.4821 10.2703H11.4817C11.4392 10.2982 11.3979 10.3275 11.3577 10.3581C11.3174 10.3884 11.2785 10.42 11.2409 10.4529C11.2046 10.4838 11.1697 10.5161 11.1361 10.5497C10.9861 10.6967 10.859 10.863 10.7599 11.044C10.7114 11.1325 10.6694 11.2243 10.6348 11.3194C10.5816 11.4638 10.5457 11.6155 10.5287 11.7718L10.5347 11.7768L10.5305 11.7782L10.5281 11.7791C10.5208 11.8463 10.5171 11.9142 10.5171 11.9827C10.5171 12.0176 10.5181 12.0522 10.5198 12.0868C10.5211 12.1068 10.5224 12.1267 10.5241 12.1467C10.5281 12.1949 10.5341 12.2428 10.5417 12.2904C10.553 12.3612 10.5683 12.4307 10.5873 12.4989C10.5939 12.5232 10.6013 12.5468 10.6089 12.5704V12.5708C10.6189 12.6027 10.6299 12.634 10.6415 12.6652H10.6418C10.6468 12.6789 10.6521 12.6925 10.6575 12.7062H10.6578C10.6698 12.7361 10.6827 12.766 10.6964 12.7953C10.7 12.8036 10.7037 12.8116 10.7077 12.8196C10.7247 12.777 10.7426 12.7348 10.7616 12.6932C10.7669 12.6809 10.7726 12.6689 10.7785 12.6566C10.8168 12.5758 10.859 12.4969 10.9046 12.4208C10.914 12.4048 10.9238 12.3891 10.9335 12.3736L10.9336 12.3736L10.9336 12.3736L10.9336 12.3735L10.9425 12.3592H10.9429C10.9848 12.293 11.0294 12.2288 11.0769 12.167C11.0902 12.149 11.1042 12.1314 11.1182 12.1141C11.1132 12.1134 11.1082 12.1127 11.1032 12.1124C11.1142 12.1051 11.1254 12.0981 11.1367 12.0912L11.1368 12.0911C11.1927 12.0229 11.2515 11.9574 11.3138 11.8952C11.3251 11.8836 11.3364 11.8723 11.3483 11.8609C11.3673 11.8423 11.3863 11.8244 11.4056 11.8071C11.4485 11.7671 11.4927 11.7292 11.5383 11.6926C11.5978 11.6444 11.6594 11.5988 11.7229 11.5559H11.7236C11.7236 11.5559 11.7239 11.5559 11.7239 11.5556C11.8722 11.4551 12.0299 11.3686 12.1969 11.2985V11.2981C12.2195 11.2888 12.2425 11.2795 12.2657 11.2705C12.3366 11.2429 12.4088 11.218 12.4823 11.1963C12.6569 11.1448 12.8389 11.1099 13.0265 11.0942C13.0574 11.0912 13.0883 11.0892 13.1196 11.0876L13.1186 11.0852H13.1303C13.1505 11.0852 13.1708 11.0852 13.1908 11.0849H13.1915C13.252 11.0839 13.3119 11.0816 13.3714 11.0776C13.3918 11.0769 13.412 11.0753 13.4324 11.0737L13.4324 11.0737L13.4339 11.0736C13.6502 11.0576 13.8614 11.024 14.0666 10.9741C14.1977 10.9425 14.3264 10.9046 14.4518 10.8601C14.5007 10.8431 14.5489 10.8251 14.5965 10.8062C14.5626 10.8511 14.5276 10.8953 14.4917 10.9389C14.4019 11.0477 14.3064 11.1518 14.206 11.2502C14.1747 11.2812 14.1428 11.3114 14.1105 11.3414C13.9259 11.5107 13.725 11.6634 13.5105 11.7954C13.4855 11.8114 13.4602 11.8267 13.4349 11.841C13.3528 11.8899 13.2686 11.9355 13.1825 11.9777C13.1406 11.9987 13.098 12.0189 13.0551 12.0382L13.0508 12.0401L13.0508 12.0401L13.0507 12.0402C13.0484 12.0412 13.046 12.0423 13.0436 12.0433C13.042 12.044 13.0404 12.0446 13.0388 12.0452C12.9886 12.0678 12.9377 12.0895 12.8861 12.1098C12.7863 12.1493 12.6845 12.1849 12.5807 12.2165C12.3998 12.2717 12.2135 12.314 12.0229 12.3429C12.0073 12.3453 11.9917 12.3476 11.976 12.3496C11.9564 12.3526 11.9368 12.3552 11.9171 12.3576C11.8623 12.3645 11.8067 12.3702 11.7512 12.3745L11.7511 12.3748C11.7511 12.3748 11.751 12.3747 11.7508 12.3745L11.7448 12.375L11.7447 12.375L11.7447 12.375C11.7309 12.3762 11.7175 12.3773 11.7036 12.3782C11.6976 12.3789 11.6916 12.3792 11.6856 12.3792C11.6261 12.3835 11.5662 12.3862 11.506 12.3872C11.5453 12.4045 11.5852 12.4211 11.6254 12.4371C11.6377 12.4421 11.65 12.4467 11.6627 12.4514C11.6687 12.4527 11.675 12.454 11.681 12.4557C11.693 12.4587 11.7049 12.462 11.7169 12.4653C11.7282 12.4683 11.7392 12.4713 11.7502 12.4746C11.826 12.4969 11.9002 12.5239 11.9717 12.5555L11.973 12.556L11.974 12.5561C12.1849 12.6173 12.4035 12.6606 12.6276 12.6849C12.6509 12.6875 12.6746 12.6899 12.6985 12.6915H12.6988C12.6995 12.6909 12.7002 12.6902 12.7005 12.6895C12.7018 12.6902 12.7032 12.6909 12.7045 12.6922C12.8172 12.7025 12.931 12.7075 13.0464 12.7075C13.1046 12.7075 13.1625 12.7062 13.2201 12.7035C13.3744 12.6968 13.5264 12.6809 13.6754 12.6559C13.6889 12.6542 13.7024 12.6519 13.7159 12.6496L13.7293 12.6473C13.8304 12.629 14.1711 12.5415 14.2406 12.5189C14.3211 12.4926 14.4002 12.464 14.4784 12.4324C14.5257 12.4138 14.5722 12.3942 14.6185 12.3735C14.8433 12.2731 15.0569 12.1517 15.2564 12.0113C15.2664 12.0046 15.2764 11.9977 15.2864 11.9903C15.2894 11.9883 15.2924 11.9863 15.2954 11.9837C15.449 11.8736 15.5941 11.7522 15.7298 11.6201C15.8326 11.521 15.93 11.4152 16.0215 11.3048C16.0328 11.2911 16.0438 11.2778 16.0544 11.2642C16.2141 11.3603 16.3212 11.5353 16.3212 11.7352C16.3212 11.7472 16.3209 11.7592 16.3199 11.7711C16.3162 11.829 16.3036 11.8842 16.2833 11.9358C16.2447 12.0349 16.1778 12.1197 16.0927 12.1809C16.0395 12.2192 15.9876 12.2594 15.9373 12.3017C15.8489 12.3755 15.7654 12.4554 15.6875 12.5402C15.5532 12.6865 15.4354 12.8485 15.3369 13.0228C15.3043 13.0807 15.2737 13.1399 15.2455 13.2008C15.1424 13.421 15.0692 13.6585 15.0309 13.907C15.1706 13.7729 15.3223 13.6515 15.4843 13.5444C15.5859 13.4771 15.6946 13.4215 15.8038 13.3657L15.8038 13.3657L15.8038 13.3656C15.8544 13.3397 15.9051 13.3138 15.9553 13.2866C16.1742 13.1679 16.6186 13.0751 16.6602 13.0674H16.6605C16.8594 13.0331 17.0517 12.9802 17.2359 12.9107C17.5183 12.8046 17.7818 12.6596 18.0196 12.4823C18.1467 12.3878 18.2664 12.2841 18.3782 12.1723C18.4288 12.1214 18.478 12.0685 18.5252 12.0143C18.5252 12.014 18.5256 12.0136 18.5259 12.0133L18.5265 12.0126C18.5296 12.0096 18.5321 12.0065 18.5348 12.0032L18.5355 12.0023L18.5442 11.9923C18.5691 11.9614 18.5898 11.9265 18.6044 11.8889C18.6223 11.844 18.632 11.7951 18.632 11.7439C18.632 11.6121 18.5675 11.4954 18.4683 11.4235C18.5409 11.3241 18.5831 11.202 18.5831 11.0696C18.5831 10.7586 18.3483 10.5025 18.0462 10.4692C18.1527 10.583 18.2172 10.7356 18.2172 10.9033C18.2172 11.0171 18.1876 11.1238 18.135 11.2163C18.1078 11.2652 18.0738 11.3098 18.0353 11.3494L18.0342 11.3503L18.0322 11.3523L18.0306 11.354C17.998 11.3856 17.9528 11.4056 17.9032 11.4056C17.8024 11.4056 17.7202 11.3234 17.7202 11.2226C17.7202 11.2163 17.7206 11.21 17.7212 11.204C17.7219 11.1977 17.7229 11.1917 17.7239 11.1857C17.7276 11.1571 17.7292 11.1275 17.7292 11.0976C17.7292 10.9213 17.665 10.7603 17.5583 10.6362C17.5197 10.5906 17.4751 10.55 17.4259 10.5161C17.353 10.4649 17.2699 10.427 17.1804 10.4063C17.1724 10.4127 17.1648 10.4193 17.1571 10.4263V10.4266C17.1864 10.4975 17.2073 10.5723 17.219 10.6502C17.2266 10.6984 17.2303 10.748 17.2303 10.7982C17.2303 10.9199 17.208 11.0363 17.1671 11.1438C17.0956 11.0699 17.0207 10.9991 16.9429 10.9309C16.9123 10.9046 16.8814 10.8783 16.8501 10.8531C16.8328 10.8388 16.8155 10.8248 16.7979 10.8108C16.7054 10.7376 16.6093 10.6685 16.5101 10.6043C16.5031 10.5993 16.4958 10.5946 16.4888 10.5903C16.4696 10.578 16.4506 10.566 16.4313 10.554C16.1875 10.4033 15.9254 10.2793 15.6493 10.1855C15.6094 10.1722 15.5688 10.1592 15.5282 10.1472C15.4065 10.11 15.2821 10.0787 15.1553 10.0541C15.1214 10.0474 15.0868 10.0411 15.0522 10.0355C15.0289 10.0315 15.0053 10.0275 14.9817 10.0245C14.7951 9.99621 14.6038 9.9819 14.4092 9.9819C14.3667 9.9819 14.3241 9.98257 14.2818 9.98423C14.2822 9.98423 14.2828 9.9839 14.2832 9.98357C14.2795 9.9839 14.2758 9.9839 14.2722 9.9839C14.0536 9.9839 13.8767 9.80661 13.8767 9.58807C13.8767 9.5731 13.8773 9.55846 13.879 9.54416C13.896 9.39215 13.9984 9.26641 14.1375 9.21618C14.179 9.20122 14.2236 9.1929 14.2702 9.19257H14.2748L14.3241 9.1929L14.3733 9.19323C14.5017 9.1939 14.6301 9.1949 14.7578 9.19623C14.8536 9.19689 14.9488 9.19789 15.0439 9.19889C15.0445 9.19747 15.0452 9.19618 15.0459 9.19493L15.0459 9.19492L15.0472 9.19257C15.0579 9.19489 15.0688 9.19722 15.0798 9.19922H15.0855L15.319 9.20221L15.4393 9.20403L15.5611 9.20587H15.639C15.6762 9.20587 15.7424 9.2082 15.7797 9.20953L15.8016 9.20986L15.8236 9.2102C16.0494 9.21419 16.2743 9.21884 16.4975 9.2245C16.5906 9.2265 16.6831 9.22882 16.7756 9.23115L16.8833 9.23415C16.9399 9.23548 16.9964 9.23714 17.0527 9.2388L17.053 9.23914C17.054 9.32263 17.0487 9.40445 17.0374 9.48462C17.0224 9.59538 16.9964 9.70249 16.9605 9.80528C16.9512 9.83222 16.9412 9.8585 16.9306 9.88477C16.9579 9.87014 16.9845 9.85517 17.0107 9.83954C17.1052 9.78365 17.194 9.72012 17.2772 9.64927C17.4116 9.53518 17.5303 9.40312 17.6298 9.25677C17.6523 9.23096 17.6548 9.23097 17.6566 9.22989C17.6582 9.22899 17.6592 9.22735 17.671 9.20961L17.671 9.2096L17.671 9.20956L17.671 9.20953C17.6798 9.19633 17.688 9.18357 17.6958 9.17136C17.7495 9.08755 17.7865 9.02972 17.8945 9.03523C18.0007 9.04055 18.0835 9.1297 18.0835 9.23581V9.2378C18.0835 9.24479 18.0832 9.25178 18.0825 9.25876C18.0825 9.26375 18.0825 9.26841 18.0818 9.27306C18.0715 9.48695 18.0209 9.69018 17.9371 9.87546C18.2172 9.74873 18.456 9.54649 18.6277 9.29502C18.6925 9.19988 18.7478 9.09743 18.792 8.98966L18.7923 8.98933C18.9114 8.9248 19.0132 8.83199 19.0887 8.7199C19.1792 8.58618 19.2317 8.42485 19.2317 8.25089C19.2317 8.15908 19.2171 8.0706 19.1895 7.98777C19.3222 7.76125 19.398 7.49747 19.398 7.21607ZM10.9329 19.6718H10.9299L10.932 19.6717L10.9332 19.6715L10.9329 19.6716L10.9329 19.6718ZM10.8128 15.1054C10.8138 15.1098 10.8148 15.1141 10.8161 15.1184L10.8085 15.1108C10.8098 15.1088 10.8111 15.1071 10.8128 15.1054L10.8128 15.1054ZM9.78963 15.6137C9.88909 15.7278 9.98156 15.7966 9.98156 15.7966C9.98416 15.7962 10.0089 15.8154 10.0407 15.84L10.0408 15.84C10.0782 15.8691 10.1255 15.9057 10.1579 15.9267H10.1582C10.1845 15.944 10.2104 15.9603 10.2377 15.9759C10.246 15.9813 10.2543 15.9859 10.263 15.9906C10.2909 16.0065 10.3192 16.0218 10.3481 16.0358C10.4409 16.0827 10.5384 16.122 10.6395 16.1529C10.8188 16.2084 11.0094 16.2384 11.207 16.2384C11.2609 16.2384 11.3144 16.2361 11.367 16.2317C11.3733 16.2314 11.3796 16.2307 11.3859 16.2301C11.4531 16.2241 11.5197 16.2144 11.5845 16.2015C11.5393 16.1705 11.4954 16.1376 11.4531 16.103C11.3823 16.0445 11.3154 15.9813 11.2539 15.9137H11.2535C11.219 15.8758 11.1857 15.8366 11.1541 15.796C11.1481 15.7883 11.1421 15.7804 11.1362 15.7724L11.1361 15.7724C11.1218 15.7534 11.1079 15.7344 11.0945 15.7148C11.0789 15.6932 11.0643 15.6709 11.05 15.6483C11.0447 15.6403 11.0393 15.632 11.0343 15.6233C10.9938 15.5575 10.9568 15.489 10.9246 15.4181C10.8803 15.3223 10.8441 15.2222 10.8165 15.1187C10.8288 15.1304 10.8414 15.142 10.8544 15.1533V15.1537C10.9193 15.2125 10.9888 15.2671 11.0616 15.3167C11.1341 15.3662 11.2106 15.4111 11.2901 15.4504L11.2951 15.4467C11.3001 15.443 11.3051 15.4393 11.3101 15.4351C11.3061 15.4414 11.3018 15.4474 11.2971 15.4537L11.3033 15.4568C11.4166 15.5125 11.5203 15.5634 11.6836 15.5961C11.8243 15.6242 11.9887 15.6285 12.2428 15.6352L12.3911 15.6393C12.4573 15.6413 12.5222 15.6446 12.5854 15.6553C12.6147 15.6599 12.6439 15.6659 12.6726 15.6732H12.6729C13.0371 15.7624 13.3352 16.0205 13.4792 16.3598C13.5068 16.425 13.5288 16.4932 13.5444 16.5637C13.5517 16.5976 13.558 16.6322 13.5623 16.6671C13.569 16.7174 13.5723 16.7686 13.5723 16.8205C13.5723 17.0909 13.4815 17.3401 13.3285 17.539C13.1602 17.7585 12.9167 17.9172 12.6363 17.9761L12.6353 17.987H12.635C12.5847 17.9917 12.5338 17.9953 12.483 17.9983L12.4827 17.9984C12.4725 17.999 12.4622 17.9997 12.452 18C12.451 18 12.45 18.0003 12.449 18.0003C12.3938 18.003 12.3379 18.0053 12.282 18.0063C12.0622 18.0106 11.845 18.0003 11.6321 17.9764C11.203 17.9282 10.7892 17.825 10.3987 17.6734C10.0152 17.5247 9.65358 17.3294 9.32062 17.0942C9.25576 17.0487 9.19222 17.0014 9.12969 16.9529C9.09476 16.9256 9.06017 16.898 9.02591 16.8701L8.9983 16.8471C8.77843 16.6638 8.57353 16.4619 8.38659 16.2437C8.28846 16.1296 8.19532 16.0109 8.10718 15.8878C8.03865 15.7923 7.97346 15.6942 7.91159 15.5937C7.89896 15.5735 7.88666 15.5532 7.87436 15.5329L7.87433 15.5329C7.81546 15.4347 7.75991 15.335 7.70735 15.2328V15.2325C7.5264 14.8789 7.3837 14.5014 7.28557 14.1049V14.1045C7.27792 14.0736 7.27061 14.042 7.26362 14.0107L7.26163 14.0021C7.2583 13.9881 7.25531 13.9742 7.25231 13.9602C7.24965 13.9485 7.24732 13.9372 7.24499 13.9256C7.24433 13.9239 7.244 13.9223 7.24366 13.9203C7.23734 13.89 7.23136 13.8597 7.2257 13.8291C7.22637 13.8295 7.22703 13.8295 7.2277 13.8295C7.20807 13.7071 7.19809 13.5816 7.19809 13.4539C7.19809 13.3614 7.20341 13.2703 7.21373 13.1805C7.2267 13.0674 7.24732 12.957 7.2756 12.8492C7.39701 12.3858 7.65413 11.9777 8.0024 11.6703L8.0004 11.6634L8.00173 11.6631C8.00555 11.6622 8.00913 11.6613 8.01271 11.661L8.01304 11.6607C8.0177 11.6564 8.02269 11.652 8.02768 11.6481C8.03563 11.6411 8.04358 11.6345 8.05153 11.6278L8.05154 11.6278L8.05163 11.6278C8.13512 11.5576 8.22327 11.4934 8.31574 11.4355C8.26717 11.499 8.2216 11.5646 8.17869 11.6324C8.16273 11.6574 8.14744 11.683 8.13214 11.7086L8.13212 11.7086C8.12514 11.7202 8.11849 11.7319 8.11183 11.7439C8.09487 11.7735 8.07857 11.8034 8.06294 11.8337C7.86868 12.2075 7.75758 12.6313 7.75492 13.081C7.75459 13.087 7.75459 13.0933 7.75459 13.0993C7.75459 13.1692 7.75725 13.238 7.76224 13.3062V13.3066C7.76456 13.3368 7.76723 13.3671 7.77089 13.397C7.78619 13.5434 7.81346 13.6864 7.85171 13.8251C7.88598 13.9509 7.92889 14.0733 7.98044 14.1914C8.21728 14.7375 8.62642 15.1919 9.13967 15.4853C9.04686 15.2099 8.99664 14.9152 8.99664 14.6085C8.99664 14.4292 9.01393 14.2542 9.04686 14.0846C9.05861 14.1047 9.1328 14.3101 9.16936 14.4113L9.1889 14.4651L9.21555 14.537C9.31785 14.8143 9.48314 15.2624 9.78963 15.6137ZM10.9671 12.0991C10.9665 12.0988 10.9658 12.0984 10.9655 12.0981C10.9662 12.0981 10.9668 12.0981 10.9675 12.0984L10.9671 12.0987C10.967 12.0988 10.967 12.099 10.9671 12.0991ZM11.2678 11.6012C11.2675 11.6005 11.2672 11.5998 11.2665 11.5992L11.2698 11.5985C11.2695 11.5992 11.2688 11.6002 11.2678 11.6012ZM18.3815 12.7474C18.3692 12.8991 18.3459 13.0478 18.313 13.1928C18.2937 13.2776 18.2711 13.3614 18.2448 13.4433V13.4439C18.165 13.6977 18.0545 13.9379 17.9175 14.1601C17.8779 14.2243 17.836 14.2872 17.7921 14.3487C17.5223 14.7216 17.3311 15.155 17.2426 15.6247C17.2213 15.7348 17.206 15.8472 17.197 15.961C17.1897 16.0485 17.186 16.1366 17.186 16.2257C17.186 16.3179 17.19 16.4094 17.1977 16.4998C17.2087 16.6329 17.2283 16.7636 17.2552 16.8917C17.2629 16.9279 17.2712 16.9635 17.2802 16.9991C17.2439 16.9602 17.2093 16.9203 17.1761 16.8794H17.1757C17.1215 16.8128 17.0703 16.7437 17.0227 16.6718C16.886 16.4666 16.7779 16.2407 16.7034 16.0002C16.6675 15.8838 16.6395 15.764 16.6199 15.6416C16.6056 15.5528 16.5959 15.4624 16.5913 15.3709V15.3705L16.591 15.3702L16.5913 15.3699L16.5913 15.3699C16.593 15.3669 16.5946 15.3639 16.5959 15.3609L16.5942 15.3621L16.593 15.3627L16.5906 15.3636C16.5886 15.3187 16.5873 15.2734 16.5873 15.2278C16.5873 14.6072 16.8042 14.0367 17.1664 13.5883H17.1667C17.1731 13.5797 17.18 13.571 17.1877 13.5624C17.35 13.3661 17.5413 13.1938 17.7542 13.0524C17.8746 12.9723 18.002 12.9017 18.135 12.8425C18.2152 12.8066 18.2974 12.7747 18.3815 12.7474ZM16.545 14.0824C16.6391 13.926 16.6994 13.7473 16.716 13.5557C16.6638 13.5614 16.6125 13.5707 16.5626 13.5826C16.3517 13.6339 16.162 13.7394 16.009 13.8841C15.9265 13.9616 15.8549 14.0508 15.7964 14.1486C15.7032 14.304 15.6436 14.4817 15.6273 14.6716C15.7212 14.6613 15.8117 14.6404 15.8975 14.6101C15.9161 14.6038 15.9341 14.5968 15.9521 14.5891H15.9524C16.2006 14.4886 16.4086 14.3093 16.545 14.0824ZM8.19898 9.12038C8.05861 9.18091 7.92522 9.25443 7.80015 9.33958H7.79982C7.72864 9.38814 7.66012 9.44004 7.59459 9.49558C7.49347 9.5814 7.39966 9.67521 7.31385 9.77599V9.77633C7.27626 9.82023 7.24033 9.86581 7.20607 9.91271C7.1951 9.92801 7.18379 9.94298 7.17214 9.95761C6.81024 10.4253 6.24344 10.7263 5.60644 10.7263C5.58715 10.7263 5.56753 10.726 5.54823 10.7253C5.43946 10.7223 5.33302 10.7104 5.22924 10.6901C5.00405 10.6468 4.79249 10.5653 4.60156 10.4522C5.04829 10.3667 5.44379 10.1376 5.73817 9.81425C5.7385 9.81358 5.73883 9.81325 5.7395 9.81258C5.815 9.72976 5.89617 9.65225 5.98265 9.58041C6.04352 9.52951 6.10706 9.48195 6.17292 9.43737C6.44967 9.24977 6.76766 9.11838 7.11061 9.0595C7.20075 9.04387 7.29322 9.03323 7.38669 9.0279C7.42162 9.02624 7.45688 9.02491 7.49214 9.02458C7.50245 9.02425 7.51276 9.02424 7.52307 9.02424C7.53737 9.02424 7.55168 9.02425 7.56598 9.02458C7.78552 9.02857 7.99774 9.0615 8.19898 9.12038ZM6.0831 11.9438C6.18189 11.5636 6.34588 11.2103 6.56342 10.896C6.30363 11.0926 6.07345 11.3271 5.88119 11.5909C5.72252 11.8081 5.5898 12.0456 5.48769 12.2984C5.45176 12.3855 5.42016 12.475 5.39222 12.5658C5.31405 12.8179 5.26549 13.083 5.24985 13.3571C5.24952 13.3585 5.24952 13.3598 5.24952 13.3611C5.23123 13.6146 5.16137 13.8654 5.03963 14.0959C4.96346 14.2403 4.86733 14.3763 4.75091 14.5007H4.75057C4.73694 14.5154 4.72296 14.53 4.70866 14.5443C4.68105 14.5719 4.65278 14.5985 4.62384 14.6241C4.70201 14.6115 4.77951 14.5942 4.85602 14.5716C5.02566 14.5227 5.18932 14.4498 5.34266 14.3527C5.40253 14.3154 5.46074 14.2742 5.51696 14.229C5.57317 14.1844 5.62772 14.1358 5.67995 14.0836C5.78872 13.9748 5.88186 13.8561 5.95903 13.7307C5.99761 13.6685 6.03221 13.6046 6.06281 13.5391C6.04584 13.4676 6.03154 13.3951 6.0199 13.3215C5.99129 13.1462 5.97632 12.9663 5.97632 12.783C5.97632 12.4933 6.01325 12.2122 6.0831 11.9441V11.9438Z" fill="url(#paint0_linear_404_12708)"/>
    </g>
    <defs>
        <linearGradient id="paint0_linear_404_12708" x1="4.60156" y1="12" x2="19.1952" y2="11.9802" gradientUnits="userSpaceOnUse">
            <stop stop-color="#95765C"/>
            <stop offset="1" stop-color="#DDBA8E"/>
        </linearGradient>
        <clipPath id="clip0_404_12708">
            <rect width="24" height="24" fill="white"/>
        </clipPath>
    </defs>
</svg>