<svg xmlns="http://www.w3.org/2000/svg" width="1em" height="1em" viewBox="0 0 16 16" fill="none">
    <path d="M6.66732 5.93325H12.6673C13.0723 5.93325 13.4007 6.26158 13.4007 6.66659V12.6666C13.4007 13.0716 13.0723 13.3999 12.6673 13.3999H6.66732C6.26231 13.3999 5.93398 13.0716 5.93398 12.6666V6.66659C5.93398 6.26158 6.26231 5.93325 6.66732 5.93325Z" stroke="currentColor" stroke-width="1.2" stroke-linecap="round" stroke-linejoin="round"/>
    <path d="M9.99935 3.79495C9.99935 3.49573 9.88049 3.20877 9.66891 2.99719C9.45733 2.78561 9.17036 2.66675 8.87114 2.66675L3.79422 2.66675C3.495 2.66675 3.20804 2.78561 2.99646 2.99719C2.78488 3.20877 2.66602 3.49573 2.66602 3.79495L2.66602 8.87188C2.66602 9.17109 2.78488 9.45806 2.99646 9.66964C3.20804 9.88122 3.495 10.0001 3.79422 10.0001" stroke="currentColor" stroke-width="1.2" stroke-linecap="round" stroke-linejoin="round"/>
</svg>