<svg xmlns="http://www.w3.org/2000/svg" width="24" height="24" viewBox="0 0 24 24" fill="none">
    <path fill-rule="evenodd" clip-rule="evenodd"
          d="M10.2864 0.989981C11.3472 0.377526 12.6542 0.377526 13.715 0.989981L20.6787 5.01049C21.7395 5.62295 22.393 6.75481 22.393 7.97972V16.0208C22.393 17.2457 21.7395 18.3775 20.6787 18.99L13.715 23.0105C12.6542 23.6229 11.3472 23.6229 10.2864 23.0105L3.32268 18.99C2.26188 18.3775 1.6084 17.2457 1.6084 16.0208V7.97972C1.6084 6.75481 2.26188 5.62295 3.32268 5.01049L10.2864 0.989981Z"
          fill="#17B38A"/>
    <path fill-rule="evenodd" clip-rule="evenodd"
          d="M7.35352 15.1452L11.7953 19.5868L16.2653 15.1168L14.7839 13.6354L11.8129 16.6066L10.3354 15.1293L13.3064 12.1581L11.8237 10.675L7.35352 15.1452Z"
          fill="white"/>
    <path fill-rule="evenodd" clip-rule="evenodd"
          d="M11.8463 4.69518L5.88721 10.6542L5.90731 13.6059L11.8194 7.69398L17.7549 13.6295L17.7654 10.6143L11.8463 4.69518Z"
          fill="white"/>
</svg>