<svg width="1em" height="1em" viewBox="0 0 36 37" fill="none" xmlns="http://www.w3.org/2000/svg">
    <g clip-path="url(#clip0_69_71576)">
        <rect x="0.25" y="0.75" width="35.5" height="35.5" rx="3.75" stroke="#282828" stroke-width="0.5"/>
        <path d="M12.8411 12.3887C12.4382 12.3887 12.2008 12.8408 12.4295 13.1725L16.4242 18.9649C16.6545 19.2988 16.7778 19.6948 16.7778 20.1003V23.1876C16.7778 23.3844 16.8932 23.5628 17.0726 23.6436L18.5171 24.2936C18.8479 24.4425 19.2223 24.2004 19.2223 23.8376V20.1003C19.2223 19.6948 19.3456 19.2988 19.5758 18.9649L23.5705 13.1725C23.7993 12.8408 23.5619 12.3887 23.1589 12.3887H12.8411Z"
              stroke="#8E8E8E" stroke-width="1.4"/>
    </g>
    <defs>
        <clipPath id="clip0_69_71576">
            <rect width="36" height="36" fill="white" transform="matrix(-1 0 0 1 36 0.5)"/>
        </clipPath>
    </defs>
</svg>
