<svg xmlns="http://www.w3.org/2000/svg" width="25" height="24" viewBox="0 0 25 24" fill="none">
    <path opacity="0.9" d="M2.39523 6.0099e-07C2.78889 -0.000314493 3.17266 0.123279 3.49215 0.353263C3.81164 0.583247 4.05064 0.907955 4.17528 1.28136C4.29991 1.65477 4.30386 2.05793 4.18656 2.43371C4.06926 2.80948 3.83666 3.13881 3.52173 3.375L3.52023 22.875C3.52023 23.1734 3.40171 23.4595 3.19073 23.6705C2.97975 23.8815 2.6936 24 2.39523 24C2.09686 24 1.81072 23.8815 1.59974 23.6705C1.38876 23.4595 1.27023 23.1734 1.27023 22.875V3.375C0.955409 3.13888 0.722858 2.80969 0.60552 2.43406C0.488182 2.05844 0.492007 1.65541 0.616452 1.28207C0.740897 0.908738 0.979654 0.584022 1.2989 0.353922C1.61815 0.123821 2.0017 6.0099e-07 2.39523 6.0099e-07ZM10.3677 0.750001C12.5397 0.750001 13.9827 0.996001 15.3102 1.7805C16.6422 2.565 17.4057 2.9505 19.5762 2.9505C21.7512 2.9505 23.1852 2.73 24.5202 1.941V14.4165C23.1852 15.204 21.7947 15.75 19.6197 15.75C17.4462 15.75 16.6407 15.513 15.3102 14.7195C13.9812 13.935 12.5397 13.6905 10.3677 13.6905C8.19573 13.6905 6.35223 14.46 5.02023 15.2505V2.313C6.35223 1.521 8.19573 0.750001 10.3677 0.750001Z" fill="#AD8D65"/>
</svg>