<svg xmlns="http://www.w3.org/2000/svg" width="24" height="24" viewBox="0 0 24 24" fill="none">
    <path d="M24.0002 0V3.86112C24.0002 8.30557 20.4302 11.9169 15.9991 11.9887L15.8646 11.9898L12 11.99V15.8608C12 20.4335 8.36974 24 3.89753 24H0V20.0242C0 20.0064 5.70238e-05 19.9887 0.000170898 19.9709V11.3801C0.000170898 5.09506 5.09957 0 11.39 0H24.0002Z" fill="white"/>
    <path fill-rule="evenodd" clip-rule="evenodd" d="M18.8481 0H24V3.8608C24 8.4335 20.3697 12 15.8975 12H15.763H12V8.02738C12 3.97594 14.9667 0.61678 18.8481 0Z" fill="#242265" fill-opacity="0.8"/>
    <path d="M24.0002 0V3.86112C24.0002 8.30557 20.4302 11.9169 15.9991 11.9887L15.8646 11.9898L12 11.99V15.8608C12 20.4335 8.36974 24 3.89753 24H0V20.0242C0 20.0064 5.70238e-05 19.9887 0.000170898 19.9709V11.3801C0.000170898 5.09506 5.09957 0 11.39 0H24.0002Z" fill="#616EE1" fill-opacity="0.8"/>
</svg>