<svg xmlns="http://www.w3.org/2000/svg" width="1em" height="1em" viewBox="0 0 24 24" fill="none">
    <path d="M8.81829 4.99993L8.32332 4.50495L7.82834 4.99993L8.32332 5.4949L8.81829 4.99993ZM12.0001 1.81815L12.495 1.32317L12.0001 0.828198L11.5051 1.32317L12.0001 1.81815ZM15.1818 4.99991L14.6869 5.49489L15.1818 5.98985L15.6768 5.4949L15.1818 4.99991ZM19 8.81811L18.505 8.32315L18.0101 8.81812L18.5051 9.31308L19 8.81811ZM22.1819 12L22.6769 12.495L23.1719 12L22.6769 11.505L22.1819 12ZM19.0001 15.1818L18.5052 15.6768L19.0002 16.1717L19.4951 15.6768L19.0001 15.1818ZM15.182 19L15.6769 19.4949L16.1719 19L15.6769 18.505L15.182 19ZM12.0001 22.1819L11.5051 22.6768L12.0001 23.1718L12.495 22.6768L12.0001 22.1819ZM8.81829 19.0001L9.31326 18.5051L8.81829 18.0101L8.32332 18.5051L8.81829 19.0001ZM5.00009 15.1819L5.49508 15.6768L5.99003 15.1819L5.49507 14.6869L5.00009 15.1819ZM1.81822 12L1.32324 11.505L0.828268 12L1.32324 12.495L1.81822 12ZM5.0001 8.81812L5.49165 8.31974L4.9967 7.83157L4.50512 8.32315L5.0001 8.81812ZM5.00015 8.81817L5.49513 8.32318L5.4917 8.31979L5.00015 8.81817ZM8.32337 5.49495C9.10437 6.27595 9.10437 7.5422 8.32337 8.32319L9.31332 9.31314C10.641 7.98541 10.641 5.83273 9.31332 4.505L8.32337 5.49495ZM8.32332 5.4949L8.32337 5.49495L9.31332 4.505L9.31327 4.50495L8.32332 5.4949ZM11.5051 1.32317L8.32332 4.50495L9.31327 5.4949L12.495 2.31312L11.5051 1.32317ZM15.6768 4.50494L12.495 1.32317L11.5051 2.31312L14.6869 5.49489L15.6768 4.50494ZM15.6768 5.4949C16.4578 4.71395 17.724 4.71396 18.505 5.49495L19.4949 4.505C18.1672 3.17729 16.0146 3.17727 14.6869 4.50492L15.6768 5.4949ZM18.505 5.49495C19.286 6.27593 19.286 7.54215 18.505 8.32315L19.495 9.31307C20.8227 7.98533 20.8227 5.8327 19.4949 4.505L18.505 5.49495ZM22.6769 11.505L19.495 8.32313L18.5051 9.31308L21.6869 12.495L22.6769 11.505ZM19.4951 15.6768L22.6769 12.495L21.6869 11.505L18.5052 14.6868L19.4951 15.6768ZM15.677 15.6768C16.458 14.8958 17.7242 14.8958 18.5052 15.6768L19.4951 14.6868C18.1674 13.3591 16.0147 13.3592 14.687 14.6869L15.677 15.6768ZM15.6769 18.505C14.896 17.724 14.896 16.4578 15.677 15.6768L14.687 14.6869C13.3593 16.0146 13.3593 18.1672 14.687 19.4949L15.6769 18.505ZM12.495 22.6768L15.6769 19.4949L14.687 18.505L11.5051 21.6869L12.495 22.6768ZM8.32331 19.495L11.5051 22.6768L12.495 21.6869L9.31326 18.5051L8.32331 19.495ZM4.50516 19.495C5.83287 20.8227 7.98551 20.8227 9.31325 19.4951L8.32332 18.5051C7.54232 19.2861 6.27609 19.286 5.4951 18.5051L4.50516 19.495ZM4.50511 14.6869C3.17742 16.0146 3.17744 18.1673 4.50516 19.495L5.4951 18.5051C4.71412 17.7241 4.71411 16.4578 5.49508 15.6768L4.50511 14.6869ZM1.32324 12.495L4.50512 15.6769L5.49507 14.6869L2.31319 11.505L1.32324 12.495ZM4.50512 8.32315L1.32324 11.505L2.31319 12.495L5.49507 9.31309L4.50512 8.32315ZM5.4917 8.31979L5.49165 8.31974L4.50855 9.3165L4.5086 9.31655L5.4917 8.31979ZM8.32337 8.32319C7.54237 9.10419 6.27612 9.10419 5.49512 8.32319L4.50517 9.31314C5.83291 10.6409 7.98558 10.6409 9.31332 9.31314L8.32337 8.32319Z"
          fill="currentColor"/>
</svg>