<svg width="61" height="60" viewBox="0 0 61 60" fill="none" xmlns="http://www.w3.org/2000/svg">
    <g clip-path="url(#clip0_673_48619)">
        <circle cx="30.1992" cy="30" r="30" fill="url(#paint0_linear_673_48619)"/>
        <path fill-rule="evenodd" clip-rule="evenodd" d="M50.5949 16.846C50.5949 15.8792 50.3272 15.1933 50.0521 14.736C49.777 14.2787 49.5908 14.093 49.5019 14.0043C48.9609 13.4647 48.2569 13.1519 47.677 12.8943C47.4706 12.8026 47.2798 12.7179 47.1178 12.6324C45.596 11.8287 44.6859 10.7444 44.6231 10.6696L44.62 10.6659L44.6168 10.6626C44.5862 10.6315 44.3573 10.3989 44.1835 9.7056C44.0754 9.2728 44.0641 8.95228 44.0554 8.70711V8.70709V8.70707V8.70704C44.0516 8.59683 44.0482 8.50185 44.0368 8.41874C44.0001 8.15076 43.7251 7.87638 43.2666 8.0593C42.8795 8.25233 42.8891 8.73854 42.8974 9.16352V9.16374V9.16396V9.16418C42.8986 9.22427 42.8998 9.28313 42.8998 9.33976C42.8998 9.64341 43.0832 10.7117 43.8168 11.5348C43.8806 11.6065 43.939 11.6726 43.9933 11.7343L43.9935 11.7345C44.5629 12.3802 44.6943 12.5292 46.2008 13.3641C46.6155 13.5939 46.979 13.7695 47.2867 13.9183C47.6438 14.0908 47.926 14.2272 48.1265 14.3701C48.1885 14.4143 48.2509 14.4569 48.3131 14.4992C48.8935 14.8949 49.4487 15.2733 49.4487 16.8332C49.4487 17.2027 49.3845 17.5575 49.2653 17.8868C49.0462 17.7112 48.794 17.5758 48.5198 17.4899C48.2998 17.4194 48.0641 17.3819 47.8211 17.3819C47.6029 17.3819 47.3911 17.4121 47.1912 17.4697C46.8968 17.5511 46.6272 17.6911 46.3934 17.8749C46.3925 17.874 46.3925 17.8731 46.3925 17.8722C46.0376 18.1301 45.6012 18.281 45.1289 18.281C44.786 18.281 44.4614 18.2014 44.1735 18.0578C44.1744 18.0588 44.1744 18.0606 44.1735 18.0615C43.9048 17.9481 43.6233 17.8594 43.3308 17.799C43.2629 17.7844 43.1951 17.7725 43.1263 17.7615C43.0328 17.328 42.864 16.9228 42.6348 16.5588C42.5587 16.4371 42.4762 16.3201 42.3863 16.2085C42.3542 16.1673 42.3212 16.128 42.2864 16.0887C42.2767 16.0772 42.2669 16.066 42.257 16.0548L42.2567 16.0545C42.247 16.0434 42.2372 16.0323 42.2277 16.021C42.091 15.8719 41.9434 15.7338 41.7857 15.6076C41.7013 15.5399 41.6142 15.4759 41.5234 15.4155C41.4317 15.3542 41.3373 15.2966 41.2392 15.2436C40.6964 14.9454 40.0719 14.7753 39.408 14.7753C39.1274 14.7753 38.8542 14.8055 38.591 14.8631H38.5901C38.4773 14.8878 38.3673 14.9171 38.26 14.9518C38.0867 15.0058 37.9189 15.0725 37.7575 15.1494C37.6557 15.0396 37.5494 14.9344 37.4393 14.8329C36.3555 13.8323 34.9048 13.2205 33.3103 13.2205C32.9215 13.2205 32.5418 13.257 32.1741 13.3266C33.6083 13.6156 34.8342 14.4762 35.6027 15.6606C35.2184 15.7503 34.8187 15.7978 34.4069 15.7978C33.0846 15.7978 31.1704 14.699 30.4305 14.2743L30.4305 14.2743L30.4304 14.2743C30.2746 14.1848 30.1709 14.1253 30.1358 14.1122C29.8744 13.986 29.6067 13.8707 29.3325 13.7692C29.2225 13.7281 29.1115 13.6887 28.9996 13.6522C28.6255 13.5278 28.2404 13.4272 27.847 13.3512C27.6691 13.3165 27.4894 13.2872 27.3079 13.2634C27.1428 13.2415 26.9759 13.2232 26.809 13.2095C26.6605 13.1939 26.5165 13.1647 26.3781 13.1198C26.3175 13.1016 26.257 13.0796 26.1983 13.054C26.0608 12.9973 25.9306 12.926 25.8086 12.8427C25.2438 12.4549 24.8743 11.8065 24.8743 11.0711C24.8743 10.8855 24.8981 10.7053 24.9421 10.5342C24.9458 10.5215 24.9494 10.5078 24.9531 10.4942L24.9531 10.494C24.9623 10.4528 24.9669 10.4099 24.9669 10.366C24.9669 10.1766 24.877 10.0083 24.7367 9.90224C24.711 9.88212 24.6835 9.86475 24.6551 9.85011C24.5735 9.80621 24.48 9.78152 24.3809 9.78152C24.1554 9.78152 23.96 9.90865 23.8619 10.0952C23.8546 10.1089 23.8473 10.1245 23.8408 10.1391C23.8115 10.2004 23.7849 10.2626 23.7601 10.3257C23.7381 10.3815 23.718 10.4373 23.6987 10.494C23.5896 10.8233 23.53 11.1754 23.53 11.5412V11.5414C23.53 11.5679 23.53 11.5943 23.5309 11.6208C23.5327 11.6793 23.5355 11.7388 23.5401 11.7964V11.7982C23.585 12.3836 23.7812 12.926 24.0903 13.3869C24.1306 13.4473 24.1737 13.5067 24.2186 13.5644C23.9756 13.6119 23.7244 13.6375 23.4676 13.6375C23.4493 13.6375 23.4319 13.6375 23.4135 13.6366C23.3383 13.6357 23.2632 13.6329 23.1889 13.6275C23.0458 13.6174 22.9046 13.5991 22.7662 13.5735C21.9849 13.4299 21.2871 13.0494 20.7498 12.5107C20.0584 11.8193 19.632 10.8653 19.632 9.8117V9.77054C19.6274 9.41384 19.3358 9.12574 18.9773 9.12574C18.6435 9.12574 18.3684 9.37451 18.3281 9.69646C18.3263 9.71292 18.3244 9.7303 18.3235 9.74768C18.3098 9.89859 18.3033 10.0504 18.3033 10.205C18.3033 11.5787 18.8297 12.8308 19.6925 13.7701C20.0382 14.147 20.4389 14.4735 20.8809 14.7378C21.3513 15.0195 21.8694 15.2299 22.4205 15.3542C22.5177 15.3762 22.6149 15.3954 22.7139 15.4119C23.0009 15.4603 23.2953 15.485 23.596 15.485C23.8188 15.485 24.038 15.4713 24.2535 15.4448H24.2544L24.3562 15.4311L24.413 15.4228C24.756 15.3725 25.1062 15.3433 25.4611 15.3369C25.5161 15.336 25.5721 15.335 25.6271 15.335C26.0205 15.335 26.4074 15.3625 26.7861 15.4155C26.854 15.4238 26.9218 15.4347 26.9888 15.4457C27.4546 15.5216 27.9066 15.6359 28.3431 15.7859C29.0198 16.0173 29.6562 16.3338 30.2412 16.7216L30.2678 16.7394L30.2944 16.7573C31.4608 17.5301 32.8325 18.0185 34.3116 18.1219C34.5087 18.1365 34.7077 18.1438 34.9085 18.1438C34.981 18.1438 35.0525 18.1429 35.124 18.1411C35.2936 18.1365 35.4633 18.1273 35.6302 18.1118C35.798 18.099 35.9649 18.0798 36.1299 18.0551C36.2308 18.0405 36.3307 18.024 36.4297 18.0057C37.1835 17.8676 37.9015 17.628 38.569 17.3024C38.7056 17.2365 38.8542 17.1908 39.011 17.1688C39.0587 17.1615 39.1063 17.1569 39.1559 17.1551L39.1559 17.1551C39.1788 17.1542 39.2017 17.1533 39.2246 17.1533C39.6428 17.1533 40.0206 17.3225 40.2947 17.595C40.4038 17.7039 40.4955 17.8292 40.5671 17.9673C40.5735 17.9792 40.5799 17.9911 40.5854 18.003C40.5946 18.0213 40.6028 18.0395 40.6111 18.0588C40.6927 18.2435 40.7376 18.4475 40.7376 18.6624C40.7376 19.1718 40.4845 19.6218 40.0976 19.8944C39.9408 20.006 39.7611 20.0883 39.5676 20.1322C39.4905 20.1505 39.4108 20.1624 39.3292 20.1678C39.2943 20.1706 39.2595 20.1715 39.2246 20.1715C38.9367 20.1715 38.668 20.091 38.4388 19.952C38.1765 19.7929 37.9657 19.556 37.8409 19.2724C37.5613 19.3977 37.2733 19.5075 36.9781 19.6017C36.7617 19.6712 36.5407 19.7316 36.316 19.7837H36.3151C36.1959 19.8111 36.0749 19.8358 35.9538 19.8578H35.9529C35.9135 19.866 35.8741 19.8724 35.8346 19.8788C35.8071 19.8843 35.7787 19.8889 35.7503 19.8926C35.5229 19.9291 35.2927 19.9566 35.0589 19.973C34.8517 19.9886 34.6417 19.9968 34.4299 19.9968C34.2089 19.9968 33.9888 19.9886 33.7724 19.9712C33.5349 19.9529 33.2993 19.9246 33.0682 19.8861C32.0247 19.716 31.0454 19.352 30.1706 18.8325C29.7681 18.5956 29.3518 18.3816 28.9217 18.1914H28.9208C28.4458 17.9819 27.9552 17.8027 27.4509 17.6563C26.9493 17.51 26.434 17.3957 25.9067 17.3152C25.6078 17.2704 25.3052 17.2356 24.9999 17.2127C24.6991 17.1908 24.3965 17.1789 24.0903 17.1789C23.8243 17.1789 23.5603 17.1871 23.298 17.2045C22.989 17.2246 22.6836 17.2566 22.381 17.3005C21.4311 17.435 20.5169 17.6819 19.6522 18.0267C19.5614 18.0633 19.4715 18.0999 19.3817 18.1383C19.3863 18.1319 19.3909 18.1264 19.3973 18.12C18.8847 18.2966 18.3409 18.4072 17.7761 18.4411C17.7293 18.4447 17.6816 18.4475 17.634 18.4484C17.5533 18.452 17.4717 18.4539 17.3891 18.4539H17.369C15.9504 18.4493 14.6438 17.9673 13.6039 17.1597C13.6635 17.3051 13.7286 17.4469 13.7983 17.5859L13.808 17.6047L13.8176 17.6234C14.3558 18.6715 15.1875 19.5459 16.2035 20.1386C16.4337 20.273 16.673 20.3928 16.9215 20.4971C17.1617 20.5977 17.4093 20.6837 17.6633 20.7541C17.7055 20.766 17.7477 20.777 17.7898 20.787H17.7908C17.8696 20.8072 17.9476 20.8255 18.0273 20.8419C18.4418 20.9306 18.8719 20.9764 19.3129 20.9764C20.4692 20.9764 21.5494 20.6599 22.4737 20.1093L22.4742 20.1092L22.4746 20.1089C22.4748 20.1086 22.475 20.1084 22.4755 20.1084C22.4792 20.1066 22.4828 20.1038 22.4865 20.102L22.4875 20.1011L22.4893 20.0998L22.492 20.0983C22.4925 20.0979 22.4929 20.0977 22.4934 20.0974C22.4938 20.0972 22.4943 20.097 22.4948 20.0965C22.5075 20.0883 22.5203 20.081 22.5331 20.0737L22.5332 20.0737L22.5332 20.0737L22.5332 20.0737L22.5333 20.0736C22.6442 20.006 22.7579 19.9419 22.8725 19.8816C23.7281 19.4261 24.6799 19.1279 25.6894 19.0237L25.6903 19.0236L25.6913 19.0228L25.6913 19.0228L25.7811 19.0145C26.0149 18.9935 26.2515 18.9825 26.4908 18.9825C26.7421 18.9825 26.9897 18.9944 27.2345 19.0182C28.6319 19.1517 29.9212 19.6575 31.0004 20.4377C30.2128 20.3124 29.4049 20.2547 28.5806 20.2703C28.156 20.2785 27.7361 20.306 27.3216 20.3517C26.9237 20.3956 26.5303 20.4569 26.1424 20.5346C25.2154 20.7203 24.3213 21.0001 23.4713 21.3632C23.3127 21.4309 23.1559 21.5014 23.0009 21.5745C22.8212 21.6596 22.6442 21.7474 22.4691 21.8398C22.0519 22.0593 21.6466 22.3007 21.255 22.5614C21.2046 22.5943 21.1551 22.6272 21.1065 22.662C20.7718 22.8897 20.449 23.1312 20.1354 23.3891C20.1345 23.3891 20.1345 23.3891 20.1336 23.39C19.8429 23.6287 19.5614 23.8784 19.2909 24.1391C19.2909 24.1391 19.2909 24.14 19.29 24.14L19.2898 24.1405C19.2897 24.1407 19.2895 24.1409 19.2891 24.1409C19.1586 24.2417 18.8744 24.5528 18.7062 24.7368L18.7062 24.7368L18.6765 24.7693C18.4556 25.0107 18.2428 25.2595 18.0383 25.5165C17.898 25.6921 17.7623 25.8714 17.6303 26.0534L17.6302 26.0536L17.6301 26.0536L17.6301 26.0537L17.63 26.0537C17.5824 26.1204 17.5348 26.187 17.4882 26.2546C16.8087 27.2305 16.2475 28.2978 15.8248 29.4347C15.5387 30.2048 15.3159 31.0051 15.1637 31.8319V31.8328C15.0096 32.6651 14.928 33.523 14.9234 34.3992V34.4285C14.9234 34.5364 14.9244 34.6443 14.9262 34.7523C14.9409 35.5333 15.0179 36.2989 15.1508 37.0434C15.1673 37.1385 15.1857 37.2336 15.2049 37.3278V37.3287C15.3306 37.9635 15.4984 38.5817 15.7038 39.1817C15.7093 39.1982 15.712 39.2165 15.712 39.2357C15.712 39.3024 15.6753 39.361 15.6212 39.3921C15.5946 39.4076 15.5635 39.4168 15.5305 39.4168C15.4562 39.4168 15.3929 39.3729 15.3636 39.3098C15.3617 39.3034 15.359 39.296 15.3562 39.2896C15.3562 39.2893 15.3561 39.2891 15.356 39.2889C15.3558 39.2886 15.3557 39.2884 15.3562 39.2878C15.2581 39.0217 15.1389 38.761 14.9986 38.5095C14.4998 37.6561 14.2165 36.7113 14.1495 35.7547L14.1488 35.7536L14.1486 35.7528C14.1376 35.591 14.1321 35.4291 14.133 35.2681C14.0789 35.3394 14.0248 35.4126 13.9744 35.4858C13.7103 35.8617 13.4967 36.2614 13.3316 36.6766C13.0327 37.4257 12.8951 38.2232 12.918 39.018C12.9208 39.1287 12.9272 39.2393 12.9364 39.35C12.9749 39.8101 13.0675 40.2655 13.2142 40.7082L13.2144 40.7088C13.2226 40.7333 13.2308 40.7578 13.239 40.7814C13.7745 42.4377 13.702 44.2478 13.0226 45.863C13.4013 45.637 13.758 45.3608 14.0844 45.0352C14.5484 44.5724 14.9124 44.0465 15.1756 43.4859C15.4195 42.9655 15.5763 42.4158 15.646 41.857C15.6552 41.7911 15.6625 41.7243 15.668 41.6585V41.653C15.668 41.6402 15.6689 41.6283 15.6717 41.6164V41.6155C15.6891 41.5332 15.7625 41.471 15.8505 41.471C15.9449 41.471 16.0229 41.5423 16.032 41.6347C16.0467 41.803 16.066 41.9704 16.0907 42.1359C16.1953 42.896 16.3841 43.6304 16.6455 44.3282C17.5771 46.8215 19.4367 48.8638 21.8061 50.0372C21.3201 49.4071 21.0111 48.6361 20.9506 47.7955C20.9433 47.6949 20.9396 47.5943 20.9396 47.4919C20.9396 47.0794 20.9992 46.6806 21.1111 46.3047C21.1863 46.0504 21.2853 45.8062 21.4054 45.5749C21.3999 45.6636 21.3981 45.7532 21.3981 45.8428C21.3981 46.0733 21.4127 46.3011 21.4412 46.5242C21.6456 48.1065 22.5525 49.4693 23.839 50.2924C23.9133 50.34 23.9894 50.3857 24.0664 50.4296C24.4717 50.6647 24.8926 50.8769 25.3281 51.0625C25.3291 51.0634 25.3291 51.0634 25.33 51.0634C25.6867 51.2162 26.0516 51.3515 26.4267 51.4686H26.4276C27.5298 51.8143 28.7016 52 29.9175 52C33.2653 52 36.2821 50.5915 38.4049 48.3361C38.4379 48.3022 38.47 48.2675 38.5012 48.2327L38.5199 48.2129L38.5282 48.204C38.5397 48.1916 38.5508 48.1792 38.5617 48.1669C38.5919 48.1349 38.6213 48.1019 38.6497 48.069C38.6515 48.0663 38.6534 48.0644 38.6552 48.0626C39.3888 47.2184 39.9371 46.2105 40.237 45.1011C40.4093 44.4709 40.5001 43.8087 40.5001 43.1246C40.5001 42.8969 40.49 42.6719 40.4699 42.4496L40.4698 42.4492C40.4671 42.4183 40.4643 42.3873 40.4607 42.3563C40.4139 41.8881 40.3241 41.4326 40.1939 40.9945C40.104 40.6863 39.994 40.3863 39.8656 40.0963C39.8628 40.089 39.8601 40.0817 39.8555 40.0744C39.795 39.9363 39.7308 39.8009 39.6611 39.6683C39.4062 39.1753 39.0981 38.7143 38.7441 38.2918C38.3343 37.8006 37.862 37.3635 37.3403 36.9894L37.3402 36.9893C37.2944 36.9573 37.2486 36.9253 37.2027 36.8943C37.1551 36.8604 37.1065 36.8284 37.0579 36.7973C36.6984 36.5632 36.3179 36.3592 35.919 36.1891C35.8502 36.1589 35.7805 36.1306 35.7109 36.1031C35.1955 35.9001 34.6527 35.7519 34.0888 35.6659C34.0845 35.6655 34.0802 35.6649 34.0758 35.6643L34.0669 35.663L34.0603 35.6623C33.7953 35.622 33.5248 35.5964 33.2516 35.5864C33.2332 35.5845 33.214 35.5836 33.1956 35.5845C33.1094 35.5809 33.0223 35.5791 32.9352 35.5791C32.5611 35.5791 32.1925 35.6065 31.833 35.6586C31.8234 35.6602 31.8137 35.6615 31.8038 35.6629L31.7826 35.6659C31.6927 35.6797 31.6038 35.6952 31.5149 35.7126C31.5063 35.7114 31.4977 35.7103 31.4891 35.7089C31.4839 35.7081 31.4787 35.7072 31.4736 35.7062C31.4186 35.7126 31.3626 35.7181 31.3076 35.7236C31.2737 35.7263 31.2398 35.7291 31.2058 35.7309C31.0023 35.7473 30.795 35.7556 30.5869 35.7556C30.3412 35.7556 30.0991 35.7446 29.8598 35.7227L29.8011 35.7172C28.8795 35.6266 28.0112 35.3778 27.2318 35.0029C27.1162 34.948 27.0025 34.8894 26.8906 34.8272C26.6623 34.7029 26.4432 34.5666 26.2332 34.4202C26.2011 34.3983 26.1699 34.3763 26.1397 34.3535C26.1323 34.3489 26.1259 34.3443 26.1186 34.3388C25.948 34.2145 25.7839 34.0837 25.628 33.9456C25.5482 33.8761 25.4703 33.8038 25.3951 33.7306C25.0127 33.3611 24.6799 32.9514 24.4066 32.5078C24.2847 32.3102 24.1737 32.1063 24.0774 31.8959C24.0673 31.8767 24.0582 31.8566 24.0499 31.8374C24.0141 31.7596 23.9802 31.6801 23.949 31.6005C23.9124 31.5118 23.8794 31.4212 23.8482 31.3307C23.7684 31.0965 23.7033 30.8569 23.6547 30.6118C23.6455 30.6141 23.6361 30.6166 23.6267 30.6191C23.6173 30.6216 23.6079 30.6241 23.5988 30.6264C23.6048 30.6227 23.6107 30.6188 23.6165 30.6148L23.6361 30.6019L23.6454 30.596L23.651 30.5926C23.6024 30.3466 23.5703 30.0941 23.5557 29.839C23.5529 29.7905 23.5511 29.7411 23.5502 29.6926C23.5474 29.635 23.5465 29.5774 23.5465 29.5188C23.5465 28.799 23.684 28.1067 23.939 27.4637C23.994 27.3219 24.0554 27.182 24.1233 27.0448C24.1737 26.9415 24.2269 26.839 24.2837 26.7384C24.4231 26.4915 24.5799 26.2537 24.7541 26.0269C24.888 25.8512 25.032 25.682 25.1851 25.5202C25.4492 25.2394 25.7417 24.9796 26.058 24.7446C26.3845 24.5013 26.7357 24.2836 27.1089 24.0961C27.2235 24.0376 27.3409 23.9827 27.4601 23.9306C27.914 23.7303 28.3963 23.5729 28.8997 23.4641C28.9254 23.4577 28.9501 23.4522 28.9758 23.4476C29.493 23.3397 30.0331 23.283 30.5869 23.283C31.0949 23.283 31.59 23.3306 32.0669 23.422H32.0696C32.088 23.4248 32.1063 23.4275 32.1237 23.433C32.2631 23.4705 32.3676 23.5903 32.3832 23.7367C32.3841 23.7495 32.385 23.7623 32.385 23.7751C32.385 23.958 32.2457 24.1089 32.0669 24.1272C31.4232 24.1775 30.806 24.312 30.2293 24.5177C29.7066 24.7043 29.2188 24.9485 28.7732 25.2439H28.7722C28.6549 25.3208 28.5412 25.4013 28.4302 25.4854C28.3193 25.5686 28.212 25.6555 28.1084 25.7461C28.0084 25.8311 27.9121 25.9198 27.8195 26.0122C27.406 26.4165 27.0557 26.8738 26.7824 27.3713C26.6486 27.6146 26.533 27.8671 26.4377 28.1286C26.291 28.5256 26.1919 28.9426 26.1452 29.3725L26.1617 29.3862C26.1577 29.3873 26.1538 29.3888 26.1501 29.3902L26.1501 29.3902L26.15 29.3902L26.1433 29.3926C26.1231 29.5774 26.1131 29.764 26.1131 29.9524C26.1131 30.0484 26.1158 30.1435 26.1204 30.2386C26.1241 30.2935 26.1277 30.3484 26.1323 30.4033C26.1433 30.5359 26.1598 30.6676 26.1809 30.7984C26.2121 30.9932 26.2543 31.1843 26.3065 31.3718C26.3249 31.4386 26.3451 31.5035 26.3661 31.5685V31.5694C26.3937 31.6572 26.4239 31.7432 26.456 31.8292H26.4569C26.4707 31.8666 26.4853 31.9041 26.5 31.9416H26.5009C26.5339 32.024 26.5697 32.1063 26.6073 32.1868C26.6174 32.2096 26.6275 32.2316 26.6385 32.2535C26.6852 32.1365 26.7348 32.0203 26.787 31.906C26.8017 31.8721 26.8173 31.8392 26.8338 31.8054C26.9392 31.5831 27.0557 31.3664 27.1813 31.1569C27.2073 31.1129 27.2343 31.0699 27.2611 31.0272L27.2859 30.9877H27.2868C27.4023 30.8057 27.5252 30.6292 27.6563 30.4591C27.693 30.4097 27.7315 30.3612 27.77 30.3136C27.7563 30.3118 27.7425 30.31 27.7287 30.3091C27.759 30.289 27.7901 30.2698 27.8212 30.2506L27.8214 30.2505C27.9754 30.063 28.1377 29.8829 28.3092 29.7118C28.3404 29.6798 28.3715 29.6487 28.4045 29.6176C28.4568 29.5664 28.5091 29.517 28.5623 29.4694C28.6805 29.3597 28.8025 29.2554 28.9281 29.1548C29.0923 29.0222 29.2619 28.8969 29.437 28.7789H29.4389C29.4389 28.7789 29.4398 28.7789 29.4398 28.778C29.8487 28.5018 30.2834 28.264 30.7437 28.071V28.0701C30.806 28.0445 30.8693 28.0189 30.9335 27.9942C31.1288 27.9183 31.3278 27.8497 31.5304 27.7902C32.0118 27.6485 32.5134 27.5524 33.0306 27.5094C33.1159 27.5012 33.2011 27.4957 33.2873 27.4911C33.2864 27.4893 33.2855 27.4875 33.2846 27.4847H33.3167C33.3726 27.4847 33.4285 27.4847 33.4836 27.4838H33.4854C33.6523 27.4811 33.8173 27.4747 33.9815 27.4637C34.0378 27.4619 34.0933 27.4575 34.1496 27.4531L34.1539 27.4527C34.7499 27.4088 35.3322 27.3165 35.8979 27.1793C36.2592 27.0924 36.6141 26.9881 36.9597 26.8656C37.0945 26.8189 37.2275 26.7695 37.3586 26.7174C37.2651 26.8409 37.1688 26.9625 37.0698 27.0823C36.8222 27.3814 36.559 27.6677 36.2821 27.9384C36.1959 28.0235 36.1079 28.1067 36.0189 28.189C35.51 28.6545 34.9562 29.0743 34.3648 29.4374C34.296 29.4813 34.2263 29.5234 34.1566 29.5627C33.9301 29.6972 33.6981 29.8225 33.4606 29.9386C33.3451 29.9963 33.2277 30.0521 33.1094 30.1051C33.0948 30.1115 33.0792 30.1188 33.0645 30.1243C32.9261 30.1865 32.7858 30.246 32.6436 30.3017C32.3685 30.4106 32.088 30.5084 31.8019 30.5953C31.303 30.7472 30.7895 30.8633 30.2641 30.9429C30.221 30.9493 30.1779 30.9557 30.1348 30.9612C30.0807 30.9694 30.0266 30.9767 29.9725 30.9831C29.8212 31.0023 29.6681 31.0179 29.515 31.0298L29.5149 31.0305L29.5146 31.0303L29.5141 31.0298L29.5141 31.0298L29.4977 31.0311L29.4974 31.0312C29.4593 31.0344 29.4223 31.0374 29.3838 31.0398C29.3673 31.0417 29.3508 31.0426 29.3343 31.0426C29.1702 31.0545 29.0051 31.0618 28.8392 31.0645C28.9474 31.1121 29.0574 31.1578 29.1684 31.2017C29.2023 31.2154 29.2362 31.2282 29.2711 31.2411L29.2788 31.2428L29.2788 31.2428C29.293 31.2459 29.3076 31.2491 29.3215 31.2529C29.3544 31.2612 29.3873 31.2703 29.4203 31.2794L29.4205 31.2795C29.4517 31.2877 29.482 31.2959 29.5122 31.3051C29.7213 31.3664 29.9258 31.4404 30.1229 31.5273C30.1248 31.5282 30.1266 31.5292 30.1293 31.5292C30.7107 31.6974 31.3131 31.8163 31.9312 31.8831C31.9953 31.8904 32.0604 31.8968 32.1265 31.9014H32.1274C32.1292 31.8996 32.1311 31.8977 32.132 31.8959C32.1341 31.897 32.1363 31.8981 32.1385 31.8995C32.1394 31.9002 32.1404 31.9009 32.1413 31.9017C32.1419 31.9022 32.1424 31.9027 32.143 31.9032C32.4538 31.9316 32.7674 31.9453 33.0856 31.9453C33.2461 31.9453 33.4056 31.9416 33.5643 31.9343C33.9897 31.916 34.4088 31.8721 34.8196 31.8035C34.8567 31.7987 34.8939 31.7924 34.931 31.786L34.9681 31.7798C35.2469 31.7295 36.1858 31.4889 36.3775 31.4267C36.5994 31.3545 36.8176 31.2758 37.0331 31.1889C37.1633 31.1377 37.2917 31.0837 37.4191 31.027C38.039 30.7508 38.6277 30.417 39.1779 30.031C39.2054 30.0127 39.2329 29.9935 39.2604 29.9734C39.2686 29.9679 39.2769 29.9624 39.2852 29.9551C39.7088 29.6524 40.1086 29.3185 40.4827 28.9554C40.766 28.6829 41.0347 28.392 41.2869 28.0884C41.318 28.0509 41.3483 28.0143 41.3777 27.9768C41.8178 28.2411 42.113 28.7222 42.113 29.2719C42.113 29.3048 42.1121 29.3377 42.1094 29.3707C42.0993 29.5298 42.0645 29.6816 42.0085 29.8234C41.9022 30.096 41.7178 30.3292 41.4831 30.4975C41.3364 30.6027 41.1933 30.7133 41.0549 30.8295C40.811 31.0325 40.5808 31.252 40.3662 31.4853C39.9958 31.8877 39.6712 32.3331 39.3998 32.8124C39.3099 32.9715 39.2256 33.1343 39.1476 33.3017C38.8634 33.9071 38.6616 34.5602 38.5562 35.2434C38.9413 34.8748 39.3594 34.541 39.806 34.2465C40.086 34.0615 40.3857 33.9086 40.6867 33.755L40.6867 33.755C40.8263 33.6838 40.9661 33.6124 41.1044 33.5376C41.7078 33.2111 42.9328 32.956 43.0474 32.9349H43.0483C43.5967 32.8407 44.1267 32.6953 44.6347 32.5041C45.4132 32.2124 46.1394 31.8136 46.795 31.3261C47.1453 31.0664 47.4754 30.781 47.7835 30.4737C47.9229 30.3338 48.0586 30.1883 48.1888 30.0393C48.1888 30.0383 48.1897 30.0374 48.1906 30.0365L48.1925 30.0347C48.2008 30.0263 48.2077 30.018 48.2151 30.009L48.2152 30.0089L48.2172 30.0063C48.2255 29.9972 48.2328 29.988 48.2411 29.9789C48.3098 29.8938 48.3667 29.7978 48.407 29.6944C48.4566 29.571 48.4832 29.4365 48.4832 29.2957C48.4832 28.9335 48.3053 28.6125 48.032 28.4149C48.2319 28.1414 48.3484 27.8058 48.3484 27.4418C48.3484 26.5866 47.701 25.8823 46.8684 25.7909C47.1618 26.1037 47.3397 26.5235 47.3397 26.9845C47.3397 27.2972 47.2581 27.5908 47.1132 27.8451C47.038 27.9795 46.9445 28.1021 46.8381 28.2109C46.8351 28.2134 46.8325 28.2162 46.8297 28.2191L46.8253 28.2237C46.7354 28.3106 46.6107 28.3655 46.4741 28.3655C46.1963 28.3655 45.9698 28.1396 45.9698 27.8625C45.9698 27.8451 45.9707 27.8277 45.9725 27.8113C45.9744 27.7939 45.9771 27.7775 45.9799 27.761V27.761V27.761V27.761C45.9899 27.6823 45.9945 27.6009 45.9945 27.5186C45.9945 27.0338 45.8176 26.5912 45.5232 26.25C45.4168 26.1247 45.294 26.0131 45.1583 25.9198C44.9575 25.779 44.7282 25.6747 44.4815 25.618C44.4595 25.6354 44.4384 25.6537 44.4174 25.6729V25.6738C44.4981 25.8686 44.5558 26.0744 44.5879 26.2884C44.609 26.421 44.6191 26.5573 44.6191 26.6954C44.6191 27.0302 44.5577 27.3503 44.4449 27.6457C44.2477 27.4427 44.0414 27.2479 43.8268 27.0604C43.7425 26.9881 43.6572 26.9159 43.571 26.8463C43.5233 26.807 43.4756 26.7686 43.427 26.7302C43.1721 26.529 42.9071 26.3387 42.6339 26.1622C42.6146 26.1485 42.5945 26.1357 42.5752 26.1238C42.522 26.09 42.4697 26.057 42.4166 26.0241C41.7444 25.6098 41.0219 25.2686 40.2608 25.0107C40.1508 24.9741 40.0389 24.9385 39.927 24.9055C39.5914 24.8031 39.2485 24.7171 38.8991 24.6494C38.8056 24.6312 38.7102 24.6138 38.6149 24.5982C38.5507 24.5873 38.4856 24.5763 38.4205 24.568C37.9061 24.4903 37.3788 24.451 36.8424 24.451C36.725 24.451 36.6076 24.4528 36.4912 24.4574C36.4921 24.4574 36.4939 24.4565 36.4949 24.4555C36.4848 24.4565 36.4747 24.4565 36.4646 24.4565C35.8622 24.4565 35.3743 23.969 35.3743 23.3681C35.3743 23.3269 35.3762 23.2867 35.3807 23.2473C35.4275 22.8294 35.7099 22.4836 36.0932 22.3455C36.2078 22.3044 36.3307 22.2815 36.4591 22.2806H36.4719C36.5171 22.2811 36.5621 22.2813 36.6071 22.2815L36.6076 22.2815C36.6528 22.2817 36.698 22.282 36.7433 22.2824C37.0973 22.2843 37.4512 22.287 37.8033 22.2907C38.0674 22.2925 38.3297 22.2952 38.5919 22.298C38.5947 22.2916 38.5984 22.2861 38.6011 22.2806C38.6304 22.287 38.6607 22.2934 38.691 22.2989H38.7066L39.3503 22.3071C39.4602 22.3089 39.5702 22.3105 39.6801 22.3121L39.681 22.3121L39.682 22.3121L39.6823 22.3121L39.6826 22.3121C39.7945 22.3137 39.9063 22.3153 40.0178 22.3172H40.2324C40.3351 22.3172 40.5175 22.3236 40.6202 22.3272L40.6592 22.3279L40.6808 22.3282C40.7009 22.3284 40.721 22.3286 40.7413 22.3291C41.3639 22.3401 41.9838 22.3529 42.599 22.3684C42.8558 22.3739 43.1107 22.3803 43.3656 22.3867L43.6627 22.3949C43.8186 22.3986 43.9745 22.4032 44.1294 22.4077L44.1304 22.4086C44.1331 22.6382 44.1184 22.8632 44.0873 23.0836C44.046 23.3882 43.9745 23.6827 43.8754 23.9653C43.8498 24.0394 43.8223 24.1117 43.7929 24.1839C43.8681 24.1437 43.9415 24.1025 44.0139 24.0595C44.2743 23.9059 44.5191 23.7312 44.7484 23.5364C45.1188 23.2227 45.4462 22.8596 45.7204 22.4571C45.7772 22.3922 45.7878 22.3867 45.793 22.384L45.7944 22.3832C45.7986 22.3807 45.8016 22.3762 45.834 22.3273L45.8341 22.3272C45.8583 22.291 45.8808 22.2559 45.9024 22.2223C46.0504 21.9919 46.1525 21.8328 46.4503 21.848C46.7428 21.8626 46.9711 22.1077 46.9711 22.3995V22.405C46.9711 22.4242 46.9702 22.4434 46.9683 22.4626C46.9683 22.4763 46.9683 22.4891 46.9665 22.5019C46.9381 23.09 46.7987 23.6489 46.5676 24.1583C47.3397 23.8098 47.9981 23.2537 48.4712 22.5623C48.65 22.3007 48.8022 22.019 48.9242 21.7227L48.9251 21.7218C49.2534 21.5443 49.534 21.2892 49.7421 20.9809C49.9915 20.6133 50.1364 20.1697 50.1364 19.6913C50.1364 19.4389 50.0961 19.1956 50.02 18.9679C50.3858 18.345 50.5949 17.6197 50.5949 16.846ZM27.2593 51.0945H27.251L27.2542 51.0945L27.2565 51.0944C27.2576 51.0943 27.2586 51.0941 27.2596 51.0938L27.2594 51.094L27.2593 51.0945ZM27.2596 51.0938C27.2598 51.0937 27.26 51.0937 27.2602 51.0936L27.2597 51.0937L27.2596 51.0938ZM26.9282 38.5387C26.931 38.5506 26.9337 38.5625 26.9374 38.5744L26.9163 38.5534C26.92 38.5479 26.9237 38.5433 26.9282 38.5387ZM24.1077 39.9363C24.3818 40.25 24.6368 40.4393 24.6368 40.4393C24.6439 40.438 24.712 40.4907 24.7996 40.5583L24.7997 40.5584L24.7998 40.5585L24.7999 40.5585L24.7999 40.5586L24.8001 40.5587L24.8002 40.5588C24.9034 40.6386 25.0336 40.7391 25.1227 40.7969H25.1237C25.1961 40.8445 25.2676 40.8893 25.3428 40.9323C25.3657 40.9469 25.3887 40.9597 25.4125 40.9725C25.4895 41.0164 25.5675 41.0585 25.6472 41.0969C25.9031 41.2259 26.1717 41.3338 26.4505 41.4189C26.9447 41.5716 27.4702 41.6539 28.0148 41.6539C28.1634 41.6539 28.311 41.6475 28.4559 41.6356C28.4733 41.6347 28.4907 41.6329 28.5082 41.631C28.6934 41.6146 28.8768 41.5881 29.0556 41.5524C28.9309 41.4673 28.8098 41.3768 28.6934 41.2817C28.4981 41.1207 28.3138 40.9469 28.1441 40.7612H28.1432C28.0478 40.657 27.9561 40.5491 27.869 40.4375C27.8525 40.4164 27.836 40.3945 27.8195 40.3725C27.7801 40.3204 27.7416 40.2683 27.7049 40.2143C27.6618 40.1549 27.6215 40.0936 27.582 40.0314C27.5674 40.0094 27.5527 39.9866 27.5389 39.9628C27.4271 39.7817 27.3253 39.5933 27.2363 39.3985C27.1144 39.1351 27.0144 38.8598 26.9383 38.5753C26.9722 38.6073 27.0071 38.6394 27.0429 38.6704V38.6714C27.2217 38.8332 27.4133 38.9832 27.6141 39.1195C27.814 39.2558 28.0249 39.3793 28.2441 39.4872L28.2578 39.477C28.2716 39.4669 28.2853 39.4568 28.2991 39.4451C28.2881 39.4625 28.2762 39.479 28.2633 39.4963L28.2805 39.5047L28.2805 39.5048C28.5928 39.6579 28.8786 39.798 29.3288 39.8878C29.7166 39.9651 30.1699 39.9771 30.8701 39.9955C30.9979 39.9989 31.1339 40.0025 31.2792 40.0067C31.4617 40.0122 31.6405 40.0213 31.8147 40.0506C31.8954 40.0634 31.9761 40.0799 32.0549 40.1H32.0559C33.0599 40.3451 33.8815 41.0548 34.2786 41.9877C34.3547 42.167 34.4152 42.3545 34.4583 42.5484C34.4785 42.6417 34.4959 42.7368 34.5078 42.8328C34.5261 42.971 34.5353 43.1118 34.5353 43.2545C34.5353 43.9981 34.285 44.6831 33.8632 45.23C33.3992 45.8337 32.728 46.27 31.955 46.4318L31.9522 46.462H31.9513C31.8129 46.4748 31.6726 46.4849 31.5323 46.4931L31.5319 46.4931C31.5036 46.495 31.4753 46.4968 31.447 46.4977C31.4443 46.4977 31.4415 46.4986 31.4388 46.4986C31.2865 46.5059 31.1325 46.5123 30.9784 46.5151C30.3723 46.527 29.7736 46.4986 29.1867 46.4328C28.0038 46.3001 26.8631 46.0166 25.7866 45.5995C24.7294 45.1907 23.7326 44.6538 22.8148 44.0072C22.636 43.8819 22.4608 43.752 22.2884 43.6185C22.1922 43.5435 22.0968 43.4676 22.0023 43.3908L21.9643 43.3592L21.9262 43.3276C21.3201 42.8237 20.7553 42.2685 20.24 41.6685C19.9694 41.3548 19.7127 41.0283 19.4697 40.6899C19.2808 40.4274 19.1011 40.1576 18.9305 39.8814C18.8957 39.8256 18.8618 39.7698 18.8278 39.714C18.6655 39.4442 18.5124 39.1698 18.3675 38.889V38.8881C17.8687 37.9159 17.4753 36.8778 17.2048 35.7876V35.7867C17.1837 35.7016 17.1636 35.6147 17.1443 35.5288L17.141 35.5148L17.1388 35.5051L17.1388 35.505C17.1296 35.4666 17.1214 35.4281 17.1131 35.3897C17.1058 35.3577 17.0994 35.3266 17.093 35.2946C17.0911 35.29 17.0902 35.2855 17.0893 35.28C17.0719 35.1968 17.0554 35.1135 17.0398 35.0294C17.0416 35.0303 17.0434 35.0303 17.0453 35.0303C16.9912 34.6937 16.9637 34.3489 16.9637 33.9977C16.9637 33.7434 16.9783 33.4928 17.0068 33.2459C17.0425 32.9349 17.0994 32.6313 17.1773 32.3349C17.512 31.0609 18.2208 29.9386 19.1809 29.0935L19.1754 29.0743L19.1791 29.0735C19.1896 29.071 19.1994 29.0688 19.2093 29.0679L19.2102 29.067C19.223 29.0551 19.2368 29.0432 19.2506 29.0323C19.2726 29.0131 19.2946 28.9948 19.3166 28.9765C19.5467 28.7835 19.7897 28.607 20.0446 28.4478C19.9108 28.6225 19.7851 28.8027 19.6669 28.9893C19.6229 29.0578 19.5807 29.1282 19.5386 29.1986L19.5385 29.1986L19.5385 29.1986L19.5385 29.1986L19.5385 29.1987C19.5192 29.2307 19.5009 29.2627 19.4825 29.2957C19.4358 29.3771 19.3908 29.4594 19.3478 29.5426C18.8122 30.5706 18.506 31.7359 18.4987 32.9724C18.4977 32.9889 18.4977 33.0063 18.4977 33.0227C18.4977 33.2148 18.5051 33.4041 18.5188 33.5916V33.5925C18.5252 33.6758 18.5326 33.759 18.5427 33.8413C18.5848 34.2437 18.66 34.637 18.7655 35.0184C18.8599 35.3641 18.9782 35.7007 19.1203 36.0254C19.7732 37.5272 20.9011 38.7765 22.3159 39.5832C22.0601 38.8259 21.9217 38.0156 21.9217 37.1723C21.9217 36.6793 21.9693 36.1982 22.0601 35.7318C22.0925 35.787 22.297 36.3517 22.3978 36.6301C22.4255 36.7065 22.4453 36.7614 22.4517 36.7781C22.4745 36.8389 22.4986 36.9041 22.5242 36.9731L22.525 36.9755L22.5251 36.9757C22.8071 37.7383 23.2628 38.9704 24.1077 39.9363ZM27.3537 30.2725L27.352 30.2716C27.3508 30.271 27.3497 30.2704 27.3491 30.2697C27.351 30.2697 27.3528 30.2697 27.3546 30.2707C27.3546 30.2707 27.3528 30.2716 27.3537 30.2725ZM28.1826 28.9033L28.1817 28.9015L28.1803 28.8993L28.179 28.8978L28.1836 28.8969L28.1881 28.896C28.1876 28.897 28.1869 28.8983 28.1858 28.8997C28.1849 28.9008 28.1839 28.9021 28.1826 28.9033ZM47.792 32.0532C47.7581 32.4703 47.6939 32.8791 47.6031 33.2779C47.55 33.5111 47.4876 33.7416 47.4152 33.9666V33.9684C47.1951 34.6662 46.8907 35.3266 46.5129 35.9376C46.4038 36.1141 46.2882 36.2869 46.1672 36.4561C45.4235 37.4814 44.8963 38.6732 44.6524 39.9646C44.5937 40.2673 44.5515 40.5765 44.5267 40.8893C44.5066 41.1298 44.4965 41.3722 44.4965 41.6173C44.4965 41.8706 44.5075 42.1222 44.5286 42.3709C44.5588 42.7368 44.6129 43.0962 44.6872 43.4483C44.7083 43.548 44.7312 43.6459 44.756 43.7438C44.656 43.6368 44.5607 43.527 44.469 43.4145H44.4681C44.3186 43.2316 44.1774 43.0413 44.0463 42.8438C43.6694 42.2795 43.3714 41.6584 43.166 40.9972C43.0669 40.6771 42.9899 40.3478 42.9358 40.0112C42.8964 39.767 42.8698 39.5183 42.857 39.2667V39.2658C42.8565 39.2654 42.8563 39.2651 42.8563 39.2649L42.8567 39.2643L42.857 39.264C42.8615 39.2558 42.8661 39.2475 42.8698 39.2393C42.8652 39.243 42.8606 39.2448 42.8551 39.2466C42.8496 39.1231 42.846 38.9988 42.846 38.8735C42.846 37.1668 43.4438 35.5982 44.4424 34.3653H44.4433C44.4607 34.3416 44.48 34.3178 44.5011 34.294C44.9485 33.7544 45.4758 33.2806 46.0626 32.8919C46.3946 32.6715 46.7458 32.4776 47.1126 32.3148C47.3336 32.216 47.56 32.1282 47.792 32.0532ZM42.7299 35.7249C42.9895 35.2949 43.1555 34.8036 43.2013 34.2767C43.0573 34.2922 42.9161 34.3179 42.7785 34.3508C42.197 34.4917 41.6742 34.7817 41.2523 35.1796C41.0248 35.3928 40.8276 35.638 40.6662 35.907C40.4094 36.3342 40.2452 36.8227 40.2003 37.3451C40.4589 37.3167 40.7084 37.2591 40.945 37.1759C40.9964 37.1585 41.0459 37.1393 41.0954 37.1182H41.0964C41.7806 36.8419 42.3538 36.3488 42.7299 35.7249ZM19.7216 22.0816C19.3346 22.248 18.9669 22.4502 18.6221 22.6843H18.6212C18.425 22.8178 18.2361 22.9605 18.0555 23.1133C17.7767 23.3492 17.5181 23.6071 17.2816 23.8843V23.8852C17.1779 24.0059 17.0789 24.1312 16.9845 24.2602C16.9542 24.3022 16.923 24.3434 16.8909 24.3836C15.8933 25.6696 14.3308 26.4973 12.5748 26.4973C12.5216 26.4973 12.4675 26.4964 12.4143 26.4946C12.1145 26.4863 11.8211 26.4534 11.535 26.3976C10.9142 26.2787 10.331 26.0546 9.80469 25.7437C11.0362 25.5086 12.1264 24.8785 12.9379 23.9894C12.9388 23.9876 12.9398 23.9867 12.9416 23.9849C13.1497 23.7571 13.3735 23.544 13.6119 23.3465C13.7797 23.2065 13.9548 23.0758 14.1364 22.9532C14.8993 22.4374 15.7759 22.0761 16.7213 21.9142C16.9698 21.8712 17.2247 21.8419 17.4824 21.8273C17.5787 21.8227 17.6758 21.8191 17.773 21.8182C17.8015 21.8172 17.8299 21.8172 17.8583 21.8172C17.8978 21.8172 17.9372 21.8172 17.9766 21.8182C18.5818 21.8291 19.1668 21.9197 19.7216 22.0816ZM13.8888 29.8449C14.1611 28.7995 14.6132 27.8282 15.2129 26.9639C14.4967 27.5044 13.8622 28.1492 13.3322 28.8745C12.8948 29.4717 12.5289 30.1248 12.2474 30.8199C12.1484 31.0595 12.0613 31.3055 11.9843 31.5552C11.7688 32.2485 11.6349 32.9774 11.5918 33.7311C11.5909 33.7347 11.5909 33.7384 11.5909 33.7421C11.5404 34.439 11.3479 35.1286 11.0123 35.7624C10.8023 36.1594 10.5373 36.5335 10.2164 36.8755H10.2154C10.1778 36.9158 10.1393 36.956 10.0999 36.9953C10.0238 37.0713 9.94586 37.1444 9.86608 37.2148C10.0816 37.1801 10.2952 37.1325 10.5061 37.0703C10.9738 36.9359 11.4249 36.7356 11.8476 36.4685C12.0127 36.3661 12.1731 36.2527 12.3281 36.1283C12.4831 36.0057 12.6335 35.8722 12.7774 35.7286C13.0773 35.4295 13.334 35.103 13.5467 34.7582C13.6531 34.5872 13.7485 34.4116 13.8328 34.2314C13.7861 34.0347 13.7466 33.8354 13.7146 33.6332C13.6357 33.1512 13.5944 32.6564 13.5944 32.1525C13.5944 31.3558 13.6962 30.583 13.8888 29.8458V29.8449Z" fill="#0B0B0B"/>
    </g>
    <defs>
        <linearGradient id="paint0_linear_673_48619" x1="0.199219" y1="30" x2="59.3767" y2="29.9131" gradientUnits="userSpaceOnUse">
            <stop stop-color="#95765C"/>
            <stop offset="1" stop-color="#DDBA8E"/>
        </linearGradient>
        <clipPath id="clip0_673_48619">
            <rect width="60" height="60" fill="white" transform="translate(0.199219)"/>
        </clipPath>
    </defs>
</svg>
