<svg xmlns="http://www.w3.org/2000/svg" width="1em" height="1em" viewBox="0 0 48 48">
    <path fill-rule="evenodd" clip-rule="evenodd"
          d="M19.6497 4.21785C18.8025 4.96218 18.1247 5.86142 17.7882 6.97852H17.7895C19.0361 5.90378 20.463 5.17035 21.9528 4.53737C22.1453 4.45507 22.3643 4.34372 22.4793 4.18154C23.0276 3.41059 23.5686 2.6348 24.0612 1.82874C24.3079 1.42477 24.5171 0.99768 24.7262 0.570635C24.8197 0.379724 24.9132 0.188822 25.01 0C24.3209 0.420659 23.745 0.891105 23.1736 1.35786C23.1088 1.41081 23.044 1.46371 22.9792 1.51649C22.6092 1.81664 22.2352 2.11209 21.8613 2.40754C21.1133 2.99842 20.3653 3.58931 19.6497 4.21785ZM34.8253 0.112558C34.346 1.26233 33.5497 2.14584 32.5875 2.82965C31.4144 3.66218 30.2044 4.44305 28.994 5.22422C28.5785 5.49236 28.1629 5.76055 27.7488 6.03086L27.6933 6.0671C26.3586 6.93842 25.0248 7.80919 24.0937 9.14856C23.9684 9.32813 23.8631 9.52137 23.7424 9.74288C23.6801 9.85729 23.6136 9.97924 23.5382 10.1107L25.1678 9.67082L27.2816 9.10015L27.2816 9.09996V9.09995C27.2852 9.06371 27.2889 9.02747 27.2913 8.99123C26.645 8.91861 25.9975 8.84599 25.1442 8.75038C25.2935 8.63942 25.4278 8.5176 25.5538 8.40337C25.8015 8.17868 26.0169 7.98332 26.2504 7.95764C28.2341 7.74342 30.1839 7.93465 32.1675 8.72859C31.8923 8.79588 31.6269 8.85664 31.3692 8.91565L31.3691 8.91568L31.369 8.91569C30.811 9.04348 30.2888 9.16306 29.7796 9.32285C29.0413 9.55522 28.3297 9.87232 27.5914 10.2596C35.9255 10.0478 41.3972 14.0938 44.6589 21.4983C41.4916 19.033 38.0035 17.5782 33.8958 17.9861C39.3264 19.2242 43.2513 22.1894 44.7025 27.7398C45.8704 32.2082 44.5609 36.2408 41.9951 39.9794C43.1218 34.3625 42.3025 29.3265 37.7748 25.3616C41.0534 30.7231 41.7046 36.1803 38.225 41.6896C35.8141 45.508 31.5382 47.6466 27.7948 48C30.4271 46.757 32.1494 44.8472 33.2253 42.2015C27.5963 46.8067 21.5194 47.8753 14.9463 44.7782C10.7708 42.8103 7.91215 38.7328 6.7769 34.4762C6.99791 34.734 7.21181 34.9882 7.4225 35.2385L7.42263 35.2387L7.42271 35.2388C7.85689 35.7547 8.2774 36.2543 8.7182 36.7359C10.5542 38.7389 12.6504 40.4018 15.2501 41.2853C19.9472 42.8805 23.9969 41.6109 27.5563 38.3552C27.5684 38.3443 27.5636 38.3165 27.5636 38.3225C27.2594 38.3756 26.9549 38.4381 26.6499 38.5007C25.9464 38.645 25.2403 38.7899 24.5294 38.8212C23.8338 38.8514 23.1329 38.7676 22.4196 38.6823L22.4195 38.6823C22.104 38.6445 21.786 38.6065 21.4649 38.5779C21.8382 38.3136 22.2049 38.0644 22.5632 37.821C23.3385 37.294 24.0745 36.7938 24.7533 36.2251C26.1318 35.0693 27.1606 33.6169 27.7633 31.908C28.7944 28.984 27.9944 26.4799 25.8994 24.3231C25.5138 23.926 25.0883 23.5683 24.636 23.188L24.6359 23.188L24.6359 23.1879C24.4197 23.0061 24.1973 22.8191 23.9702 22.6203C25.7869 22.6009 27.4389 22.8769 28.9845 23.689C30.582 24.5265 31.7112 25.8009 32.487 27.4082C33.241 28.9707 33.4783 30.6566 33.6707 32.3558C34.461 29.3688 34.1597 26.5501 32.3164 24C30.5155 21.5068 27.9364 20.2275 24.9034 19.4868C26.2105 18.4169 27.612 17.7864 29.0401 17.1946C27.5442 15.4808 21.6888 14.6421 19.209 15.8475C21.3681 16.0823 23.3966 16.3994 25.2423 17.6133C23.2356 18.9471 21.5775 20.5228 20.4011 22.6953H22.8761C22.6749 22.8736 22.4804 23.0356 22.2947 23.1903L22.2947 23.1903C21.9043 23.5156 21.5528 23.8084 21.2592 24.1513C21.1664 24.2591 21.0729 24.3668 20.9792 24.4747L20.9792 24.4747C20.3079 25.248 19.6275 26.0318 19.14 26.9144C18.3497 28.3425 18.6232 29.1655 19.923 30.1797C19.5261 30.7933 18.9354 30.9749 18.2468 31.0306C17.8643 31.062 17.4613 31.1504 17.1176 31.3162C15.5527 32.0678 14.0592 32.0218 12.4652 30.9567C12.5615 30.9385 12.6574 30.9208 12.7525 30.9032C13.8883 30.6931 14.9331 30.4999 15.6132 29.6266L15.3063 29.4477C14.8119 29.1595 14.3367 28.8825 13.8607 28.6064C13.8686 28.5737 13.8761 28.5413 13.8837 28.5089C13.8913 28.4766 13.8988 28.4442 13.9067 28.4115C15.3336 28.3086 16.5572 27.8269 17.4819 26.5707C17.2538 26.5947 17.0421 26.6168 16.8307 26.6388C16.5418 26.669 16.2534 26.6991 15.9243 26.734C16.6662 25.8977 16.6383 25.0033 16.5645 24.0859C16.5125 23.4445 16.5003 22.7958 16.5258 22.1519C16.5693 21.0312 17.1261 20.2578 18.1947 19.8729L18.6607 19.7035C17.0873 18.8188 14.5748 18.8575 13.1708 20.7927C12.9087 20.7688 12.6505 20.7434 12.395 20.7183C11.7728 20.6571 11.1665 20.5975 10.559 20.564C10.2674 20.5483 9.95632 20.6294 9.67433 20.7262C8.62743 21.082 8.28613 21.9365 8.78476 22.9374C8.8909 23.1513 9.01764 23.3554 9.15409 23.5751C9.22149 23.6837 9.29125 23.796 9.36207 23.9153C8.01502 23.902 6.97296 23.3634 6.10035 22.2814C5.5775 23.8233 5.83287 25.1474 6.68129 26.5343C5.32697 26.0986 4.29702 25.456 3.68461 24.2965C3.44256 23.839 3.18961 23.5219 2.64861 23.4336C2.18144 23.3585 1.95995 23.0838 2.00594 22.5368C2.1766 20.541 2.81805 18.895 4.0828 17.4838C4.09568 17.5535 4.10803 17.6178 4.11972 17.6786C4.14314 17.8006 4.16387 17.9085 4.18083 18.0176C4.33575 19.0402 4.91063 19.505 5.87039 19.148C7.03832 18.7135 8.19051 18.4097 9.45042 18.6517C9.46253 18.6021 9.47463 18.5525 9.48552 18.5017L9.17287 18.3007L9.17242 18.3004C8.89795 18.124 8.61709 17.9434 8.31154 17.7464C8.98204 17.0868 9.81714 16.8012 10.6994 16.7867C11.986 16.7649 12.8949 16.2469 13.471 15.102C13.966 14.1192 14.6946 13.3797 15.7911 13.0372C14.8471 12.8036 14.0519 13.1219 13.3475 13.6351C12.9502 13.9253 12.5722 14.2424 12.1943 14.5595L12.1942 14.5596C11.7998 14.8905 11.4053 15.2216 10.9887 15.5219C10.4598 15.9032 9.85466 16.1912 9.25799 16.4623C9.10758 16.531 8.91596 16.5091 8.76028 16.4914C8.69923 16.4844 8.64372 16.4781 8.59838 16.4781C8.89983 15.9764 9.19862 15.4742 9.49703 14.9728L9.49723 14.9724L9.49727 14.9723C10.1836 13.8189 10.8679 12.6689 11.5781 11.5353C12.2292 10.4968 13.1103 9.67746 14.3037 9.11468L14.1591 9.59829C14.0258 10.0442 13.9 10.4651 13.7748 10.8853L13.8934 10.9555C14.0366 10.8551 14.1763 10.7473 14.316 10.6395L14.316 10.6395C14.619 10.4058 14.9218 10.1721 15.2598 10.0139C16.7241 9.32863 17.9919 8.37572 19.2747 7.41149C19.383 7.33013 19.4913 7.24869 19.5999 7.16732C21.1997 5.96794 23.0761 5.28255 24.9464 4.59938C25.3541 4.45047 25.7615 4.30166 26.1657 4.14766C26.4368 4.0443 26.7082 3.94161 26.9797 3.83893C29.3652 2.93639 31.7502 2.03403 33.9333 0.678973C34.125 0.559959 34.3147 0.438477 34.5043 0.317049C34.6116 0.248312 34.7189 0.179593 34.8265 0.111348L34.8253 0.112558ZM20.6226 16.8714L20.55 17.0384C20.7695 17.1883 20.9885 17.3387 21.2009 17.4844L21.2011 17.4846C21.347 17.5847 21.4897 17.6826 21.6271 17.7767C21.48 18.1085 21.3389 18.4274 21.2009 18.7392L21.1997 18.7419C21.0406 19.1013 20.8856 19.4514 20.7303 19.8015C20.7678 19.8136 20.8053 19.8257 20.8416 19.8378C21.638 19.1213 22.4344 18.4048 23.3191 17.6097C22.7841 17.4628 22.2687 17.3219 21.7618 17.1832C21.3789 17.0785 21.0007 16.9751 20.6226 16.8714ZM3.76691 20.1126L3.58658 20.1489C3.53938 20.4127 3.49188 20.6762 3.44437 20.9398C3.39687 21.2033 3.34936 21.4669 3.30216 21.7307L3.44014 21.7622C3.5888 21.6043 3.73716 21.4464 3.8879 21.286L3.88876 21.2851C4.0347 21.1298 4.18289 20.9721 4.33575 20.8097C4.22634 20.6749 4.12098 20.5457 4.01763 20.4189L4.01658 20.4176C3.9328 20.3149 3.85034 20.2137 3.76812 20.1126H3.76691ZM12.348 24.6511L12.3448 24.6541C12.2786 24.6923 12.2093 24.7274 12.1399 24.7624C11.9847 24.841 11.8293 24.9195 11.7077 25.0336C11.0626 25.6387 10.4333 26.2608 9.81242 26.8914C8.94222 27.7749 8.67475 27.8306 7.61333 27.2883C7.49472 27.9722 7.85659 28.3909 8.59366 28.8109C8.38037 28.8986 8.18487 28.9882 8.00008 29.0728C7.61654 29.2485 7.27915 29.403 6.92467 29.4765C6.22814 29.6206 5.83422 29.1401 5.42024 28.6352C5.34724 28.5462 5.27361 28.4564 5.19759 28.3691L5.19305 28.4006C5.06874 29.2616 4.95141 30.0742 5.70591 30.5489C6.85932 31.275 7.89774 30.7486 8.85387 30.0091C9.18307 30.8272 9.0451 31.1044 7.83239 32.1198C9.05236 32.7528 10.1041 32.3461 10.4829 31.0475C10.6342 30.5307 10.7431 29.9752 10.7213 29.4427C10.6488 27.6383 10.9569 25.9922 12.3448 24.6541L12.348 24.6523V24.6511Z"
          fill="url(#paint0_linear_1_1213)"/>
    <defs>
        <linearGradient id="paint0_linear_1_1213" x1="2" y1="24" x2="44.5417" y2="23.9438"
                        gradientUnits="userSpaceOnUse">
            <stop stop-color="#95765C"/>
            <stop offset="1" stop-color="#DDBA8E"/>
        </linearGradient>
    </defs>
</svg>