<svg xmlns="http://www.w3.org/2000/svg" width="124" height="24" viewBox="0 0 124 24" fill="none">
    <path fill-rule="evenodd" clip-rule="evenodd" d="M28.3786 19.1221C29.2624 19.6131 30.2297 19.8586 31.2805 19.8586C32.2528 19.8586 33.0777 19.7015 33.7553 19.3873C34.4329 19.0632 35.081 18.5673 35.6997 17.8995C35.7292 17.8602 35.7881 17.8602 35.8765 17.8995C35.9649 17.9388 36.0385 17.9829 36.0975 18.032L36.2742 17.8111L34.0794 15.9698L33.8879 16.176C33.937 16.2054 33.9812 16.2545 34.0204 16.3233C34.0695 16.3822 34.0941 16.4362 34.0941 16.4853L34.0646 16.5442C33.6816 16.9665 33.2741 17.2857 32.842 17.5017C32.4099 17.708 31.8894 17.8111 31.2805 17.8111C30.6324 17.8111 30.0235 17.649 29.4539 17.325C28.8843 17.0009 28.4277 16.559 28.084 15.9992C27.7403 15.4296 27.5684 14.8011 27.5684 14.1137C27.5684 13.3968 27.7304 12.7486 28.0545 12.1692C28.3786 11.5898 28.8205 11.1381 29.3803 10.814C29.94 10.4801 30.5538 10.3132 31.2216 10.3132C31.8599 10.3132 32.4001 10.4212 32.842 10.6373C33.2937 10.8435 33.7258 11.1479 34.1383 11.5506C34.1776 11.58 34.1776 11.6291 34.1383 11.6979C34.1088 11.7568 34.0646 11.8059 34.0057 11.8452L34.1825 12.0661L36.2153 10.4605L36.0385 10.2395C35.8912 10.3279 35.7881 10.3721 35.7292 10.3721C35.6899 10.3721 35.6604 10.3623 35.6408 10.3426C35.0319 9.71413 34.3838 9.22802 33.6964 8.88431C33.0187 8.53077 32.184 8.354 31.1921 8.354C30.161 8.354 29.2133 8.5946 28.3491 9.07581C27.4849 9.54719 26.7975 10.2199 26.2868 11.0939C25.7762 11.9679 25.5208 12.9745 25.5208 14.1137C25.5208 15.1939 25.7762 16.176 26.2868 17.0598C26.7975 17.9338 27.4948 18.6213 28.3786 19.1221ZM44.5477 8.35417V10.7111H44.2678C44.2678 10.6423 44.253 10.5736 44.2236 10.5048C44.1941 10.4361 44.1548 10.4017 44.1057 10.4017H39.333V13.0091H43.1924C43.2415 13.0091 43.2808 12.9747 43.3103 12.9059C43.3397 12.8372 43.3545 12.7685 43.3545 12.6997H43.6344V15.0566H43.3545C43.3545 14.9879 43.3397 14.9191 43.3103 14.8504C43.2808 14.7816 43.2415 14.7473 43.1924 14.7473H39.333V19.2696C39.333 19.3187 39.3674 19.358 39.4361 19.3874C39.5147 19.4169 39.5932 19.4316 39.6718 19.4316V19.7115H37.0792V19.4316C37.1578 19.4316 37.2314 19.4169 37.3002 19.3874C37.3787 19.358 37.418 19.3187 37.418 19.2696V9.10543C37.418 9.05633 37.3787 9.01705 37.3002 8.98759C37.2314 8.95812 37.1627 8.94339 37.0939 8.94339V8.66351H44.1057C44.1548 8.66351 44.1941 8.62914 44.2236 8.5604C44.253 8.49165 44.2678 8.42291 44.2678 8.35417H44.5477ZM88.4081 19.9471C87.2689 19.9471 86.2476 19.6869 85.3441 19.1664C84.4504 18.6361 83.7532 17.9389 83.2523 17.0747C82.7613 16.2007 82.5158 15.2775 82.5158 14.3053C82.5158 13.3233 82.7515 12.3805 83.2229 11.477C83.6943 10.5637 84.3768 9.82228 85.2704 9.25269C86.1641 8.68311 87.21 8.39832 88.4081 8.39832C89.5767 8.39832 90.6029 8.66838 91.4868 9.2085C92.3706 9.74863 93.0482 10.4704 93.5196 11.3739C93.991 12.2676 94.2267 13.2447 94.2267 14.3053C94.2267 15.2481 93.991 16.1565 93.5196 17.0305C93.058 17.8947 92.3853 18.5968 91.5015 19.137C90.6177 19.6771 89.5865 19.9471 88.4081 19.9471ZM88.4228 18.0027C89.1593 18.0027 89.8173 17.8505 90.3967 17.5461C90.9859 17.2318 91.4426 16.7948 91.7667 16.235C92.1006 15.6654 92.2675 15.0222 92.2675 14.3053C92.2675 13.5491 92.1104 12.8715 91.7961 12.2725C91.4819 11.6734 91.0301 11.202 90.4409 10.8583C89.8517 10.5048 89.1544 10.328 88.3491 10.328C87.6126 10.328 86.9546 10.5048 86.3752 10.8583C85.8057 11.202 85.3588 11.6783 85.0347 12.2872C84.7107 12.8961 84.5486 13.5688 84.5486 14.3053C84.5486 15.0713 84.7352 15.7342 85.1084 16.2939C85.4914 16.8537 85.9775 17.2809 86.5667 17.5755C87.1658 17.8603 87.7845 18.0027 88.4228 18.0027ZM104.412 19.4316C104.187 19.4316 104.054 19.3972 104.015 19.3285L101.348 14.9093C102.085 14.7325 102.684 14.3839 103.146 13.8634C103.617 13.3429 103.853 12.6555 103.853 11.8011C103.853 10.878 103.519 10.1267 102.851 9.54733C102.193 8.95811 101.216 8.66349 99.9196 8.66349H95.4267V8.94338C95.4955 8.94338 95.5642 8.95811 95.633 8.98757C95.7115 9.01703 95.7508 9.05631 95.7508 9.10541V19.2696C95.7508 19.3187 95.7115 19.358 95.633 19.3874C95.5544 19.4169 95.4807 19.4316 95.412 19.4316V19.7115H98.0635V19.4316C97.9948 19.4316 97.9211 19.4169 97.8426 19.3874C97.764 19.358 97.7247 19.3187 97.7247 19.2696V15.0419H99.242L101.717 19.2106C101.756 19.2597 101.751 19.3088 101.702 19.358C101.653 19.4071 101.56 19.4316 101.422 19.4316V19.7115H104.412V19.4316ZM97.7247 13.2595V10.3723H100.185C100.686 10.3723 101.108 10.5146 101.452 10.7994C101.795 11.0744 101.967 11.4083 101.967 11.8011C101.967 12.2038 101.815 12.5475 101.51 12.8323C101.206 13.1171 100.749 13.2595 100.141 13.2595H97.7247ZM112.892 17.605V20.0208H112.612C112.612 19.9619 112.598 19.8932 112.568 19.8146C112.539 19.7459 112.5 19.7115 112.45 19.7115H105.453V19.4316C105.522 19.4316 105.591 19.4169 105.66 19.3874C105.738 19.3579 105.777 19.3187 105.777 19.2696V9.10541C105.777 9.05631 105.738 9.01703 105.66 8.98757C105.581 8.95811 105.507 8.94338 105.439 8.94338V8.66349H108.09V8.94338C108.021 8.94338 107.948 8.95811 107.869 8.98757C107.791 9.01703 107.751 9.05631 107.751 9.10541V17.9143H112.45C112.5 17.9143 112.539 17.88 112.568 17.8112C112.598 17.7327 112.612 17.6639 112.612 17.605H112.892ZM118.224 8.66349C119.324 8.66349 120.281 8.88936 121.096 9.3411C121.912 9.78302 122.54 10.4263 122.982 11.2708C123.434 12.1154 123.66 13.1171 123.66 14.2759C123.66 15.3856 123.419 16.3529 122.938 17.1778C122.466 17.9929 121.803 18.6214 120.949 19.0633C120.105 19.4954 119.137 19.7115 118.047 19.7115H114.07V19.4316C114.139 19.4316 114.207 19.4169 114.276 19.3874C114.355 19.358 114.394 19.3187 114.394 19.2696V9.10541C114.394 9.05631 114.355 9.01703 114.276 8.98757C114.207 8.95811 114.139 8.94338 114.07 8.94338V8.66349H118.224ZM117.767 17.9733C118.622 17.9733 119.348 17.8211 119.947 17.5166C120.556 17.2024 121.013 16.7654 121.317 16.2056C121.632 15.6458 121.789 14.9928 121.789 14.2464C121.789 13.0778 121.475 12.1448 120.846 11.4476C120.217 10.7503 119.25 10.4017 117.944 10.4017H116.324V17.9733H117.767ZM73.2502 19.3432C73.1422 19.2745 73.1127 19.1566 73.1618 18.9897L74.9295 11.5507L76.5351 18.9897C76.5744 19.1566 76.5351 19.2745 76.4173 19.3432C76.3093 19.4021 76.2012 19.4316 76.0932 19.4316V19.7115H79.3045V19.4316C79.2161 19.4316 79.1228 19.412 79.0246 19.3727C78.9362 19.3236 78.892 19.2401 78.892 19.1223C78.892 19.0732 78.8969 19.0339 78.9068 19.0044L81.6319 9.09068C81.6614 8.99248 81.7596 8.94338 81.9266 8.94338V8.66349H78.7889V8.94338C78.9166 8.94338 79.0344 8.97775 79.1425 9.04649C79.2603 9.11523 79.3094 9.17907 79.2898 9.23799L77.8462 16.4118L76.1669 9.3853C76.1178 9.21835 76.1521 9.10541 76.27 9.04649C76.3878 8.97775 76.5057 8.94338 76.6235 8.94338V8.66349H73.1176V8.94338C73.2158 8.94338 73.3189 8.96793 73.427 9.01703C73.535 9.06613 73.589 9.14961 73.589 9.26745C73.589 9.31655 73.5841 9.35583 73.5743 9.3853L71.8655 16.7654L70.0242 9.23799C70.0144 9.16925 70.0389 9.10541 70.0978 9.04649C70.1568 8.97775 70.2451 8.94338 70.363 8.94338V8.66349H67.4905V8.94338C67.6673 8.94338 67.7655 8.99248 67.7851 9.09068L70.5545 19.0044C70.5643 19.0339 70.5692 19.0732 70.5692 19.1223C70.5692 19.2401 70.5201 19.3236 70.4219 19.3727C70.3237 19.412 70.2304 19.4316 70.142 19.4316V19.7115H73.6037V19.4316C73.4859 19.4316 73.368 19.4021 73.2502 19.3432ZM60.1039 19.9323C59.603 19.9323 59.1169 19.8292 58.6456 19.623C58.184 19.4168 57.7175 19.1222 57.2461 18.7392C57.2265 18.7195 57.2019 18.7097 57.1725 18.7097C57.0939 18.7097 57.0105 18.7539 56.9221 18.8423L56.7158 18.6655L58.1889 16.9862L58.3951 17.1777C58.3559 17.2268 58.3215 17.2857 58.292 17.3545C58.2724 17.4232 58.2822 17.4772 58.3215 17.5165C58.6456 17.8111 58.9451 18.0321 59.22 18.1794C59.5048 18.3169 59.7995 18.3856 60.1039 18.3856C60.8601 18.3856 61.2381 18.1352 61.2381 17.6344C61.2381 17.4085 61.1203 17.2366 60.8846 17.1188C60.6587 16.9911 60.2757 16.8536 59.7356 16.7063C59.0384 16.5197 58.5326 16.2791 58.2184 15.9845C57.9041 15.6801 57.747 15.2676 57.747 14.7472C57.747 14.1285 57.9483 13.6276 58.3509 13.2446C58.7536 12.8518 59.3035 12.6554 60.0008 12.6554C60.3543 12.6554 60.6735 12.7094 60.9583 12.8174C61.2431 12.9255 61.5868 13.117 61.9894 13.3919C61.9992 13.4018 62.0189 13.4067 62.0483 13.4067C62.0974 13.4067 62.1465 13.3919 62.1956 13.3625C62.2447 13.333 62.2791 13.3035 62.2988 13.2741L62.5197 13.4656L61.194 14.9681L60.9877 14.7913C61.027 14.7521 61.0516 14.703 61.0614 14.644C61.081 14.5753 61.0712 14.5213 61.0319 14.482C60.8552 14.3445 60.6833 14.2414 60.5163 14.1727C60.3592 14.1039 60.1824 14.0695 59.986 14.0695C59.7798 14.0695 59.6178 14.1088 59.4999 14.1874C59.3821 14.2659 59.3232 14.3838 59.3232 14.5409C59.3232 14.6686 59.3575 14.7717 59.4263 14.8503C59.495 14.9288 59.6178 15.0074 59.7945 15.086C59.9811 15.1645 60.261 15.2627 60.6342 15.3806C61.3216 15.5868 61.8617 15.8765 62.2546 16.2497C62.6474 16.613 62.8438 17.0648 62.8438 17.6049C62.8438 18.4004 62.5934 18.9896 62.0925 19.3726C61.5917 19.7458 60.9288 19.9323 60.1039 19.9323ZM56.2459 8.94338H56.4227V8.66349H53.1672V8.94338C53.3538 8.94338 53.4471 8.98266 53.4471 9.06122C53.4471 9.07104 53.4373 9.09559 53.4177 9.13487L50.6041 12.7439L47.7464 9.12014C47.7365 9.11032 47.7218 9.09068 47.7022 9.06122C47.6825 9.03176 47.6727 9.01212 47.6727 9.0023C47.6727 8.96302 47.7316 8.94338 47.8495 8.94338V8.66349H44.9917V8.94338H45.1832C45.3109 8.94338 45.3944 8.96793 45.4336 9.01703L49.2636 14.2759L45.4336 19.358C45.3845 19.4071 45.2716 19.4316 45.0948 19.4316H44.9917V19.7115H48.2472V19.4316C48.1588 19.4316 48.0852 19.4218 48.0262 19.4021C47.9771 19.3727 47.9526 19.3432 47.9526 19.3138C47.9526 19.3039 47.9624 19.2794 47.982 19.2401L50.5894 15.8521L53.182 19.2401C53.2212 19.299 53.2409 19.3383 53.2409 19.358C53.2409 19.4071 53.182 19.4316 53.0641 19.4316V19.7115H56.187V19.4316H55.9808C55.8629 19.4316 55.7844 19.4071 55.7451 19.358L51.8709 14.158L55.9661 9.0023C55.9955 8.96302 56.0888 8.94338 56.2459 8.94338Z" fill="#AD8D65"/>
    <path fill-rule="evenodd" clip-rule="evenodd" d="M21.6818 5.02455C21.6818 4.51188 21.5394 4.14811 21.3932 3.9056C21.247 3.66309 21.148 3.56463 21.1008 3.51758C20.8132 3.23145 20.439 3.06558 20.1307 2.92896L20.1307 2.92895L20.1306 2.9289C20.0209 2.88028 19.9196 2.83537 19.8335 2.79005C19.0246 2.36391 18.5408 1.78894 18.5074 1.7492L18.5058 1.74726L18.504 1.74548C18.4878 1.72899 18.3661 1.60561 18.2737 1.23798C18.2162 1.00846 18.2102 0.838492 18.2057 0.708481V0.708458V0.708433V0.708408C18.2036 0.649977 18.2018 0.59962 18.1958 0.555558C18.1763 0.413446 18.03 0.26794 17.7863 0.364944C17.5806 0.467306 17.5857 0.725144 17.5901 0.950515L17.5901 0.950744C17.5907 0.982651 17.5914 1.01391 17.5914 1.04397C17.5914 1.205 17.6888 1.77151 18.0788 2.20803C18.1128 2.2461 18.1438 2.28122 18.1728 2.31394C18.4754 2.65633 18.5452 2.73535 19.3461 3.17807C19.5665 3.29997 19.7596 3.39309 19.9232 3.47196L19.9233 3.47197C20.1131 3.56348 20.2631 3.63579 20.3696 3.71159C20.4026 3.73504 20.4358 3.7576 20.4688 3.78006C20.7774 3.98988 21.0725 4.19057 21.0725 5.01776C21.0725 5.2137 21.0384 5.40189 20.975 5.5765C20.8585 5.48338 20.7245 5.41159 20.5787 5.366C20.4618 5.32865 20.3365 5.30877 20.2073 5.30877C20.0913 5.30877 19.9787 5.32477 19.8725 5.35533C19.716 5.3985 19.5727 5.47271 19.4484 5.5702C19.4479 5.56971 19.4479 5.56922 19.4479 5.56874C19.2593 5.70552 19.0273 5.78554 18.7763 5.78554C18.594 5.78554 18.4214 5.74335 18.2684 5.6672L18.2687 5.66779C18.2688 5.66826 18.2687 5.66881 18.2684 5.66914C18.1256 5.609 17.9759 5.56195 17.8204 5.52994C17.7844 5.52218 17.7483 5.51587 17.7118 5.51005C17.662 5.28015 17.5723 5.06529 17.4505 4.87225C17.41 4.80774 17.3662 4.74566 17.3184 4.68649C17.3013 4.66466 17.2838 4.6438 17.2653 4.62295L17.2567 4.61295L17.2497 4.605C17.2444 4.59906 17.2392 4.59312 17.2341 4.58706C17.1615 4.508 17.083 4.43476 16.9991 4.36783C16.9543 4.33193 16.908 4.29798 16.8597 4.26597C16.811 4.23348 16.7608 4.20292 16.7086 4.17479C16.4201 4.01667 16.0882 3.92646 15.7353 3.92646C15.5861 3.92646 15.4409 3.94246 15.301 3.97302H15.3005C15.2405 3.98611 15.1821 4.00164 15.125 4.02007C15.0329 4.04868 14.9437 4.08409 14.8579 4.12483C14.8038 4.06663 14.7473 4.01085 14.6888 3.95701C14.1127 3.4264 13.3416 3.10192 12.494 3.10192C12.2873 3.10192 12.0855 3.12132 11.89 3.15818C12.6524 3.31145 13.304 3.76786 13.7125 4.39596C13.5083 4.44349 13.2958 4.46871 13.0769 4.46871C12.374 4.46871 11.3565 3.88602 10.9632 3.66078C10.8803 3.61333 10.8252 3.58174 10.8065 3.57482C10.6676 3.50788 10.5253 3.44677 10.3795 3.39293C10.3211 3.37111 10.2621 3.35025 10.2026 3.33085C10.0037 3.26489 9.79903 3.21154 9.58993 3.17128C9.49537 3.15285 9.39983 3.13733 9.30332 3.12472C9.21559 3.11308 9.12688 3.10338 9.03817 3.0961C8.95921 3.08785 8.88268 3.07233 8.80908 3.04857C8.77691 3.03887 8.74474 3.02723 8.71355 3.01365C8.64044 2.98358 8.57122 2.94574 8.5064 2.90161C8.20615 2.69596 8.00972 2.35208 8.00972 1.96212C8.00972 1.86366 8.02239 1.76811 8.04579 1.67741L8.05164 1.65607C8.05651 1.63425 8.05895 1.61145 8.05895 1.58817C8.05895 1.48777 8.01118 1.39852 7.93661 1.34226C7.92296 1.33159 7.90834 1.32238 7.89323 1.31462C7.84985 1.29134 7.80013 1.27824 7.74749 1.27824C7.62759 1.27824 7.52377 1.34566 7.47161 1.4446C7.46771 1.45188 7.46381 1.46012 7.4604 1.46788C7.4448 1.50038 7.43067 1.53336 7.41751 1.56683C7.40581 1.59641 7.39509 1.626 7.38485 1.65607C7.32685 1.83068 7.29517 2.01741 7.29517 2.21142V2.2115C7.29517 2.22554 7.29517 2.23958 7.29565 2.25362C7.29663 2.28466 7.29809 2.31619 7.30053 2.34674V2.34771C7.32441 2.65813 7.42872 2.94574 7.59298 3.19019C7.61443 3.22221 7.63733 3.25373 7.66122 3.28429C7.53205 3.30951 7.3985 3.32309 7.26202 3.32309C7.25227 3.32309 7.24301 3.32309 7.23327 3.32261C7.1933 3.32212 7.15333 3.32067 7.11385 3.31776C7.03781 3.31242 6.96275 3.30272 6.88915 3.28914C6.47387 3.21299 6.10295 3.01122 5.81732 2.72554C5.44981 2.35887 5.22316 1.85299 5.22316 1.29425V1.27242C5.22072 1.08326 5.06572 0.930479 4.87514 0.930479C4.69772 0.930479 4.5515 1.0624 4.53005 1.23313C4.52908 1.24186 4.5281 1.25108 4.52762 1.26029C4.52031 1.34032 4.51689 1.42084 4.51689 1.5028C4.51689 2.23131 4.79667 2.8953 5.25533 3.39342C5.43909 3.59325 5.65209 3.7664 5.88702 3.90657C6.13707 4.05596 6.41246 4.16751 6.70539 4.23348C6.75706 4.24512 6.80872 4.2553 6.86137 4.26403C7.01393 4.28974 7.17039 4.30283 7.33026 4.30283C7.4487 4.30283 7.5652 4.29556 7.67974 4.28149H7.68023L7.73433 4.27422L7.76455 4.26985C7.94684 4.24318 8.13304 4.22766 8.32167 4.22426C8.35091 4.22378 8.38064 4.22329 8.40989 4.22329C8.61899 4.22329 8.82468 4.23784 9.02598 4.26597C9.06205 4.27034 9.09812 4.27616 9.1337 4.28198C9.38131 4.32223 9.62161 4.38286 9.85362 4.46241C10.2133 4.58512 10.5516 4.75293 10.8626 4.95858L10.8908 4.9775C11.5108 5.38734 12.24 5.64634 13.0262 5.70115C13.131 5.70891 13.2368 5.71279 13.3435 5.71279C13.382 5.71279 13.42 5.71231 13.4581 5.71134C13.5482 5.70891 13.6384 5.70406 13.7271 5.69582C13.8163 5.68903 13.905 5.67884 13.9928 5.66574C14.0464 5.65798 14.0995 5.64925 14.1521 5.63955C14.5528 5.56631 14.9345 5.43924 15.2893 5.26657C15.3619 5.23165 15.4409 5.2074 15.5242 5.19576C15.5496 5.19188 15.5749 5.18945 15.6012 5.18848L15.6013 5.18848C15.6134 5.188 15.6256 5.18751 15.6378 5.18751C15.8601 5.18751 16.0609 5.27724 16.2066 5.42178C16.2646 5.4795 16.3134 5.54594 16.3514 5.61918C16.3548 5.62549 16.3582 5.63179 16.3611 5.6381C16.366 5.6478 16.3704 5.6575 16.3748 5.66768C16.4181 5.76566 16.442 5.87382 16.442 5.9878C16.442 6.25796 16.3075 6.49659 16.1018 6.64112C16.0185 6.70029 15.9229 6.74395 15.8201 6.76723C15.7791 6.77693 15.7367 6.78323 15.6934 6.78614C15.6748 6.7876 15.6563 6.78808 15.6378 6.78808C15.4847 6.78808 15.3419 6.7454 15.2201 6.67168C15.0807 6.58728 14.9686 6.46166 14.9023 6.31131C14.7536 6.37776 14.6006 6.43596 14.4436 6.48592C14.3286 6.52278 14.2111 6.55479 14.0917 6.58243H14.0912C14.0279 6.59699 13.9635 6.61008 13.8992 6.62172H13.8987C13.8777 6.62609 13.8568 6.62948 13.8358 6.63288C13.8212 6.63579 13.8061 6.63821 13.791 6.64015C13.6701 6.65955 13.5477 6.6741 13.4235 6.68283C13.3133 6.69108 13.2017 6.69544 13.0891 6.69544C12.9716 6.69544 12.8546 6.69108 12.7396 6.68186C12.6134 6.67216 12.4881 6.65713 12.3653 6.63676C11.8106 6.54654 11.29 6.3535 10.825 6.07801C10.6111 5.95239 10.3898 5.8389 10.1612 5.73801H10.1607C9.90821 5.62694 9.64744 5.53188 9.37936 5.45427C9.11274 5.37667 8.83882 5.31604 8.55855 5.27336C8.39965 5.2496 8.23881 5.23116 8.0765 5.21904C7.91662 5.2074 7.75578 5.20109 7.59298 5.20109C7.45163 5.20109 7.31125 5.20546 7.17185 5.21467C7.00759 5.22535 6.84528 5.24232 6.68443 5.2656C6.17947 5.3369 5.69352 5.46785 5.23388 5.65071C5.18563 5.67011 5.13786 5.68951 5.09009 5.70988C5.09253 5.70649 5.09497 5.70358 5.09838 5.70018C4.82591 5.79379 4.53688 5.85248 4.23663 5.87042C4.21177 5.87236 4.18642 5.87382 4.16108 5.8743C4.11819 5.87624 4.07481 5.87721 4.03094 5.87721H4.02022C3.26618 5.87479 2.57161 5.61918 2.01888 5.19091C2.05056 5.26803 2.08517 5.3432 2.12221 5.41693L2.13245 5.43681C2.41856 5.99265 2.86065 6.45633 3.40071 6.77062C3.52305 6.84192 3.65027 6.90546 3.78236 6.96075C3.91006 7.0141 4.04166 7.0597 4.17668 7.09704C4.1991 7.10335 4.22152 7.10917 4.24394 7.1145H4.24443C4.28635 7.12517 4.32778 7.13487 4.37018 7.1436C4.59049 7.19065 4.81909 7.2149 5.05354 7.2149C5.66817 7.2149 6.24235 7.04709 6.73366 6.7551C6.73415 6.7551 6.73415 6.75462 6.73464 6.75462L6.73757 6.75292L6.74049 6.75122C6.74146 6.75025 6.74243 6.74977 6.7434 6.74928L6.74341 6.74928L6.74414 6.7488L6.74487 6.74831C6.75169 6.74395 6.75851 6.74007 6.76534 6.73619L6.76535 6.73619C6.82432 6.70029 6.88476 6.66634 6.94569 6.63433C7.40045 6.39279 7.90639 6.23467 8.44303 6.17938C8.44352 6.17938 8.44352 6.17938 8.44401 6.1789L8.49178 6.17453C8.61607 6.16338 8.74182 6.15756 8.86904 6.15756C9.00259 6.15756 9.13419 6.16386 9.26433 6.17647C10.0072 6.24729 10.6925 6.5155 11.2662 6.92922C10.8475 6.86278 10.418 6.83222 9.97986 6.84047C9.75418 6.84483 9.53095 6.85938 9.31063 6.88363C9.0991 6.90691 8.89 6.93941 8.68382 6.98064C8.19104 7.0791 7.71581 7.22751 7.26397 7.42007C7.17965 7.45596 7.0963 7.4933 7.01393 7.53211C6.91839 7.57721 6.82432 7.62378 6.73123 7.67276C6.50945 7.78917 6.29401 7.91721 6.08589 8.05544C6.05908 8.07291 6.03276 8.09037 6.00692 8.1088C5.82902 8.22957 5.65745 8.35761 5.49075 8.49439L5.49016 8.49451L5.48978 8.49487C5.33527 8.62146 5.18563 8.75388 5.04184 8.89211L5.04177 8.89236C5.04173 8.89244 5.04166 8.89252 5.04154 8.89256C5.04149 8.89258 5.04143 8.89259 5.04135 8.89259L5.04124 8.89292L5.04087 8.89308C4.97153 8.94654 4.82043 9.11149 4.73103 9.20909L4.71527 9.22629C4.5978 9.35433 4.48472 9.48626 4.37603 9.62255C4.30145 9.71567 4.22932 9.81074 4.15913 9.90726L4.15906 9.90735C4.13374 9.94273 4.10841 9.9781 4.08358 10.014C3.7224 10.5315 3.4241 11.0975 3.19941 11.7004C3.04733 12.1088 2.92889 12.5332 2.84798 12.9716V12.9721C2.76609 13.4135 2.72271 13.8684 2.72027 14.3331V14.3486C2.72027 14.4058 2.72076 14.4631 2.72174 14.5203C2.72953 14.9345 2.77048 15.3405 2.84115 15.7353C2.84993 15.7857 2.85968 15.8362 2.86991 15.8861V15.8866C2.93669 16.2232 3.02588 16.5511 3.13507 16.8693C3.13799 16.878 3.13945 16.8877 3.13945 16.8979C3.13945 16.9333 3.11996 16.9643 3.0912 16.9808C3.07706 16.9891 3.06049 16.9939 3.04294 16.9939C3.00346 16.9939 2.96983 16.9706 2.95424 16.9372C2.95326 16.9338 2.9518 16.9299 2.95033 16.9265L2.95014 16.926C2.95009 16.9259 2.95011 16.9257 2.95033 16.9255C2.89818 16.7844 2.83482 16.6461 2.76024 16.5128C2.49509 16.0602 2.34448 15.5592 2.30889 15.0519C2.30841 15.0514 2.30841 15.0509 2.30841 15.0509C2.30256 14.9651 2.29963 14.8792 2.30012 14.7938C2.27136 14.8317 2.24261 14.8705 2.2158 14.9093C2.07542 15.1086 1.96185 15.3206 1.87412 15.5408C1.71522 15.938 1.64211 16.361 1.65429 16.7824C1.65576 16.8411 1.65917 16.8998 1.66404 16.9585C1.68451 17.2025 1.73374 17.444 1.81173 17.6788C1.81612 17.6919 1.8205 17.7049 1.82489 17.7176C2.10954 18.5959 2.07104 19.5558 1.70986 20.4123C1.91116 20.2925 2.10077 20.1461 2.27429 19.9734C2.52092 19.728 2.71443 19.4491 2.85431 19.1518C2.98397 18.8758 3.06732 18.5843 3.10436 18.2879C3.10923 18.253 3.11313 18.2176 3.11606 18.1827V18.1798C3.11606 18.173 3.11654 18.1667 3.11801 18.1604V18.1599C3.12727 18.1162 3.16626 18.0833 3.21305 18.0833C3.26326 18.0833 3.30469 18.1211 3.30956 18.1701C3.31736 18.2593 3.3276 18.3481 3.34076 18.4359C3.39632 18.8389 3.49673 19.2284 3.63564 19.5985C4.13086 20.9206 5.11934 22.0037 6.37882 22.626C6.12049 22.2918 5.95623 21.8829 5.92406 21.4372C5.92017 21.3838 5.91822 21.3305 5.91822 21.2762C5.91822 21.0574 5.9499 20.8459 6.00936 20.6466C6.04933 20.5118 6.10197 20.3823 6.16582 20.2596C6.1629 20.3066 6.16192 20.3541 6.16192 20.4017C6.16192 20.5239 6.16972 20.6447 6.18483 20.763C6.29353 21.6021 6.77558 22.3248 7.45943 22.7613C7.49891 22.7865 7.53936 22.8108 7.58031 22.8341C7.79574 22.9587 8.01947 23.0712 8.25099 23.1697C8.25148 23.1702 8.25148 23.1702 8.25197 23.1702C8.44157 23.2512 8.63556 23.323 8.83492 23.385H8.8354C9.42128 23.5684 10.0442 23.6668 10.6905 23.6668C12.4701 23.6668 14.0737 22.9199 15.202 21.7238C15.2196 21.7059 15.2367 21.6875 15.2532 21.669L15.2649 21.6567L15.2751 21.6457L15.2854 21.6341C15.3015 21.6171 15.3171 21.5997 15.3322 21.5822C15.3332 21.5808 15.3341 21.5798 15.3351 21.5788C15.725 21.1311 16.0165 20.5966 16.1759 20.0083C16.2675 19.6741 16.3158 19.323 16.3158 18.9602C16.3158 18.8394 16.3104 18.7201 16.2997 18.6022L16.2973 18.5761L16.2948 18.5528C16.27 18.3044 16.2222 18.0629 16.153 17.8306C16.1052 17.6671 16.0467 17.508 15.9785 17.3543C15.977 17.3504 15.9756 17.3465 15.9731 17.3426C15.941 17.2694 15.9068 17.1976 15.8698 17.1273C15.7343 16.8659 15.5705 16.6214 15.3824 16.3973C15.1645 16.1369 14.9135 15.905 14.6362 15.7067L14.6359 15.7065C14.6116 15.6896 14.5873 15.6727 14.563 15.6562C14.5377 15.6383 14.5119 15.6213 14.486 15.6048C14.295 15.4806 14.0927 15.3725 13.8807 15.2823C13.8441 15.2663 13.8071 15.2512 13.77 15.2367C13.4961 15.129 13.2075 15.0504 12.9078 15.0048L12.9009 15.0039C12.8982 15.0035 12.8955 15.0032 12.8927 15.0029C12.7518 14.9816 12.608 14.968 12.4628 14.9626C12.453 14.9617 12.4428 14.9612 12.433 14.9617C12.3872 14.9597 12.3409 14.9588 12.2946 14.9588C12.0957 14.9588 11.8998 14.9733 11.7087 15.001L11.6945 15.003L11.6819 15.0048C11.6342 15.0121 11.5869 15.0204 11.5396 15.0296L11.5271 15.0278L11.5177 15.0262C11.4909 15.0293 11.4637 15.032 11.4369 15.0346L11.4294 15.0354C11.4114 15.0368 11.3934 15.0383 11.3753 15.0393C11.2671 15.048 11.157 15.0524 11.0463 15.0524C10.9157 15.0524 10.787 15.0465 10.6598 15.0349L10.6286 15.032C10.1388 14.984 9.67717 14.8521 9.26287 14.6532C9.20145 14.6241 9.14102 14.5931 9.08155 14.5601C8.96018 14.4941 8.84369 14.4218 8.73207 14.3442C8.71501 14.3326 8.69844 14.321 8.68236 14.3088C8.67846 14.3064 8.67504 14.304 8.67114 14.3011C8.58049 14.2351 8.49324 14.1657 8.41038 14.0925C8.36797 14.0556 8.32654 14.0173 8.28657 13.9785C8.08332 13.7826 7.90639 13.5653 7.76114 13.3301C7.69631 13.2253 7.63733 13.1171 7.58616 13.0056C7.58079 12.9954 7.57592 12.9847 7.57153 12.9745C7.55252 12.9333 7.53449 12.8911 7.51792 12.8489C7.49842 12.8019 7.48087 12.7538 7.4643 12.7058C7.4219 12.5817 7.38729 12.4546 7.36146 12.3246L7.34659 12.3285L7.33172 12.3324L7.34315 12.3249C7.34846 12.3214 7.35382 12.3178 7.35951 12.3144C7.33367 12.1839 7.31661 12.0501 7.30882 11.9148C7.30735 11.8891 7.30638 11.8629 7.30589 11.8372C7.30443 11.8066 7.30394 11.776 7.30394 11.745C7.30394 11.3633 7.37705 10.9961 7.51256 10.6552C7.5418 10.58 7.57446 10.5058 7.61053 10.433C7.63733 10.3782 7.66561 10.3239 7.69582 10.2705C7.76991 10.1396 7.85326 10.0135 7.94587 9.89319C8.01703 9.80007 8.09356 9.71034 8.17495 9.62449C8.31533 9.47559 8.47082 9.33784 8.63898 9.21319C8.8125 9.08417 8.99918 8.96874 9.19756 8.86931C9.25848 8.83827 9.32087 8.80917 9.38424 8.78152C9.62551 8.6753 9.88189 8.59188 10.1495 8.53416C10.1631 8.53077 10.1763 8.52786 10.1899 8.52543C10.4648 8.4682 10.7519 8.43813 11.0463 8.43813C11.3164 8.43813 11.5796 8.46335 11.833 8.51185H11.8345L11.8345 8.51185C11.8442 8.51331 11.854 8.51476 11.8632 8.51767C11.9373 8.53756 11.9929 8.60109 12.0012 8.6787L12.0018 8.68889C12.002 8.69228 12.0022 8.69567 12.0022 8.69907C12.0022 8.79607 11.9281 8.8761 11.833 8.8858C11.4909 8.91248 11.1628 8.98378 10.8562 9.09291C10.5784 9.19185 10.3191 9.32135 10.0822 9.47801H10.0817C10.0193 9.51876 9.9589 9.56144 9.89992 9.60606C9.84095 9.6502 9.78392 9.69627 9.72884 9.74429C9.67571 9.7894 9.62453 9.83644 9.5753 9.88543C9.35548 10.0998 9.16929 10.3423 9.02404 10.6062C8.95287 10.7352 8.89146 10.8691 8.84077 11.0078C8.76278 11.2183 8.71014 11.4394 8.68528 11.6674L8.69405 11.6747C8.69064 11.6756 8.68723 11.6771 8.68431 11.6781C8.67358 11.776 8.66822 11.875 8.66822 11.9749C8.66822 12.0258 8.66968 12.0763 8.67212 12.1267L8.67213 12.1269C8.67408 12.1559 8.67602 12.185 8.67846 12.214C8.68431 12.2843 8.69308 12.3542 8.70429 12.4235C8.72086 12.5269 8.74328 12.6282 8.77107 12.7277C8.78081 12.7631 8.79154 12.7975 8.80275 12.8319V12.8324C8.81737 12.879 8.83346 12.9246 8.85052 12.9702H8.851C8.8583 12.99 8.86608 13.0099 8.87386 13.0297L8.87391 13.0298H8.8744C8.89194 13.0735 8.91095 13.1171 8.93094 13.1598C8.9363 13.1719 8.94166 13.1836 8.94751 13.1952C8.97237 13.1331 8.99869 13.0715 9.02647 13.0109C9.03427 12.993 9.04256 12.9755 9.05133 12.9576C9.10738 12.8397 9.16928 12.7247 9.23606 12.6137C9.24986 12.5903 9.26422 12.5675 9.27851 12.5448L9.27851 12.5448L9.29163 12.5239H9.29211C9.35353 12.4274 9.41884 12.3338 9.48854 12.2436C9.50804 12.2174 9.52851 12.1917 9.54898 12.1665L9.54894 12.1665C9.54164 12.1655 9.53434 12.1645 9.52705 12.1641C9.54311 12.1534 9.55966 12.1432 9.5762 12.1331L9.57624 12.133L9.57628 12.133C9.65816 12.0336 9.74444 11.938 9.83558 11.8473C9.85216 11.8304 9.86873 11.8139 9.88628 11.7974C9.91406 11.7702 9.94184 11.744 9.97011 11.7188C10.033 11.6606 10.0978 11.6053 10.1646 11.552C10.2518 11.4816 10.342 11.4152 10.4351 11.3526H10.4361C10.4361 11.3526 10.4366 11.3526 10.4366 11.3521C10.654 11.2057 10.885 11.0796 11.1297 10.9772V10.9767C11.1628 10.9631 11.1965 10.9496 11.2306 10.9365C11.3344 10.8962 11.4402 10.8598 11.5479 10.8283C11.8038 10.7531 12.0704 10.7022 12.3453 10.6794C12.3906 10.675 12.436 10.6721 12.4818 10.6697C12.4813 10.6687 12.4808 10.6678 12.4803 10.6663H12.4974C12.5271 10.6663 12.5568 10.6663 12.5861 10.6658H12.5871C12.6758 10.6644 12.7635 10.661 12.8507 10.6552C12.8807 10.6542 12.9102 10.6519 12.9401 10.6495L12.9424 10.6493C13.2592 10.6261 13.5687 10.5771 13.8694 10.5043C14.0615 10.4582 14.2501 10.4029 14.4339 10.338C14.5055 10.3132 14.5762 10.287 14.6459 10.2594C14.5962 10.3249 14.545 10.3894 14.4924 10.4529C14.3608 10.6115 14.2209 10.7633 14.0737 10.9069C14.0279 10.952 13.9811 10.9961 13.9338 11.0398C13.6633 11.2867 13.3689 11.5093 13.0545 11.7018C13.0179 11.7251 12.9809 11.7474 12.9438 11.7683C12.8234 11.8396 12.7001 11.906 12.5739 11.9676C12.5125 11.9982 12.4501 12.0278 12.3872 12.0559L12.381 12.0586L12.381 12.0587C12.3751 12.0613 12.3691 12.0639 12.3633 12.0661C12.2897 12.0991 12.2152 12.1306 12.1396 12.1602C11.9934 12.2179 11.8442 12.2698 11.6922 12.3159C11.427 12.3964 11.154 12.458 10.8748 12.5002C10.8518 12.5036 10.8289 12.507 10.806 12.5099C10.7773 12.5142 10.7485 12.5181 10.7198 12.5215C10.6393 12.5317 10.5579 12.54 10.4765 12.5463C10.4765 12.5467 10.4765 12.5467 10.476 12.5463L10.4673 12.547C10.447 12.5487 10.4273 12.5503 10.4068 12.5516C10.3981 12.5526 10.3893 12.553 10.3805 12.553C10.2933 12.5594 10.2055 12.5632 10.1173 12.5647C10.1748 12.5899 10.2333 12.6142 10.2923 12.6374C10.3103 12.6447 10.3284 12.6515 10.3469 12.6583L10.3509 12.6592L10.364 12.6621L10.3737 12.6646C10.3912 12.669 10.4088 12.6738 10.4263 12.6787C10.4429 12.683 10.459 12.6874 10.4751 12.6923C10.5862 12.7247 10.6949 12.764 10.7997 12.8101C10.8007 12.8106 10.8016 12.8111 10.8031 12.8111C11.1121 12.9003 11.4324 12.9634 11.7609 12.9988C11.795 13.0027 11.8296 13.0061 11.8647 13.0085H11.8652L11.8667 13.0069L11.8676 13.0056C11.8696 13.0065 11.8715 13.0075 11.8735 13.0095C12.0387 13.0245 12.2054 13.0318 12.3745 13.0318C12.4598 13.0318 12.5446 13.0298 12.629 13.0259C12.8551 13.0162 13.0779 12.993 13.2962 12.9566C13.316 12.954 13.3357 12.9507 13.3555 12.9473L13.3752 12.944C13.5234 12.9173 14.0225 12.7897 14.1244 12.7568C14.2423 12.7184 14.3583 12.6767 14.4729 12.6307C14.5421 12.6035 14.6103 12.5749 14.6781 12.5448C15.0076 12.3983 15.3205 12.2213 15.6129 12.0166C15.6276 12.0069 15.6422 11.9967 15.6568 11.9861C15.6612 11.9831 15.6656 11.9802 15.67 11.9764C15.8952 11.8158 16.1077 11.6388 16.3065 11.4462C16.4571 11.3017 16.6 11.1475 16.734 10.9864C16.7506 10.9665 16.7667 10.9471 16.7822 10.9273C17.0162 11.0674 17.1732 11.3225 17.1732 11.614C17.1732 11.6315 17.1727 11.649 17.1712 11.6664C17.1658 11.7508 17.1473 11.8313 17.1176 11.9065C17.0611 12.0511 16.9631 12.1747 16.8383 12.264C16.7603 12.3198 16.6843 12.3784 16.6107 12.44C16.481 12.5477 16.3587 12.6641 16.2446 12.7878C16.0477 13.0012 15.8752 13.2374 15.7309 13.4916C15.6831 13.576 15.6383 13.6623 15.5969 13.7511C15.4458 14.0721 15.3385 14.4184 15.2825 14.7808C15.4872 14.5853 15.7094 14.4083 15.9468 14.2521C16.0957 14.154 16.255 14.0729 16.415 13.9915L16.415 13.9914C16.4892 13.9537 16.5635 13.9158 16.637 13.8762C16.9577 13.703 17.6089 13.5677 17.6698 13.5566H17.6703C17.9618 13.5066 18.2435 13.4295 18.5136 13.3281C18.9274 13.1734 19.3134 12.9619 19.6619 12.7034C19.8481 12.5657 20.0236 12.4143 20.1873 12.2514C20.2614 12.1772 20.3336 12.1 20.4028 12.021C20.4028 12.0205 20.4033 12.02 20.4038 12.0195L20.4047 12.0186C20.4096 12.0137 20.4135 12.0089 20.4179 12.0035L20.4242 11.9962L20.4306 11.989C20.4671 11.9439 20.4973 11.8929 20.5188 11.8381C20.5451 11.7726 20.5592 11.7014 20.5592 11.6267C20.5592 11.4346 20.4647 11.2643 20.3194 11.1596C20.4257 11.0146 20.4876 10.8366 20.4876 10.6435C20.4876 10.19 20.1435 9.81656 19.7009 9.76806C19.8569 9.93393 19.9514 10.1566 19.9514 10.401C19.9514 10.5669 19.9081 10.7226 19.831 10.8574C19.7911 10.9287 19.7414 10.9937 19.6848 11.0514C19.6832 11.0527 19.6818 11.0542 19.6804 11.0557L19.678 11.0582C19.6302 11.1043 19.5639 11.1334 19.4913 11.1334C19.3436 11.1334 19.2232 11.0136 19.2232 10.8666C19.2232 10.8574 19.2237 10.8482 19.2247 10.8395C19.2257 10.8303 19.2271 10.8215 19.2286 10.8128C19.234 10.7711 19.2364 10.7279 19.2364 10.6843C19.2364 10.4272 19.1423 10.1925 18.9859 10.0115C18.9293 9.94509 18.864 9.88592 18.7919 9.83644C18.6851 9.76175 18.5633 9.70646 18.4322 9.67639C18.4205 9.6856 18.4092 9.6953 18.398 9.70549V9.70597C18.4409 9.80928 18.4716 9.91841 18.4887 10.0319C18.4999 10.1022 18.5053 10.1745 18.5053 10.2477C18.5053 10.4253 18.4726 10.595 18.4127 10.7517C18.3079 10.644 18.1982 10.5407 18.0841 10.4413C18.0393 10.4029 17.994 10.3646 17.9481 10.3278C17.9228 10.3069 17.8975 10.2865 17.8716 10.2662C17.7361 10.1595 17.5953 10.0586 17.45 9.96497C17.4398 9.9577 17.4291 9.95091 17.4188 9.9446C17.3905 9.92666 17.3628 9.9092 17.3345 9.89174C16.9772 9.67202 16.5931 9.49111 16.1886 9.35433C16.1301 9.33493 16.0706 9.31602 16.0112 9.29855C15.8328 9.24423 15.6505 9.19864 15.4648 9.16275C15.415 9.15305 15.3644 9.14383 15.3137 9.13559C15.2795 9.12977 15.2449 9.12395 15.2103 9.11958C14.9369 9.07836 14.6566 9.0575 14.3715 9.0575C14.3091 9.0575 14.2467 9.05847 14.1848 9.06089L14.1858 9.0606L14.1868 9.05992C14.1814 9.06041 14.176 9.06041 14.1707 9.06041C13.8504 9.06041 13.5911 8.80189 13.5911 8.48323C13.5911 8.46141 13.5921 8.44007 13.5945 8.41921C13.6194 8.19756 13.7695 8.01422 13.9733 7.94098C14.0342 7.91915 14.0995 7.90703 14.1677 7.90654H14.1746L14.2467 7.90703L14.3188 7.90751C14.507 7.90848 14.6951 7.90994 14.8823 7.91188C15.0227 7.91285 15.1621 7.9143 15.3015 7.91576C15.3024 7.91368 15.3034 7.91179 15.3045 7.90997L15.3063 7.90654C15.3219 7.90994 15.338 7.91333 15.3541 7.91624H15.3624L15.7046 7.92061L15.8809 7.92326L16.0594 7.92594H16.1735C16.2281 7.92594 16.3251 7.92934 16.3796 7.93128L16.4118 7.93176L16.444 7.93225C16.7749 7.93807 17.1044 7.94486 17.4315 7.95311C17.568 7.95602 17.7035 7.95941 17.839 7.96281L17.9969 7.96717C18.0798 7.96911 18.1626 7.97154 18.245 7.97396L18.2455 7.97445C18.2469 8.09619 18.2391 8.2155 18.2226 8.33239C18.2006 8.4939 18.1626 8.65008 18.11 8.79995C18.0963 8.83924 18.0817 8.87756 18.0661 8.91587C18.1061 8.89453 18.1451 8.87271 18.1836 8.84991C18.322 8.76843 18.4521 8.67579 18.574 8.57248C18.7709 8.40612 18.9449 8.21356 19.0907 8.00015C19.1209 7.96572 19.1265 7.96281 19.1293 7.96135L19.13 7.96096C19.1322 7.95965 19.1338 7.95724 19.1511 7.93128C19.164 7.91204 19.176 7.89343 19.1874 7.87563C19.2661 7.75342 19.3204 7.66909 19.4786 7.67713C19.6341 7.68489 19.7555 7.81487 19.7555 7.9696V7.97251C19.7555 7.98269 19.755 7.99288 19.754 8.00306C19.754 8.01034 19.754 8.01713 19.7531 8.02392C19.7379 8.33579 19.6639 8.63213 19.541 8.90229C19.9514 8.7175 20.3014 8.42261 20.5529 8.05593C20.6479 7.91721 20.7289 7.76783 20.7937 7.61068L20.7942 7.6102C20.9687 7.5161 21.1178 7.38078 21.2285 7.21733C21.361 7.02235 21.4381 6.78711 21.4381 6.53345C21.4381 6.39958 21.4166 6.27057 21.3762 6.1498C21.5706 5.8195 21.6818 5.43487 21.6818 5.02455ZM9.27749 23.1867H9.2731C9.27505 23.1867 9.27652 23.1867 9.27798 23.1862C9.27749 23.1862 9.27749 23.1867 9.27749 23.1867ZM9.10153 16.5283L9.10155 16.5283C9.103 16.5346 9.10446 16.5409 9.10641 16.5472L9.0952 16.536C9.09715 16.5331 9.0991 16.5307 9.10153 16.5283ZM7.60224 17.2694C7.74798 17.4358 7.88348 17.5362 7.88348 17.5362C7.88728 17.5355 7.92356 17.5635 7.97018 17.5994L7.97019 17.5994L7.97027 17.5995C8.02517 17.6418 8.09438 17.6951 8.14181 17.7258H8.1423C8.1808 17.751 8.21882 17.7748 8.25879 17.7976C8.27098 17.8053 8.28316 17.8121 8.29583 17.8189C8.33678 17.8422 8.37821 17.8645 8.42061 17.8849C8.5566 17.9533 8.69941 18.0105 8.84759 18.0556C9.11031 18.1366 9.3896 18.1803 9.67912 18.1803C9.75809 18.1803 9.83656 18.1769 9.91357 18.1706C9.92283 18.1701 9.93209 18.1691 9.94135 18.1681C10.0398 18.1594 10.1373 18.1453 10.2323 18.1264C10.1661 18.0813 10.1017 18.0333 10.0398 17.9829C9.93599 17.8975 9.83802 17.8053 9.74785 17.7069H9.74736C9.69667 17.6516 9.64793 17.5944 9.60162 17.5352C9.59531 17.5272 9.58899 17.5189 9.58267 17.5105C9.58024 17.5073 9.5778 17.5041 9.57537 17.5008L9.5753 17.5008C9.55434 17.4731 9.53387 17.4455 9.51438 17.4168C9.49147 17.3853 9.47002 17.3528 9.44906 17.3198C9.44126 17.3082 9.43347 17.2961 9.42615 17.2835C9.36669 17.1874 9.31258 17.0875 9.26531 16.9842C9.20048 16.8445 9.14735 16.6985 9.1069 16.5477C9.12493 16.5647 9.14345 16.5816 9.16246 16.5981V16.5986C9.25751 16.6845 9.35938 16.764 9.46612 16.8363C9.57238 16.9085 9.68449 16.974 9.80098 17.0313L9.80827 17.0259C9.81559 17.0205 9.8229 17.0151 9.83022 17.0089C9.82437 17.0182 9.81804 17.0269 9.81121 17.0361L9.82033 17.0406C9.98636 17.1218 10.1383 17.1961 10.3776 17.2437C10.5837 17.2847 10.8246 17.291 11.1968 17.3008H11.1968H11.1968C11.2648 17.3026 11.3371 17.3045 11.4143 17.3067C11.5113 17.3097 11.6064 17.3145 11.699 17.33C11.7419 17.3368 11.7848 17.3455 11.8267 17.3562H11.8272C12.3609 17.4862 12.7976 17.8626 13.0087 18.3573C13.0491 18.4524 13.0813 18.5518 13.1042 18.6546C13.1149 18.7041 13.1242 18.7545 13.1305 18.8055C13.1403 18.8787 13.1451 18.9534 13.1451 19.0291C13.1451 19.4234 13.0121 19.7867 12.7879 20.0767C12.5412 20.3968 12.1844 20.6282 11.7736 20.714L11.7721 20.73H11.7716C11.698 20.7368 11.6234 20.7422 11.5489 20.7465L11.5487 20.7465C11.5336 20.7475 11.5186 20.7485 11.5035 20.7489L11.5013 20.7492L11.4991 20.7494C11.4182 20.7533 11.3363 20.7567 11.2545 20.7582C10.9323 20.7645 10.614 20.7494 10.302 20.7145C9.67327 20.6442 9.06693 20.4938 8.4947 20.2727C7.93271 20.0558 7.40289 19.7711 6.91498 19.4282C6.81994 19.3618 6.72684 19.2929 6.63521 19.2221C6.58403 19.1823 6.53334 19.1421 6.48313 19.1013L6.473 19.093L6.44268 19.0679C6.12049 18.8006 5.82024 18.5062 5.54632 18.188C5.40253 18.0217 5.26605 17.8485 5.13689 17.6691C5.03648 17.5299 4.94095 17.3868 4.85029 17.2403C4.83176 17.2107 4.81373 17.1811 4.7957 17.1515C4.70942 17.0085 4.62802 16.8629 4.55101 16.714V16.7136C4.28586 16.198 4.07676 15.6475 3.93297 15.0693V15.0689C3.92176 15.0237 3.91103 14.9777 3.9008 14.9321L3.89787 14.9195C3.893 14.8991 3.88861 14.8787 3.88423 14.8584C3.88033 14.8414 3.87691 14.8249 3.8735 14.8079C3.87253 14.8055 3.87204 14.8031 3.87155 14.8002C3.86229 14.756 3.85352 14.7119 3.84523 14.6673L3.84638 14.6676L3.84816 14.6677C3.8194 14.4893 3.80478 14.3064 3.80478 14.1202C3.80478 13.9853 3.81258 13.8524 3.82768 13.7215C3.84669 13.5566 3.87691 13.3955 3.91835 13.2384C4.09625 12.5628 4.47302 11.9676 4.98335 11.5195L4.98042 11.5093L4.98236 11.5088C4.98796 11.5075 4.99321 11.5063 4.99846 11.5059L4.99895 11.5054C5.00577 11.4991 5.01308 11.4928 5.02039 11.487C5.03208 11.4768 5.04377 11.4671 5.05546 11.4574L5.05549 11.4574C5.17783 11.355 5.30699 11.2614 5.4425 11.177C5.37133 11.2697 5.30456 11.3652 5.24168 11.4642C5.21829 11.5006 5.19586 11.5379 5.17344 11.5752C5.16321 11.5922 5.15346 11.6092 5.14371 11.6267C5.11885 11.6698 5.09497 11.7135 5.07206 11.7576C4.78741 12.3028 4.62461 12.9207 4.62071 13.5764C4.62023 13.5852 4.62022 13.5944 4.62022 13.6031C4.62022 13.705 4.62412 13.8054 4.63143 13.9048V13.9053C4.63485 13.9494 4.63875 13.9936 4.64411 14.0372C4.66653 14.2506 4.7065 14.4592 4.76255 14.6614C4.81275 14.8448 4.87563 15.0233 4.95118 15.1954C5.29822 15.9919 5.89774 16.6544 6.64983 17.0822C6.51384 16.6806 6.44024 16.2509 6.44024 15.8037C6.44024 15.5422 6.46558 15.2871 6.51384 15.0398C6.53104 15.069 6.63962 15.3681 6.69323 15.5158L6.69328 15.516L6.69333 15.5161L6.69334 15.5161C6.70805 15.5567 6.71861 15.5857 6.72197 15.5946C6.73417 15.627 6.74706 15.6618 6.76071 15.6986L6.76091 15.6991L6.76102 15.6994C6.91093 16.1038 7.15314 16.7572 7.60224 17.2694ZM9.32769 12.1447C9.32672 12.1442 9.32575 12.1437 9.32526 12.1432L9.32677 12.1433L9.32818 12.1437C9.32818 12.1437 9.32721 12.1442 9.32769 12.1447ZM9.76832 11.4186C9.76783 11.4176 9.76734 11.4166 9.76637 11.4157L9.77124 11.4147C9.77076 11.4157 9.76978 11.4171 9.76832 11.4186ZM20.1922 13.0899C20.1742 13.3111 20.1401 13.5279 20.0918 13.7394C20.0635 13.8631 20.0304 13.9853 19.9919 14.1046V14.1056C19.8749 14.4756 19.7131 14.8258 19.5123 15.1498C19.4543 15.2434 19.3929 15.3351 19.3285 15.4248C18.9332 15.9685 18.653 16.6005 18.5233 17.2854C18.4921 17.4459 18.4697 17.6098 18.4565 17.7757C18.4458 17.9033 18.4404 18.0318 18.4404 18.1618C18.4404 18.2961 18.4463 18.4295 18.4575 18.5615C18.4736 18.7555 18.5023 18.9461 18.5418 19.1328C18.553 19.1857 18.5652 19.2376 18.5784 19.2895C18.5253 19.2327 18.4746 19.1745 18.4258 19.1149H18.4253C18.3459 19.0179 18.2708 18.917 18.2011 18.8122C18.0008 18.513 17.8424 18.1836 17.7332 17.833C17.6806 17.6632 17.6396 17.4886 17.6109 17.3101C17.5899 17.1806 17.5758 17.0487 17.5689 16.9153V16.9148L17.5686 16.9143L17.5689 16.9138L17.572 16.9083C17.5733 16.9058 17.5746 16.9033 17.5758 16.9007C17.5733 16.9027 17.5709 16.9037 17.568 16.9046C17.565 16.8391 17.5631 16.7732 17.5631 16.7067C17.5631 15.8017 17.8809 14.9699 18.4117 14.3161H18.4122C18.4214 14.3035 18.4317 14.2908 18.4429 14.2782C18.6807 13.9921 18.961 13.7408 19.2729 13.5347C19.4494 13.4178 19.6361 13.315 19.831 13.2286C19.9485 13.1763 20.0689 13.1297 20.1922 13.0899ZM17.501 15.0365C17.639 14.8085 17.7273 14.548 17.7516 14.2686C17.6751 14.2768 17.6 14.2904 17.5269 14.3079C17.2178 14.3826 16.9399 14.5364 16.7156 14.7474C16.5947 14.8604 16.4899 14.9905 16.4041 15.1331C16.2676 15.3597 16.1803 15.6187 16.1564 15.8957C16.2939 15.8807 16.4265 15.8501 16.5523 15.806C16.5796 15.7968 16.6059 15.7866 16.6322 15.7754H16.6327C16.9964 15.6289 17.3011 15.3674 17.501 15.0365ZM5.27141 7.80122C5.06572 7.8895 4.87027 7.99669 4.687 8.12085H4.68651C4.5822 8.19167 4.4818 8.26733 4.38578 8.34833C4.2376 8.47346 4.10015 8.61024 3.9744 8.7572V8.75769C3.91932 8.82171 3.86668 8.88816 3.81647 8.95655C3.80039 8.97886 3.78382 9.00068 3.76676 9.02202C3.23645 9.70396 2.40589 10.1429 1.47249 10.1429C1.44422 10.1429 1.41546 10.1424 1.38719 10.1415C1.2278 10.1371 1.07183 10.1196 0.919756 10.09C0.589775 10.027 0.279777 9.90816 0 9.74325C0.654601 9.6186 1.23414 9.28442 1.6655 8.81298C1.66599 8.81201 1.66648 8.81152 1.66745 8.81055C1.7781 8.68978 1.89703 8.57677 2.02375 8.47201C2.11295 8.3978 2.20605 8.32844 2.30256 8.26345C2.70809 7.9899 3.17406 7.79831 3.67658 7.71246C3.80867 7.68967 3.94418 7.67415 4.08114 7.66639C4.13232 7.66396 4.18398 7.66202 4.23565 7.66154C4.25076 7.66105 4.26587 7.66105 4.28098 7.66105C4.30194 7.66105 4.3229 7.66105 4.34386 7.66154C4.66555 7.66736 4.97652 7.71537 5.27141 7.80122ZM2.17094 11.9181C2.3157 11.3637 2.556 10.8486 2.87477 10.3903C2.4941 10.6769 2.15681 11.0189 1.87508 11.4035C1.64258 11.7202 1.4481 12.0665 1.29847 12.4351C1.24582 12.5622 1.19952 12.6927 1.15858 12.8251C1.04403 13.1928 0.972871 13.5793 0.949963 13.979C0.949475 13.9809 0.949476 13.9829 0.949476 13.9848C0.922668 14.3544 0.82031 14.7201 0.641915 15.0562C0.530297 15.2667 0.389434 15.4651 0.218838 15.6465H0.218351C0.198367 15.6678 0.177895 15.6892 0.156936 15.71C0.11648 15.7503 0.0750495 15.7891 0.0326443 15.8264C0.147187 15.808 0.260756 15.7828 0.372862 15.7498C0.621444 15.6785 0.861253 15.5723 1.08595 15.4306C1.17369 15.3763 1.25898 15.3162 1.34136 15.2502C1.42373 15.1852 1.50367 15.1144 1.58019 15.0383C1.73958 14.8797 1.87605 14.7065 1.98913 14.5237C2.04568 14.433 2.09637 14.3398 2.14121 14.2443C2.11635 14.14 2.09539 14.0343 2.07833 13.9271C2.03641 13.6715 2.01448 13.4091 2.01448 13.1418C2.01448 12.7194 2.06858 12.3095 2.17094 11.9186V11.9181Z" fill="url(#paint0_linear_147_3635)"/>
    <defs>
        <linearGradient id="paint0_linear_147_3635" x1="1.68273e-09" y1="12.0002" x2="21.3846" y2="11.971" gradientUnits="userSpaceOnUse">
            <stop stop-color="#95765C"/>
            <stop offset="1" stop-color="#DDBA8E"/>
        </linearGradient>
    </defs>
</svg>