<svg xmlns="http://www.w3.org/2000/svg" width="108" height="108" viewBox="0 0 108 108" fill="none">
    <g clip-path="url(#clip0_65_66339)">
        <path fill-rule="evenodd" clip-rule="evenodd" d="M103.862 21.7129C103.862 19.3399 103.207 17.6562 102.533 16.5337C101.86 15.4113 101.404 14.9555 101.186 14.7378C99.862 13.4134 98.1384 12.6457 96.7187 12.0133L96.7185 12.0132L96.7181 12.013L96.7178 12.0129C96.2127 11.7879 95.746 11.5801 95.3495 11.3703C91.6237 9.39784 89.3956 6.73636 89.2418 6.55265L89.2343 6.54369L89.2315 6.54065L89.2264 6.53546C89.1516 6.45922 88.5911 5.88821 88.1657 4.18648C87.9009 3.12414 87.8732 2.33741 87.8521 1.73564V1.73545C87.8425 1.46494 87.8343 1.23181 87.8065 1.02783C87.7167 0.370055 87.0432 -0.303432 85.9207 0.145559C84.9731 0.61935 84.9965 1.81277 85.017 2.85591L85.017 2.85686C85.0199 3.00459 85.0227 3.14929 85.0227 3.2885C85.0227 4.03382 85.4717 6.65593 87.2677 8.67639C87.4238 8.852 87.5663 9.01404 87.6991 9.16502L87.7002 9.16629L87.7005 9.16662C89.0944 10.7514 89.4161 11.1172 93.1046 13.1663C94.1199 13.7306 95.0096 14.1616 95.7631 14.5266C96.6374 14.9502 97.3282 15.2849 97.819 15.6358C97.9709 15.7443 98.1237 15.8487 98.2758 15.9527C99.697 16.9239 101.056 17.8527 101.056 21.6814C101.056 22.5884 100.899 23.4594 100.607 24.2676C100.071 23.8366 99.4533 23.5043 98.7821 23.2933C98.2433 23.1204 97.6663 23.0284 97.0714 23.0284C96.5371 23.0284 96.0185 23.1025 95.5291 23.2439C94.8085 23.4437 94.1485 23.7872 93.576 24.2384C93.5746 24.237 93.5741 24.2356 93.5739 24.2343L93.5738 24.2317C92.705 24.8648 91.6364 25.2352 90.4802 25.2352C89.6406 25.2352 88.8459 25.0399 88.141 24.6874C88.1415 24.6879 88.1419 24.6886 88.1422 24.6893C88.1426 24.6903 88.1427 24.6913 88.1427 24.6924L88.1426 24.6932C88.1425 24.6938 88.1423 24.6944 88.142 24.6949C88.1418 24.6955 88.1414 24.696 88.141 24.6964C87.4832 24.418 86.794 24.2003 86.0779 24.0521C85.9117 24.0162 85.7456 23.987 85.5772 23.9601C85.3482 22.8959 84.9352 21.9014 84.3739 21.0079C84.1876 20.7094 83.9856 20.422 83.7656 20.1481C83.687 20.0471 83.6062 19.9506 83.5209 19.854C83.4973 19.826 83.4732 19.7985 83.4491 19.771C83.4249 19.7435 83.4008 19.716 83.3772 19.6879C83.0427 19.322 82.6812 18.983 82.2951 18.6732C82.0886 18.5071 81.8753 18.3499 81.6531 18.2017C81.4286 18.0513 81.1973 17.9099 80.9571 17.7797C79.6281 17.0478 78.0993 16.6303 76.4739 16.6303C75.787 16.6303 75.118 16.7044 74.4737 16.8458H74.4714C74.1953 16.9064 73.9259 16.9782 73.6633 17.0636C73.239 17.196 72.8281 17.3599 72.433 17.5485C72.1838 17.2791 71.9234 17.0209 71.654 16.7717C69.0005 14.3157 65.449 12.8138 61.545 12.8138C60.5931 12.8138 59.6637 12.9036 58.7635 13.0743C62.2746 13.7837 65.2761 15.8962 67.1574 18.8034C66.2167 19.0234 65.2379 19.1401 64.2299 19.1401C60.9924 19.1401 56.3061 16.4431 54.4946 15.4006L54.4945 15.4005C54.1129 15.1809 53.8589 15.0347 53.7729 15.0027C53.1331 14.6929 52.4776 14.41 51.8064 14.1608C51.537 14.0598 51.2653 13.9633 50.9914 13.8735C50.0755 13.5682 49.1326 13.3212 48.1695 13.1349C47.734 13.0496 47.294 12.9777 46.8495 12.9194C46.4454 12.8655 46.0368 12.8206 45.6282 12.7869C45.2645 12.7487 44.9121 12.6769 44.5731 12.5669C44.4249 12.522 44.2768 12.4681 44.1331 12.4053C43.7963 12.2661 43.4776 12.091 43.179 11.8867C41.7961 10.9348 40.8914 9.34314 40.8914 7.5382C40.8914 7.08247 40.9497 6.64022 41.0575 6.22041C41.0665 6.18898 41.0755 6.15531 41.0844 6.12163C41.1069 6.02061 41.1181 5.9151 41.1181 5.80734C41.1181 5.34263 40.8981 4.92956 40.5546 4.66915C40.4918 4.61976 40.4244 4.5771 40.3548 4.54118C40.155 4.43343 39.926 4.37281 39.6836 4.37281C39.1313 4.37281 38.6532 4.68486 38.4129 5.14283C38.395 5.17651 38.377 5.21467 38.3613 5.25059C38.2895 5.401 38.2244 5.55366 38.1637 5.70856C38.1099 5.8455 38.0605 5.98245 38.0133 6.12163C37.7462 6.92982 37.6003 7.79413 37.6003 8.69211V8.69277C37.6003 8.75765 37.6003 8.82254 37.6025 8.88742C37.607 9.0311 37.6137 9.17702 37.625 9.31845V9.32294C37.735 10.7597 38.2154 12.091 38.9719 13.2224C39.0707 13.3706 39.1762 13.5165 39.2862 13.658C38.6913 13.7747 38.0762 13.8376 37.4476 13.8376C37.4027 13.8376 37.3601 13.8375 37.3152 13.8353C37.1311 13.8331 36.947 13.8263 36.7651 13.8129C36.4149 13.7882 36.0692 13.7433 35.7302 13.6804C33.8175 13.3279 32.1091 12.394 30.7936 11.0718C29.1009 9.37457 28.057 7.03309 28.057 4.4469V4.34587C28.0457 3.47034 27.3318 2.76318 26.4541 2.76318C25.6369 2.76318 24.9634 3.37381 24.8646 4.16403C24.8601 4.20444 24.8556 4.2471 24.8534 4.28975C24.8197 4.66017 24.804 5.03283 24.804 5.41223C24.804 8.78415 26.0926 11.8575 28.2051 14.1631C29.0515 15.088 30.0325 15.8894 31.1146 16.5382C32.2662 17.2297 33.5346 17.746 34.8839 18.0513C35.1218 18.1052 35.3598 18.1524 35.6022 18.1928C36.3049 18.3117 37.0256 18.3724 37.7619 18.3724C38.3074 18.3724 38.844 18.3387 39.3715 18.2736H39.3738L39.623 18.2399L39.6777 18.232L39.7622 18.2197C40.6018 18.0962 41.4593 18.0244 42.3281 18.0087C42.4628 18.0064 42.5998 18.0042 42.7345 18.0042C43.6976 18.0042 44.6449 18.0715 45.5721 18.2017C45.7382 18.2219 45.9044 18.2489 46.0682 18.2758C47.2087 18.4622 48.3154 18.7428 49.384 19.111C51.0408 19.6789 52.5988 20.4557 54.0311 21.4075C54.0523 21.4221 54.0741 21.4366 54.0958 21.4511L54.0963 21.4514C54.1181 21.4659 54.14 21.4805 54.1613 21.4951C57.0169 23.3921 60.3754 24.5909 63.9965 24.8446C64.4791 24.8805 64.9663 24.8984 65.4579 24.8984C65.6353 24.8984 65.8104 24.8962 65.9855 24.8917C66.4008 24.8805 66.8161 24.858 67.2247 24.8199C67.6355 24.7884 68.0441 24.7413 68.4482 24.6807C68.6952 24.6448 68.9399 24.6044 69.1823 24.5595C71.0277 24.2205 72.7855 23.6323 74.4198 22.8331C74.7543 22.6715 75.118 22.5592 75.5019 22.5053C75.6186 22.4874 75.7353 22.4761 75.8566 22.4717L75.8567 22.4716C75.9128 22.4694 75.9689 22.4672 76.0249 22.4672C77.0486 22.4672 77.9736 22.8825 78.6448 23.5515C78.912 23.8186 79.1365 24.1262 79.3116 24.4652C79.3273 24.4944 79.343 24.5235 79.3565 24.5527C79.3789 24.5976 79.3991 24.6425 79.4193 24.6897C79.6191 25.1432 79.7291 25.6438 79.7291 26.1713C79.7291 27.4218 79.1095 28.5263 78.1621 29.1953C77.7783 29.4692 77.3382 29.6712 76.8646 29.779C76.676 29.8239 76.4807 29.8531 76.2809 29.8665C76.1956 29.8733 76.1103 29.8755 76.0249 29.8755C75.32 29.8755 74.6623 29.678 74.101 29.3367C73.459 28.9461 72.9426 28.3647 72.6373 27.6687C71.9526 27.9763 71.2477 28.2457 70.5248 28.4769C69.995 28.6475 69.454 28.7957 68.9039 28.9237H68.9017C68.6098 28.991 68.3135 29.0516 68.0172 29.1055H68.0149C67.9184 29.1257 67.8219 29.1414 67.7253 29.1571C67.658 29.1706 67.5884 29.1818 67.5188 29.1908C66.9621 29.2806 66.3986 29.3479 65.8261 29.3884C65.3187 29.4265 64.8046 29.4467 64.2861 29.4467C63.745 29.4467 63.2062 29.4265 62.6764 29.3839C62.095 29.339 61.518 29.2694 60.9523 29.1751C58.3975 28.7575 55.9999 27.864 53.8582 26.5889C52.8727 26.0075 51.8535 25.4821 50.8006 25.0152H50.7984C49.6355 24.5011 48.4344 24.0611 47.1997 23.7019C45.9717 23.3427 44.71 23.0621 43.4192 22.8645C42.6873 22.7545 41.9465 22.6692 41.1989 22.6131C40.4626 22.5592 39.7217 22.53 38.9719 22.53C38.3209 22.53 37.6743 22.5502 37.0323 22.5929C36.2757 22.6423 35.5282 22.7208 34.7873 22.8286C32.4616 23.1586 30.2233 23.7647 28.1063 24.6111C27.8841 24.7009 27.6641 24.7907 27.4441 24.885C27.4553 24.8693 27.4665 24.8558 27.4822 24.8401C26.2273 25.2734 24.8961 25.545 23.5132 25.6281C23.3987 25.637 23.2819 25.6438 23.1652 25.646C22.9676 25.655 22.7678 25.6595 22.5658 25.6595H22.5164C19.0435 25.6483 15.8444 24.4652 13.2986 22.4829C13.4445 22.8398 13.6039 23.1878 13.7745 23.529C13.7824 23.5447 13.7903 23.5599 13.7981 23.575L13.8104 23.5988L13.8217 23.6211C15.1395 26.1938 17.1756 28.34 19.6631 29.7947C20.2265 30.1247 20.8125 30.4188 21.4209 30.6747C22.009 30.9217 22.6152 31.1327 23.237 31.3056C23.3403 31.3347 23.4436 31.3617 23.5468 31.3864H23.5491C23.7421 31.4358 23.933 31.4807 24.1283 31.5211C25.143 31.7388 26.1959 31.8511 27.2757 31.8511C30.1066 31.8511 32.7512 31.0743 35.0141 29.7229C35.0152 29.7229 35.0158 29.7223 35.0163 29.7217C35.0169 29.7212 35.0174 29.7206 35.0186 29.7206L35.025 29.7171L35.032 29.7128C35.0365 29.71 35.041 29.7071 35.0455 29.7049C35.05 29.7004 35.0545 29.6982 35.059 29.6959C35.0612 29.6937 35.0635 29.6937 35.0657 29.6914C35.0971 29.6713 35.1285 29.6533 35.1599 29.6354L35.1599 29.6354L35.16 29.6353L35.16 29.6353C35.4316 29.4692 35.71 29.312 35.9906 29.1639C38.0852 28.0459 40.4154 27.314 42.8871 27.0581C42.8894 27.0581 42.8894 27.0581 42.8916 27.0559L43.1116 27.0356C43.6841 26.984 44.2633 26.9571 44.8492 26.9571C45.4643 26.9571 46.0705 26.9863 46.6699 27.0446C50.0912 27.3724 53.2476 28.6138 55.8899 30.5288C53.9615 30.2212 51.9837 30.0798 49.9655 30.118C48.9261 30.1382 47.8979 30.2055 46.8832 30.3178C45.9088 30.4255 44.9458 30.5759 43.9961 30.7668C41.7265 31.2225 39.5377 31.9094 37.4566 32.8007C37.0682 32.9668 36.6843 33.1397 36.3049 33.3193C35.8649 33.5281 35.4316 33.7436 35.0028 33.9703C33.9814 34.5091 32.9891 35.1018 32.0305 35.7416C31.9071 35.8224 31.7858 35.9032 31.6668 35.9885C30.8474 36.5475 30.0572 37.1402 29.2894 37.7733C29.2883 37.7733 29.2877 37.7733 29.2871 37.7736L29.2862 37.7743L29.2849 37.7755C28.5733 38.3615 27.8841 38.9743 27.2218 39.6141C27.2218 39.6141 27.2218 39.6164 27.2196 39.6164C27.2196 39.6164 27.2196 39.6171 27.2192 39.6177C27.2189 39.6182 27.2183 39.6186 27.2173 39.6186C26.898 39.8661 26.2021 40.6295 25.7903 41.0813L25.7177 41.1609C25.1767 41.7536 24.6558 42.3642 24.1552 42.995C23.8117 43.4261 23.4795 43.8661 23.1562 44.3128L23.1557 44.3136C23.0391 44.4772 22.9226 44.6408 22.8082 44.8067C21.1447 47.2021 19.7708 49.822 18.7359 52.6124C18.0355 54.5027 17.4899 56.467 17.1173 58.4965V58.4987C16.7401 60.5416 16.5403 62.6474 16.5291 64.7981V64.8699C16.5291 65.1348 16.5313 65.3997 16.5358 65.6646C16.5718 67.5818 16.7603 69.4608 17.0858 71.2882C17.1263 71.5217 17.1712 71.7552 17.2183 71.9864V71.9887C17.5259 73.5467 17.9367 75.0642 18.4396 76.5369C18.453 76.5773 18.4598 76.6222 18.4598 76.6694C18.4598 76.8333 18.37 76.977 18.2375 77.0533C18.1724 77.0914 18.0961 77.1139 18.0153 77.1139C17.8334 77.1139 17.6785 77.0061 17.6067 76.8512C17.6022 76.8355 17.5955 76.8176 17.5887 76.8018C17.5887 76.801 17.5884 76.8004 17.5881 76.8C17.5879 76.7996 17.5877 76.7993 17.5877 76.799C17.5877 76.7986 17.588 76.7981 17.5887 76.7974C17.3485 76.1441 17.0567 75.5043 16.7132 74.8869C15.4919 72.7924 14.7982 70.4733 14.6344 68.1251C14.6334 68.1242 14.6329 68.1233 14.6326 68.1225C14.6321 68.1214 14.6321 68.1206 14.6321 68.1206C14.6052 67.7232 14.5917 67.3259 14.5939 66.9308C14.4615 67.1059 14.329 67.2855 14.2056 67.4651C13.559 68.3877 13.0359 69.3688 12.6319 70.388C11.9 72.2266 11.5633 74.1842 11.6194 76.1351C11.6261 76.4067 11.6418 76.6784 11.6643 76.95C11.7586 78.0792 11.9853 79.1972 12.3445 80.2838C12.3647 80.3444 12.3849 80.405 12.4051 80.4634C13.7162 84.529 13.5388 88.9718 11.8753 92.9363C12.8025 92.3818 13.6758 91.7039 14.475 90.9047C15.6109 89.7687 16.5022 88.4779 17.1465 87.1017C17.7436 85.8243 18.1275 84.4751 18.2981 83.1034C18.3206 82.9418 18.3385 82.7779 18.352 82.6163V82.6028C18.352 82.5714 18.3542 82.5422 18.361 82.513V82.5108C18.4036 82.3087 18.5832 82.1561 18.7988 82.1561C19.03 82.1561 19.2208 82.3312 19.2433 82.5579C19.2792 82.971 19.3263 83.3818 19.3869 83.7881C19.6429 85.6537 20.1053 87.4564 20.7451 89.1693C23.026 95.2891 27.5788 100.302 33.3797 103.182C32.1899 101.636 31.4334 99.7431 31.2852 97.6799C31.2672 97.433 31.2583 97.1861 31.2583 96.9346C31.2583 95.9221 31.4042 94.9433 31.6781 94.0207C31.8622 93.3966 32.1046 92.7972 32.3987 92.2292C32.3852 92.4469 32.3807 92.6669 32.3807 92.887C32.3807 93.4527 32.4167 94.0117 32.4863 94.5594C32.9869 98.4432 35.2071 101.788 38.3568 103.809C38.5387 103.925 38.725 104.038 38.9136 104.145C39.9058 104.722 40.9363 105.243 42.0026 105.699C42.0049 105.701 42.0049 105.701 42.0071 105.701C42.8804 106.076 43.7739 106.408 44.6921 106.696H44.6943C47.3928 107.544 50.2618 108 53.2386 108C61.435 108 68.8209 104.543 74.018 99.0067C74.0988 98.9236 74.1774 98.8383 74.2537 98.753C74.3053 98.6992 74.3547 98.6453 74.4018 98.5914C74.4759 98.5128 74.5478 98.432 74.6174 98.3512L74.6208 98.3465L74.6233 98.3434C74.6253 98.3411 74.6272 98.3391 74.6291 98.3372L74.6308 98.3355C76.4268 96.2634 77.7693 93.7894 78.5034 91.0663C78.9254 89.5195 79.1477 87.8942 79.1477 86.215C79.1477 85.656 79.123 85.1037 79.0736 84.5582C79.0669 84.4818 79.0601 84.4055 79.0512 84.3292C78.9367 83.1798 78.7166 82.0618 78.3979 80.9864C78.1779 80.2299 77.9085 79.4935 77.5942 78.7819L77.5877 78.7649C77.5827 78.7526 77.5772 78.7403 77.5695 78.728C77.4213 78.389 77.2642 78.0568 77.0935 77.7313C76.4694 76.5212 75.7151 75.3898 74.8486 74.3526C73.8451 73.1471 72.6889 72.074 71.4116 71.1558C71.2993 71.0772 71.1871 70.9986 71.0748 70.9223C70.9581 70.8392 70.8391 70.7607 70.7201 70.6843C69.8401 70.1096 68.9084 69.609 67.9319 69.1914C67.7635 69.1174 67.5929 69.0478 67.4223 68.9804C66.1606 68.482 64.8316 68.1184 63.4509 67.9073C63.4405 67.9063 63.43 67.9047 63.4193 67.9032C63.4071 67.9014 63.3945 67.8995 63.3813 67.8983C62.7326 67.7996 62.0703 67.7367 61.4013 67.712C61.3564 67.7075 61.3093 67.7053 61.2644 67.7075C61.0533 67.6985 60.84 67.6941 60.6268 67.6941C59.7108 67.6941 58.8084 67.7614 57.9283 67.8894C57.9162 67.8914 57.904 67.8932 57.8918 67.895L57.8631 67.8989L57.854 67.9002C57.8379 67.9024 57.8215 67.9047 57.8049 67.9073C57.5849 67.941 57.3671 67.9792 57.1493 68.0218C57.1157 68.0173 57.082 68.0128 57.0483 68.0061C56.9136 68.0218 56.7767 68.0353 56.642 68.0488C56.5589 68.0555 56.4759 68.0622 56.3928 68.0667C55.8944 68.1071 55.3871 68.1273 54.8774 68.1273C54.2758 68.1273 53.6831 68.1004 53.0972 68.0465L52.9535 68.033C50.6973 67.8108 48.5714 67.2002 46.6632 66.2797C46.3803 66.145 46.1019 66.0014 45.828 65.8487C45.269 65.5434 44.7325 65.2089 44.2184 64.8497C44.1398 64.7958 44.0635 64.7419 43.9894 64.6858C43.9715 64.6746 43.9557 64.6634 43.9378 64.6499C43.5202 64.3446 43.1184 64.0236 42.7367 63.6846C42.5414 63.5139 42.3506 63.3366 42.1665 63.157C41.2304 62.25 40.4154 61.2443 39.7464 60.1555C39.4479 59.6706 39.1762 59.17 38.9405 58.6536C38.9158 58.6065 38.8934 58.5571 38.8732 58.5099C38.7856 58.3191 38.7025 58.1238 38.6262 57.9285C38.5364 57.7107 38.4556 57.4885 38.3793 57.2662C38.184 56.6915 38.0246 56.1033 37.9056 55.5017C37.8831 55.5073 37.8601 55.5135 37.8371 55.5196C37.8141 55.5258 37.7911 55.532 37.7686 55.5376C37.7781 55.5316 37.7875 55.5255 37.7968 55.5194L37.8213 55.5031L37.8214 55.503C37.8458 55.4867 37.8704 55.4702 37.8966 55.4545C37.7776 54.8507 37.699 54.231 37.6631 53.6047C37.6564 53.4857 37.6519 53.3645 37.6497 53.2455C37.6429 53.1041 37.6407 52.9627 37.6407 52.819C37.6407 51.0522 37.9774 49.3528 38.6015 47.7746C38.7362 47.4266 38.8866 47.0831 39.0527 46.7464C39.1762 46.4927 39.3064 46.2413 39.4456 45.9943C39.7869 45.3882 40.1707 44.8045 40.5973 44.2477C40.925 43.8167 41.2775 43.4014 41.6524 43.004C42.299 42.3148 43.0151 41.6772 43.7896 41.1003C44.5888 40.5031 45.4486 39.9688 46.3623 39.5086C46.643 39.3649 46.9303 39.2303 47.2221 39.1023C48.3334 38.6106 49.5143 38.2245 50.7467 37.9574C50.8096 37.9416 50.8702 37.9282 50.9331 37.917C52.1992 37.652 53.5215 37.5129 54.8774 37.5129C56.1212 37.5129 57.3334 37.6296 58.5008 37.8541H58.5076L58.5076 37.8541C58.5525 37.8608 58.5974 37.8676 58.64 37.881C58.9812 37.9731 59.2372 38.2672 59.2753 38.6264C59.2776 38.6578 59.2798 38.6892 59.2798 38.7206C59.2798 39.1696 58.9386 39.5401 58.5008 39.5849C56.9249 39.7084 55.414 40.0384 54.0019 40.5436C52.7223 41.0015 51.528 41.6009 50.4369 42.326H50.4347C50.1473 42.5146 49.869 42.7122 49.5973 42.9187C49.3257 43.123 49.063 43.3363 48.8093 43.5585C48.5646 43.7673 48.3289 43.9851 48.1022 44.2118C47.0897 45.2041 46.2321 46.3266 45.5631 47.5478C45.2354 48.145 44.9525 48.7646 44.719 49.4066C44.3598 50.3809 44.1174 51.4046 44.0029 52.4598L44.0433 52.4935C44.0336 52.4962 44.024 52.4998 44.0148 52.5032C44.0091 52.5054 44.0036 52.5074 43.9984 52.5092C43.949 52.9627 43.9243 53.4206 43.9243 53.8831C43.9243 54.1188 43.931 54.3523 43.9423 54.5858C43.9512 54.7205 43.9602 54.8551 43.9715 54.9898C43.9984 55.3154 44.0388 55.6386 44.0904 55.9597C44.1668 56.4378 44.27 56.907 44.398 57.3673C44.4429 57.5311 44.4923 57.6905 44.5439 57.8499V57.8522C44.6113 58.0677 44.6853 58.2787 44.7639 58.4897H44.7662C44.7997 58.5815 44.8356 58.6733 44.8714 58.7651L44.8715 58.7655L44.8717 58.7659H44.8739C44.9547 58.9679 45.0423 59.17 45.1343 59.3675C45.159 59.4236 45.1837 59.4775 45.2107 59.5314C45.3252 59.244 45.4464 58.9589 45.5743 58.6783C45.6103 58.5952 45.6484 58.5144 45.6888 58.4314C45.947 57.8858 46.2321 57.3538 46.5397 56.8397C46.6032 56.7315 46.6694 56.6259 46.7352 56.521L46.7956 56.4244H46.7979C47.0807 55.9776 47.3815 55.5443 47.7026 55.1268C47.7924 55.0056 47.8867 54.8866 47.9809 54.7698C47.9473 54.7654 47.9136 54.7609 47.8799 54.7586C47.9537 54.7094 48.0298 54.6624 48.1059 54.6154L48.1059 54.6154L48.106 54.6153L48.1067 54.6149C48.4838 54.1547 48.8812 53.7125 49.301 53.2927C49.3773 53.2141 49.4536 53.1378 49.5345 53.0614C49.6624 52.9357 49.7904 52.8145 49.9206 52.6977C50.2102 52.4283 50.5088 52.1724 50.8163 51.9255C51.2182 51.6 51.6335 51.2924 52.0623 51.0028H52.0668C52.0668 51.0028 52.0669 51.0028 52.0672 51.0028C52.0674 51.0027 52.0677 51.0026 52.0679 51.0025C52.0685 51.0022 52.069 51.0017 52.069 51.0006C53.0703 50.3226 54.1344 49.7389 55.2613 49.2652V49.263C55.414 49.2001 55.5689 49.1372 55.726 49.0766C56.2042 48.8903 56.6914 48.7219 57.1875 48.576C58.3661 48.228 59.5941 47.9923 60.8603 47.8868C61.069 47.8666 61.2778 47.8531 61.4889 47.8419L61.4888 47.8418L61.4855 47.835C61.4844 47.8325 61.4833 47.8296 61.4821 47.8262H61.5607C61.6976 47.8262 61.8346 47.8262 61.9693 47.8239H61.9738C62.3823 47.8172 62.7864 47.8015 63.1883 47.7746C63.3262 47.7702 63.462 47.7594 63.5998 47.7484H63.5998H63.5999H63.5999L63.6103 47.7476C65.0696 47.6399 66.4951 47.4131 67.8802 47.0764C68.7648 46.8631 69.6335 46.6072 70.4799 46.3064C70.8099 46.1919 71.1354 46.0706 71.4565 45.9427C71.2275 46.2457 70.9917 46.5443 70.7493 46.8384C70.1432 47.5725 69.4988 48.2752 68.8209 48.9397C68.6098 49.1485 68.3943 49.3528 68.1766 49.5548C66.9306 50.6975 65.5747 51.7279 64.1267 52.6192C63.9583 52.7269 63.7877 52.8302 63.6171 52.9267C63.0626 53.2567 62.4946 53.5643 61.9131 53.8494C61.6303 53.9908 61.3429 54.1278 61.0533 54.258L61.0246 54.2707C61.0118 54.2765 60.9988 54.2823 60.9859 54.2878L60.9689 54.295C60.9603 54.2986 60.9518 54.302 60.9433 54.3051C60.6043 54.4578 60.2609 54.6037 59.9129 54.7407C59.2394 55.0078 58.5524 55.248 57.852 55.4613C56.6308 55.8339 55.3736 56.1191 54.0872 56.3144L54.0872 56.3144L54.0871 56.3144L54.087 56.3144C53.9816 56.3301 53.8761 56.3458 53.7707 56.3593C53.6382 56.3795 53.5058 56.3974 53.3733 56.4132C53.0029 56.4603 52.628 56.4985 52.2531 56.5276L52.2531 56.529C52.2529 56.5297 52.2525 56.5293 52.2508 56.5276L52.2101 56.531C52.1169 56.5389 52.0262 56.5465 51.9321 56.5523C51.8917 56.5568 51.8512 56.5591 51.8108 56.5591C51.409 56.5883 51.0049 56.6062 50.5986 56.6129C50.8635 56.7297 51.1329 56.8419 51.4045 56.9497C51.4876 56.9834 51.5706 57.0148 51.6559 57.0462L51.6746 57.0504C51.7094 57.058 51.7452 57.0659 51.7794 57.0754C51.86 57.0956 51.9406 57.118 52.0212 57.1403L52.0219 57.1405C52.0982 57.1607 52.1723 57.1809 52.2464 57.2034C52.7582 57.3538 53.2588 57.5356 53.7415 57.7489L53.7451 57.7506C53.7461 57.7511 53.7472 57.7515 53.7483 57.7519C53.749 57.7521 53.7496 57.7523 53.7503 57.7525C53.7514 57.7528 53.7525 57.753 53.7536 57.7532C53.7548 57.7533 53.756 57.7534 53.7572 57.7534C55.1805 58.1665 56.6555 58.4583 58.1686 58.6222C58.3257 58.6401 58.4851 58.6559 58.6467 58.6671H58.649L58.649 58.667C58.6535 58.6626 58.658 58.6581 58.6602 58.6536C58.6692 58.6581 58.6782 58.6626 58.6871 58.6716C59.4482 58.7412 60.216 58.7748 60.995 58.7748C61.3878 58.7748 61.7785 58.7659 62.1668 58.7479C63.2085 58.703 64.2344 58.5952 65.2402 58.4269C65.3311 58.4151 65.4221 58.3995 65.5131 58.3839L65.6039 58.3685C66.2863 58.245 68.5852 57.6546 69.0544 57.5019C69.5976 57.3246 70.1319 57.1315 70.6595 56.9183C70.9783 56.7925 71.2926 56.6601 71.6046 56.5209C73.1222 55.8429 74.5635 55.0235 75.9104 54.0761C75.9778 54.0312 76.0452 53.9841 76.1125 53.9347C76.1327 53.9212 76.1529 53.9078 76.1731 53.8898C77.2103 53.1467 78.1891 52.3273 79.105 51.4361C79.7987 50.7671 80.4565 50.0532 81.0738 49.3079C81.1502 49.2158 81.2243 49.126 81.2961 49.034C82.3737 49.6828 83.0966 50.8636 83.0966 52.2128C83.0966 52.2937 83.0943 52.3745 83.0876 52.4553C83.0629 52.8459 82.9776 53.2186 82.8406 53.5665C82.5802 54.2355 82.129 54.808 81.5543 55.2211C81.1951 55.4792 80.8449 55.7509 80.5059 56.036C79.9087 56.5344 79.3452 57.0732 78.8199 57.6456C77.913 58.6334 77.1182 59.7267 76.4537 60.9031C76.2337 61.2937 76.0272 61.6933 75.8364 62.1041C75.1404 63.5903 74.6465 65.1932 74.3884 66.8702C75.3313 65.9654 76.355 65.146 77.4482 64.4232C78.1338 63.9692 78.8676 63.5938 79.6044 63.2168C79.9461 63.042 80.2885 62.8668 80.6271 62.6833C82.1043 61.8819 85.1035 61.2555 85.3842 61.2039H85.3864C86.7289 60.9727 88.0265 60.6157 89.2702 60.1465C91.1762 59.4304 92.9542 58.4516 94.5593 57.255C95.4169 56.6174 96.2251 55.917 96.9794 55.1627C97.3206 54.8192 97.6529 54.4623 97.9716 54.0964C97.9716 54.0941 97.9739 54.0919 97.9761 54.0896L97.9806 54.0851C98.0012 54.0646 98.018 54.044 98.0362 54.0217L98.0412 54.0155C98.0513 54.0043 98.0608 53.9931 98.0704 53.9819C98.0799 53.9707 98.0895 53.9594 98.0996 53.9482C98.268 53.7394 98.4072 53.5037 98.5059 53.25C98.6272 52.9469 98.6923 52.6169 98.6923 52.2712C98.6923 51.3822 98.2567 50.5942 97.5877 50.1093C98.0771 49.4381 98.3623 48.6142 98.3623 47.7207C98.3623 45.6216 96.7773 43.893 94.7389 43.6685C95.4573 44.4363 95.8928 45.4667 95.8928 46.5982C95.8928 47.366 95.693 48.0866 95.3383 48.7107C95.1542 49.0407 94.9252 49.3415 94.6648 49.6087C94.6606 49.612 94.6567 49.6157 94.6529 49.6196C94.65 49.6225 94.6472 49.6256 94.6443 49.6287C94.6408 49.6325 94.6372 49.6363 94.6334 49.6401C94.4134 49.8534 94.1081 49.9881 93.7736 49.9881C93.0933 49.9881 92.5388 49.4336 92.5388 48.7534C92.5388 48.7107 92.5411 48.668 92.5456 48.6276C92.5501 48.585 92.5568 48.5446 92.5635 48.5042C92.5882 48.3111 92.5995 48.1113 92.5995 47.9093C92.5995 46.7194 92.1662 45.6329 91.4455 44.7955C91.1851 44.4879 90.8843 44.2141 90.5521 43.9851C90.0604 43.6393 89.4992 43.3834 88.8953 43.2442C88.8414 43.2869 88.7898 43.3318 88.7381 43.3789V43.3812C88.9357 43.8593 89.0771 44.3645 89.1557 44.8898C89.2073 45.2153 89.232 45.5498 89.232 45.8888C89.232 46.7104 89.0816 47.4962 88.8055 48.2213C88.3228 47.7229 87.8177 47.2447 87.2924 46.7845C87.0858 46.6072 86.8771 46.4298 86.666 46.2592C86.5493 46.1627 86.4326 46.0684 86.3136 45.9741C85.6895 45.4802 85.0407 45.0133 84.3717 44.58C84.3245 44.5463 84.2752 44.5149 84.228 44.4857C84.0978 44.4026 83.9698 44.3218 83.8396 44.241C82.1941 43.224 80.4251 42.3867 78.5617 41.7536C78.2923 41.6638 78.0185 41.5762 77.7446 41.4954C76.9229 41.244 76.0833 41.033 75.228 40.8668C74.999 40.8219 74.7655 40.7793 74.5321 40.7411C74.3749 40.7142 74.2155 40.6872 74.0561 40.667C72.7967 40.4762 71.5059 40.3797 70.1926 40.3797C69.9052 40.3797 69.6178 40.3842 69.3327 40.3954C69.335 40.3954 69.3395 40.3931 69.3417 40.3909C69.317 40.3931 69.2923 40.3931 69.2676 40.3931C67.7927 40.3931 66.5984 39.1966 66.5984 37.7216C66.5984 37.6206 66.6029 37.5218 66.6141 37.4253C66.7286 36.3994 67.42 35.5508 68.3584 35.2118C68.639 35.1108 68.9399 35.0546 69.2542 35.0524H69.2856C69.3968 35.0535 69.5075 35.0541 69.6181 35.0546C69.7286 35.0552 69.8391 35.0558 69.9501 35.0569C70.8166 35.0614 71.6832 35.0681 72.5453 35.0771C73.1918 35.0816 73.8339 35.0883 74.4759 35.095C74.4778 35.0907 74.4798 35.0865 74.4819 35.0824C74.4845 35.0776 74.4872 35.0729 74.4898 35.0683C74.4928 35.0629 74.4958 35.0576 74.4984 35.0524C74.5702 35.0681 74.6443 35.0838 74.7184 35.0973H74.7565L76.3325 35.1175C76.6033 35.1219 76.8741 35.1259 77.1446 35.1298C77.4191 35.1337 77.6932 35.1377 77.9668 35.1422H78.4921C78.7436 35.1422 79.1903 35.1579 79.4418 35.1669C79.4654 35.1674 79.4888 35.1678 79.512 35.1681L79.5899 35.1691C79.6393 35.1697 79.6884 35.1702 79.7381 35.1714C81.2624 35.1983 82.78 35.2297 84.2864 35.2679C84.915 35.2814 85.5391 35.2971 86.1632 35.3128L86.8905 35.333C87.2722 35.342 87.6538 35.3532 88.0332 35.3644L88.0355 35.3667C88.0422 35.9302 88.0063 36.4824 87.93 37.0235C87.8289 37.771 87.6538 38.4939 87.4114 39.1876C87.3485 39.3694 87.2812 39.5468 87.2093 39.7241C87.3934 39.6254 87.573 39.5243 87.7504 39.4188C88.3879 39.0417 88.9873 38.6129 89.5486 38.1347C90.4555 37.3647 91.257 36.4734 91.9282 35.4857C92.0674 35.3263 92.0932 35.3128 92.1061 35.3061L92.1095 35.3043C92.1198 35.2982 92.1271 35.2871 92.2066 35.1669L92.2066 35.1669C92.266 35.0778 92.3211 34.9917 92.3739 34.9093C92.7362 34.3436 92.9863 33.9533 93.7152 33.9905C94.4313 34.0264 94.9903 34.6281 94.9903 35.3442V35.3577C94.9903 35.4048 94.9881 35.452 94.9836 35.4991C94.9836 35.5328 94.9836 35.5642 94.9791 35.5957C94.9095 37.0392 94.5683 38.4108 94.0026 39.6613C95.8928 38.806 97.5047 37.441 98.6631 35.7438C99.1009 35.1018 99.4735 34.4103 99.7721 33.683L99.7743 33.6807C100.578 33.2452 101.265 32.6189 101.775 31.8623C102.385 30.9598 102.74 29.871 102.74 28.6969C102.74 28.0773 102.641 27.4802 102.455 26.9212C103.351 25.3923 103.862 23.6121 103.862 21.7129ZM46.7305 105.778H46.7103L46.7179 105.777L46.7205 105.777C46.7249 105.777 46.7288 105.777 46.7327 105.775C46.7305 105.775 46.7305 105.778 46.7305 105.778ZM45.9201 74.9587C45.9268 74.9879 45.9335 75.0171 45.9425 75.0463L45.8909 74.9947C45.8999 74.9812 45.9089 74.97 45.9201 74.9587ZM39.0146 78.389C39.6858 79.159 40.3099 79.6238 40.3099 79.6238C40.3274 79.6207 40.4942 79.7499 40.7087 79.9159L40.7091 79.9163L40.7093 79.9164C40.9622 80.1124 41.2812 80.3595 41.4998 80.5015H41.502C41.6794 80.6183 41.8545 80.7283 42.0385 80.8338C42.0947 80.8697 42.1508 80.9011 42.2092 80.9326C42.3977 81.0403 42.5886 81.1436 42.7839 81.2379C43.4102 81.5544 44.068 81.8193 44.7505 82.0281C45.9605 82.403 47.2468 82.6051 48.5804 82.6051C48.944 82.6051 49.3055 82.5893 49.6602 82.5602C49.7028 82.5579 49.7455 82.5534 49.7881 82.5489C50.2416 82.5085 50.6906 82.4434 51.1284 82.3559C50.8231 82.1471 50.5267 81.9248 50.2416 81.6914C49.7634 81.2962 49.3122 80.8697 48.8969 80.414H48.8946C48.6612 80.1581 48.4367 79.8932 48.2234 79.6193C48.1833 79.568 48.1432 79.5146 48.1031 79.4611L48.1022 79.4599C48.0056 79.3319 47.9114 79.2039 47.8216 79.0715C47.716 78.9256 47.6173 78.7752 47.5207 78.6225C47.4848 78.5686 47.4489 78.5125 47.4152 78.4541C47.1413 78.0096 46.8921 77.5472 46.6744 77.069C46.3758 76.4224 46.1311 75.7467 45.9448 75.0485C46.0278 75.1271 46.1131 75.2057 46.2007 75.282V75.2843C46.6385 75.6816 47.1077 76.0498 47.5993 76.3843C48.0887 76.7188 48.605 77.0219 49.1416 77.2868L49.1753 77.2618C49.2089 77.2369 49.2426 77.2121 49.2763 77.1835C49.2493 77.2261 49.2202 77.2665 49.1887 77.3092L49.2308 77.3299C49.9954 77.7057 50.695 78.0496 51.7974 78.2701C52.7466 78.4599 53.8563 78.4892 55.5705 78.5344H55.5707L55.5756 78.5346C55.887 78.5428 56.2184 78.5515 56.5724 78.5619C57.0191 78.5754 57.4569 78.5978 57.8834 78.6696C58.081 78.7011 58.2786 78.7415 58.4716 78.7909H58.4739C60.9321 79.3925 62.9436 81.1346 63.9156 83.4245C64.102 83.8645 64.2501 84.3247 64.3557 84.8006C64.405 85.0296 64.4477 85.2631 64.4769 85.4988C64.5218 85.8378 64.5442 86.1835 64.5442 86.5337C64.5442 88.3589 63.9314 90.0403 62.8987 91.3828C61.7627 92.8645 60.1194 93.9353 58.2269 94.3327L58.2202 94.4068H58.2179C57.879 94.4382 57.5355 94.4629 57.192 94.4831L57.1124 94.4881C57.1004 94.4889 57.0885 94.4895 57.0766 94.4902C57.0682 94.4907 57.0598 94.4911 57.0514 94.4915C57.0287 94.4926 57.006 94.4936 56.9832 94.4944C56.9799 94.4944 56.9765 94.4949 56.9731 94.4955C56.9697 94.496 56.9664 94.4966 56.963 94.4966C56.5904 94.5146 56.2132 94.5303 55.836 94.537C54.3521 94.5662 52.8862 94.4966 51.4494 94.335C48.5534 94.0094 45.7607 93.3135 43.1251 92.2898C40.5367 91.2863 38.0964 89.9685 35.8492 88.3813C35.4114 88.0738 34.9826 87.755 34.5606 87.4272C34.3249 87.2431 34.0914 87.0568 33.8602 86.8682C33.8287 86.8424 33.7977 86.8165 33.7668 86.7906C33.736 86.7649 33.7052 86.7391 33.6738 86.7133C32.1899 85.4764 30.807 84.1137 29.5454 82.641C28.8831 81.871 28.2545 81.0695 27.6596 80.2389C27.1971 79.5946 26.7571 78.9323 26.3396 78.2543C26.2543 78.1174 26.1712 77.9804 26.0881 77.8435C25.6908 77.1812 25.3159 76.5078 24.9612 75.8186V75.8163C23.7399 73.4299 22.7768 70.8819 22.1146 68.2059V68.2037C22.0629 67.9949 22.0135 67.7816 21.9664 67.5706C21.9619 67.5527 21.9574 67.5326 21.953 67.5124L21.9529 67.5122C21.9305 67.4179 21.9103 67.3236 21.8901 67.2294C21.8721 67.1508 21.8564 67.0744 21.8407 66.9959C21.8362 66.9846 21.8339 66.9734 21.8317 66.96C21.789 66.7557 21.7486 66.5514 21.7105 66.3448C21.715 66.3471 21.7194 66.3471 21.7239 66.3471C21.5915 65.5209 21.5241 64.6746 21.5241 63.8125C21.5241 63.1884 21.56 62.5733 21.6296 61.9672C21.7172 61.2039 21.8564 60.4586 22.0472 59.7312C22.8666 56.604 24.602 53.8494 26.9524 51.7751L26.939 51.7279L26.9479 51.7259C26.9737 51.7198 26.9979 51.7142 27.022 51.7122L27.0243 51.71C27.0557 51.6808 27.0894 51.6516 27.123 51.6247C27.1769 51.5775 27.2308 51.5326 27.2847 51.4877C27.8482 51.014 28.4431 50.5808 29.0672 50.1901C28.7394 50.6189 28.4319 51.0612 28.1423 51.5191C28.0345 51.6875 27.9312 51.8604 27.828 52.0332C27.7808 52.1118 27.7359 52.1904 27.691 52.2712C27.5765 52.471 27.4665 52.6731 27.361 52.8773C26.05 55.4007 25.3001 58.2607 25.2822 61.2959C25.2799 61.3363 25.2799 61.379 25.2799 61.4194C25.2799 61.8908 25.2979 62.3555 25.3316 62.8158V62.818C25.3473 63.0223 25.3652 63.2266 25.3899 63.4286C25.4932 64.4164 25.6773 65.3818 25.9355 66.3179C26.1667 67.1665 26.4563 67.9926 26.8043 68.7896C28.4027 72.4758 31.164 75.5424 34.6279 77.5225C34.0016 75.6637 33.6626 73.6746 33.6626 71.6048C33.6626 70.3947 33.7794 69.2139 34.0016 68.069C34.0809 68.2046 34.5815 69.5906 34.8283 70.2738C34.8961 70.4615 34.9447 70.5961 34.9602 70.6372C35.0168 70.7882 35.0767 70.9504 35.1401 71.1223C35.8305 72.9941 36.9461 76.0183 39.0146 78.389ZM46.9617 54.6688C46.9572 54.6666 46.9527 54.6643 46.9505 54.6621C46.955 54.6621 46.9595 54.6621 46.964 54.6643C46.964 54.6643 46.9595 54.6666 46.9617 54.6688L46.9617 54.6688ZM48.9912 51.3081C48.9902 51.3061 48.9892 51.3042 48.988 51.3022C48.9865 51.2997 48.9847 51.2972 48.9822 51.2946L48.9878 51.2934L48.9934 51.2924C48.9968 51.2918 49.0002 51.2913 49.0046 51.2902L49.002 51.2948C48.9995 51.2987 48.9959 51.3034 48.9912 51.3081ZM97.0018 59.0442C96.9187 60.0679 96.7616 61.0714 96.5393 62.0502C96.4091 62.6227 96.2565 63.1884 96.0791 63.7407V63.7452C95.5403 65.4581 94.795 67.0789 93.8701 68.5786C93.6029 69.0118 93.3201 69.4361 93.0238 69.8514C91.2031 72.368 89.9122 75.2932 89.3151 78.4631C89.1714 79.2062 89.0681 79.965 89.0075 80.7328C88.9581 81.3232 88.9334 81.9181 88.9334 82.5197C88.9334 83.1416 88.9604 83.759 89.012 84.3696C89.0861 85.2676 89.2185 86.1498 89.4004 87.0141C89.452 87.2588 89.5081 87.4991 89.5688 87.7393C89.3241 87.4766 89.0906 87.2072 88.8661 86.9311H88.8638C88.4979 86.4821 88.1522 86.0151 87.8312 85.5302C86.9085 84.1451 86.1789 82.6208 85.676 80.9977C85.4335 80.2119 85.245 79.4037 85.1125 78.5776C85.016 77.9782 84.9509 77.3676 84.9194 76.7502V76.748L84.9181 76.7465L84.9178 76.7457C84.9178 76.7452 84.9183 76.7446 84.9194 76.7435L84.9195 76.7434L84.9195 76.7433L84.9196 76.7432C84.9308 76.7231 84.9419 76.703 84.9509 76.6829C84.9482 76.685 84.9455 76.6869 84.9428 76.6886C84.9342 76.694 84.9252 76.6974 84.915 76.7008C84.9015 76.3977 84.8925 76.0924 84.8925 75.7849C84.8925 71.5958 86.3562 67.7457 88.801 64.7195H88.8032C88.8459 64.6611 88.893 64.6027 88.9447 64.5444C90.0402 63.2198 91.331 62.057 92.7678 61.1029C93.5805 60.5618 94.4403 60.0859 95.3383 59.6863C95.8793 59.4438 96.4338 59.2283 97.0018 59.0442ZM84.6052 68.0533C85.2405 66.9982 85.6469 65.7926 85.7591 64.4995C85.4066 64.5377 85.0609 64.6005 84.7242 64.6814C83.3009 65.0271 82.0212 65.7387 80.9886 66.7153C80.4318 67.2384 79.9492 67.84 79.554 68.5C78.9255 69.5484 78.5236 70.7472 78.4136 72.0291C79.0467 71.9595 79.6573 71.8181 80.2365 71.6138C80.3622 71.5711 80.4835 71.524 80.6047 71.4724H80.6069C82.2817 70.7944 83.6848 69.5844 84.6052 68.0533ZM28.2792 34.5653C27.3318 34.9739 26.4316 35.47 25.5875 36.0447H25.5853C25.1048 36.3725 24.6424 36.7227 24.2001 37.0976C23.5177 37.6768 22.8846 38.3099 22.3054 38.9901V38.9923C22.0517 39.2887 21.8092 39.5962 21.578 39.9128C21.5039 40.016 21.4276 40.1171 21.349 40.2158C18.9065 43.3722 15.0811 45.4039 10.782 45.4039C10.6518 45.4039 10.5194 45.4017 10.3891 45.3972C9.65505 45.377 8.93666 45.2962 8.23624 45.1592C6.7164 44.8674 5.2886 44.3174 4 43.5541C7.01498 42.9771 9.68423 41.4304 11.671 39.2483C11.6733 39.2438 11.6755 39.2415 11.68 39.237C12.1896 38.678 12.7374 38.155 13.3211 37.6701C13.7319 37.3266 14.1607 37.0056 14.6052 36.7047C16.473 35.4386 18.6192 34.5518 20.9337 34.1545C21.5421 34.0489 22.1662 33.9771 22.797 33.9412C23.0327 33.93 23.2707 33.921 23.5087 33.9187C23.5783 33.9165 23.6479 33.9165 23.7175 33.9165C23.814 33.9165 23.9105 33.9165 24.0071 33.9187C25.4887 33.9457 26.921 34.1679 28.2792 34.5653ZM13.999 53.6205C14.6658 51.0545 15.7726 48.6703 17.2408 46.5489C15.4875 47.8756 13.9339 49.4583 12.6364 51.2386C11.5655 52.7045 10.6698 54.3074 9.98058 56.0136C9.73812 56.6018 9.52485 57.2057 9.33627 57.8185C8.80871 59.5202 8.48095 61.3095 8.37543 63.1593C8.37319 63.1683 8.37319 63.1773 8.37319 63.1862C8.24972 64.8969 7.77827 66.5896 6.95662 68.1453C6.44252 69.1197 5.79373 70.0378 5.008 70.8775H5.00575C4.91371 70.9762 4.81942 71.075 4.72289 71.1715C4.53656 71.3579 4.34573 71.5375 4.15042 71.7103C4.67799 71.625 5.20106 71.5083 5.7174 71.3556C6.86233 71.0256 7.96685 70.534 9.00177 69.8785C9.40587 69.627 9.79873 69.3486 10.1781 69.0433C10.5575 68.7425 10.9257 68.4147 11.2782 68.0623C12.0123 67.3282 12.6408 66.5267 13.1617 65.6804C13.4221 65.2606 13.6556 64.8295 13.8621 64.3873C13.7476 63.9046 13.6511 63.4152 13.5725 62.9191C13.3794 61.736 13.2784 60.5215 13.2784 59.2845C13.2784 57.3291 13.5276 55.4322 13.999 53.6227V53.6205Z" fill="url(#paint0_linear_65_66339)"/>
    </g>
    <defs>
        <linearGradient id="paint0_linear_65_66339" x1="4" y1="54" x2="102.494" y2="53.8662" gradientUnits="userSpaceOnUse">
            <stop stop-color="#95765C"/>
            <stop offset="1" stop-color="#DDBA8E"/>
        </linearGradient>
        <clipPath id="clip0_65_66339">
            <rect width="108" height="108" fill="white"/>
        </clipPath>
    </defs>
</svg>