<svg xmlns="http://www.w3.org/2000/svg" width="213" height="40" viewBox="0 0 213 40" fill="none">
    <path fill-rule="evenodd" clip-rule="evenodd" d="M48.649 32.2096C50.1641 33.0514 51.8224 33.4722 53.6237 33.4722C55.2904 33.4722 56.7046 33.2029 57.8662 32.6642C59.0278 32.1086 60.1389 31.2584 61.1995 30.1137C61.25 30.0463 61.351 30.0463 61.5025 30.1137C61.6541 30.181 61.7803 30.2568 61.8813 30.3409L62.1844 29.9621L58.4217 26.8056L58.0935 27.1591C58.1776 27.2096 58.2534 27.2938 58.3207 27.4116C58.4049 27.5126 58.447 27.6052 58.447 27.6894L58.3965 27.7904C57.7399 28.5143 57.0413 29.0615 56.3005 29.4318C55.5598 29.7854 54.6675 29.9621 53.6237 29.9621C52.5126 29.9621 51.4689 29.6844 50.4924 29.1288C49.516 28.5732 48.7332 27.8157 48.1439 26.8561C47.5547 25.8796 47.2601 24.8022 47.2601 23.6237C47.2601 22.3948 47.5379 21.2837 48.0934 20.2904C48.649 19.2971 49.4066 18.5227 50.3662 17.9672C51.3258 17.3948 52.378 17.1086 53.5227 17.1086C54.617 17.1086 55.5429 17.2938 56.3005 17.6641C57.0749 18.0177 57.8157 18.5396 58.5227 19.2298C58.5901 19.2803 58.5901 19.3645 58.5227 19.4823C58.4722 19.5833 58.3965 19.6675 58.2955 19.7349L58.5985 20.1136L62.0834 17.3611L61.7803 16.9823C61.5278 17.1338 61.351 17.2096 61.25 17.2096C61.1827 17.2096 61.1322 17.1928 61.0985 17.1591C60.0547 16.0817 58.9436 15.2483 57.7652 14.6591C56.6035 14.053 55.1726 13.75 53.4722 13.75C51.7046 13.75 50.08 14.1625 48.5985 14.9874C47.117 15.7955 45.9386 16.9487 45.0631 18.447C44.1877 19.9453 43.75 21.6709 43.75 23.6237C43.75 25.4756 44.1877 27.1591 45.0631 28.6743C45.9386 30.1726 47.1338 31.351 48.649 32.2096ZM76.3674 13.75V17.7904H75.8876C75.8876 17.6726 75.8623 17.5547 75.8118 17.4369C75.7613 17.319 75.694 17.2601 75.6098 17.2601H67.428V21.7298H74.0442C74.1283 21.7298 74.1957 21.6709 74.2462 21.553C74.2967 21.4352 74.3219 21.3173 74.3219 21.1995H74.8017V25.2399H74.3219C74.3219 25.1221 74.2967 25.0042 74.2462 24.8864C74.1957 24.7685 74.1283 24.7096 74.0442 24.7096H67.428V32.4621C67.428 32.5463 67.4869 32.6137 67.6048 32.6642C67.7394 32.7147 67.8741 32.7399 68.0088 32.7399V33.2197H63.5644V32.7399C63.699 32.7399 63.8253 32.7147 63.9431 32.6642C64.0778 32.6137 64.1452 32.5463 64.1452 32.4621V15.0379C64.1452 14.9537 64.0778 14.8864 63.9431 14.8359C63.8253 14.7854 63.7075 14.7601 63.5896 14.7601V14.2803H75.6098C75.694 14.2803 75.7613 14.2214 75.8118 14.1035C75.8623 13.9857 75.8876 13.8678 75.8876 13.75H76.3674ZM151.557 33.6238C149.604 33.6238 147.853 33.1776 146.304 32.2854C144.772 31.3763 143.577 30.181 142.718 28.6995C141.877 27.2012 141.456 25.6187 141.456 23.952C141.456 22.2685 141.86 20.6524 142.668 19.1035C143.476 17.5379 144.646 16.2668 146.178 15.2904C147.71 14.314 149.503 13.8258 151.557 13.8258C153.56 13.8258 155.319 14.2887 156.834 15.2146C158.35 16.1406 159.511 17.3779 160.319 18.9268C161.127 20.4588 161.531 22.1338 161.531 23.952C161.531 25.5682 161.127 27.1254 160.319 28.6237C159.528 30.1052 158.375 31.3089 156.86 32.2349C155.345 33.1608 153.577 33.6238 151.557 33.6238ZM151.582 30.2904C152.845 30.2904 153.973 30.0295 154.966 29.5076C155.976 28.9689 156.759 28.2197 157.314 27.2601C157.887 26.2837 158.173 25.181 158.173 23.952C158.173 22.6557 157.903 21.4941 157.365 20.4672C156.826 19.4402 156.052 18.6322 155.042 18.0429C154.031 17.4369 152.836 17.1338 151.456 17.1338C150.193 17.1338 149.065 17.4369 148.072 18.0429C147.095 18.6322 146.329 19.4487 145.774 20.4924C145.218 21.5362 144.941 22.6894 144.941 23.952C144.941 25.2652 145.26 26.4015 145.9 27.3611C146.557 28.3207 147.39 29.053 148.4 29.5581C149.427 30.0463 150.488 30.2904 151.582 30.2904ZM178.993 32.7399C178.605 32.7399 178.378 32.681 178.311 32.5631L173.74 24.9873C175.003 24.6843 176.03 24.0867 176.821 23.1944C177.629 22.3022 178.033 21.1237 178.033 19.6591C178.033 18.0766 177.461 16.7887 176.316 15.7954C175.188 14.7853 173.513 14.2803 171.291 14.2803H163.589V14.7601C163.706 14.7601 163.824 14.7853 163.942 14.8358C164.077 14.8863 164.144 14.9537 164.144 15.0378V32.4621C164.144 32.5463 164.077 32.6136 163.942 32.6641C163.808 32.7146 163.681 32.7399 163.563 32.7399V33.2197H168.109V32.7399C167.991 32.7399 167.865 32.7146 167.73 32.6641C167.595 32.6136 167.528 32.5463 167.528 32.4621V25.2146H170.129L174.371 32.3611C174.439 32.4453 174.43 32.5294 174.346 32.6136C174.262 32.6978 174.102 32.7399 173.866 32.7399V33.2197H178.993V32.7399ZM167.528 22.1591V17.2096H171.745C172.604 17.2096 173.328 17.4537 173.917 17.9419C174.506 18.4133 174.801 18.9857 174.801 19.6591C174.801 20.3493 174.54 20.9385 174.018 21.4267C173.496 21.9149 172.713 22.1591 171.669 22.1591H167.528ZM193.53 29.6086V33.75H193.05C193.05 33.649 193.025 33.5311 192.974 33.3964C192.924 33.2786 192.856 33.2197 192.772 33.2197H180.777V32.7399C180.895 32.7399 181.013 32.7146 181.131 32.6641C181.265 32.6136 181.333 32.5463 181.333 32.4621V15.0378C181.333 14.9537 181.265 14.8863 181.131 14.8358C180.996 14.7853 180.87 14.7601 180.752 14.7601V14.2803H185.297V14.7601C185.18 14.7601 185.053 14.7853 184.919 14.8358C184.784 14.8863 184.717 14.9537 184.717 15.0378V30.1389H192.772C192.856 30.1389 192.924 30.0799 192.974 29.9621C193.025 29.8274 193.05 29.7096 193.05 29.6086H193.53ZM202.67 14.2803C204.555 14.2803 206.197 14.6675 207.594 15.4419C208.991 16.1995 210.069 17.3021 210.826 18.75C211.601 20.1978 211.988 21.9149 211.988 23.9015C211.988 25.8038 211.575 27.4621 210.75 28.8762C209.942 30.2735 208.806 31.351 207.341 32.1086C205.894 32.8493 204.235 33.2197 202.367 33.2197H195.548V32.7399C195.666 32.7399 195.784 32.7146 195.902 32.6641C196.037 32.6136 196.104 32.5463 196.104 32.4621V15.0378C196.104 14.9537 196.037 14.8863 195.902 14.8358C195.784 14.7853 195.666 14.7601 195.548 14.7601V14.2803H202.67ZM201.887 30.2399C203.351 30.2399 204.597 29.9789 205.624 29.457C206.668 28.9183 207.451 28.1692 207.973 27.2096C208.511 26.25 208.781 25.1304 208.781 23.851C208.781 21.8476 208.242 20.2483 207.165 19.053C206.087 17.8577 204.429 17.2601 202.19 17.2601H199.412V30.2399H201.887ZM125.572 32.5884C125.387 32.4705 125.336 32.2685 125.42 31.9823L128.451 19.2298L131.203 31.9823C131.27 32.2685 131.203 32.4705 131.001 32.5884C130.816 32.6894 130.631 32.7399 130.445 32.7399V33.2197H135.951V32.7399C135.799 32.7399 135.639 32.7062 135.471 32.6389C135.319 32.5547 135.243 32.4116 135.243 32.2096C135.243 32.1254 135.252 32.0581 135.269 32.0076L139.94 15.0126C139.991 14.8442 140.159 14.7601 140.446 14.7601V14.2803H135.067V14.7601C135.286 14.7601 135.488 14.819 135.673 14.9368C135.875 15.0547 135.959 15.1641 135.925 15.2651L133.451 27.5631L130.572 15.5176C130.488 15.2314 130.547 15.0378 130.749 14.9368C130.951 14.819 131.153 14.7601 131.355 14.7601V14.2803H125.344V14.7601C125.513 14.7601 125.69 14.8021 125.875 14.8863C126.06 14.9705 126.153 15.1136 126.153 15.3156C126.153 15.3998 126.144 15.4671 126.127 15.5176L123.198 28.1692L120.041 15.2651C120.025 15.1473 120.067 15.0378 120.168 14.9368C120.269 14.819 120.42 14.7601 120.622 14.7601V14.2803H115.698V14.7601C116.001 14.7601 116.169 14.8442 116.203 15.0126L120.951 32.0076C120.967 32.0581 120.976 32.1254 120.976 32.2096C120.976 32.4116 120.892 32.5547 120.723 32.6389C120.555 32.7062 120.395 32.7399 120.243 32.7399V33.2197H126.178V32.7399C125.976 32.7399 125.774 32.6894 125.572 32.5884ZM103.035 33.5985C102.177 33.5985 101.343 33.4217 100.535 33.0682C99.744 32.7146 98.9443 32.2096 98.1362 31.553C98.1026 31.5194 98.0605 31.5025 98.01 31.5025C97.8753 31.5025 97.7322 31.5783 97.5807 31.7298L97.2271 31.4268L99.7524 28.548L100.106 28.8763C100.039 28.9604 99.9797 29.0614 99.9292 29.1793C99.8955 29.2971 99.9123 29.3897 99.9797 29.4571C100.535 29.9621 101.049 30.3409 101.52 30.5934C102.008 30.8291 102.513 30.947 103.035 30.947C104.332 30.947 104.98 30.5177 104.98 29.6591C104.98 29.2719 104.778 28.9773 104.374 28.7752C103.986 28.5564 103.33 28.3207 102.404 28.0682C101.209 27.7483 100.342 27.3359 99.8029 26.8308C99.2642 26.3089 98.9948 25.6018 98.9948 24.7096C98.9948 23.649 99.3399 22.7904 100.03 22.1338C100.72 21.4604 101.663 21.1237 102.858 21.1237C103.465 21.1237 104.012 21.2163 104.5 21.4015C104.988 21.5867 105.577 21.915 106.268 22.3864C106.284 22.4032 106.318 22.4116 106.369 22.4116C106.453 22.4116 106.537 22.3864 106.621 22.3358C106.705 22.2853 106.764 22.2348 106.798 22.1843L107.177 22.5126L104.904 25.0884L104.55 24.7853C104.618 24.718 104.66 24.6338 104.677 24.5328C104.71 24.415 104.693 24.3224 104.626 24.255C104.323 24.0194 104.028 23.8426 103.742 23.7247C103.473 23.6069 103.17 23.548 102.833 23.548C102.48 23.548 102.202 23.6153 102 23.75C101.798 23.8847 101.697 24.0867 101.697 24.3561C101.697 24.5749 101.756 24.7517 101.874 24.8864C101.991 25.021 102.202 25.1557 102.505 25.2904C102.825 25.4251 103.305 25.5934 103.944 25.7954C105.123 26.149 106.049 26.6456 106.722 27.2853C107.396 27.9082 107.732 28.6827 107.732 29.6086C107.732 30.9722 107.303 31.9823 106.444 32.6389C105.586 33.2786 104.449 33.5985 103.035 33.5985ZM96.4216 14.7601H96.7246V14.2803H91.1438V14.7601C91.4637 14.7601 91.6236 14.8274 91.6236 14.9621C91.6236 14.9789 91.6068 15.021 91.5731 15.0883L86.7499 21.2752L81.8509 15.0631C81.8341 15.0463 81.8088 15.0126 81.7751 14.9621C81.7415 14.9116 81.7246 14.8779 81.7246 14.8611C81.7246 14.7937 81.8256 14.7601 82.0277 14.7601V14.2803H77.1287V14.7601H77.457C77.6758 14.7601 77.8189 14.8021 77.8862 14.8863L84.4519 23.9015L77.8862 32.6136C77.8021 32.6978 77.6085 32.7399 77.3054 32.7399H77.1287V33.2197H82.7095V32.7399C82.558 32.7399 82.4317 32.723 82.3307 32.6894C82.2465 32.6389 82.2044 32.5884 82.2044 32.5379C82.2044 32.521 82.2213 32.4789 82.2549 32.4116L86.7246 26.6035L91.1691 32.4116C91.2364 32.5126 91.2701 32.5799 91.2701 32.6136C91.2701 32.6978 91.1691 32.7399 90.9671 32.7399V33.2197H96.3206V32.7399H95.9671C95.7651 32.7399 95.6304 32.6978 95.563 32.6136L88.9216 23.6995L95.9418 14.8611C95.9923 14.7937 96.1523 14.7601 96.4216 14.7601Z" fill="#AD8D65"/>
    <path fill-rule="evenodd" clip-rule="evenodd" d="M37.1687 8.0418C37.1687 7.16294 36.9247 6.53934 36.6741 6.12361C36.4234 5.70788 36.2538 5.53909 36.1727 5.45844C35.6798 4.96791 35.0382 4.68357 34.5098 4.44937C34.3217 4.36599 34.1479 4.28896 34.0002 4.21124C32.6135 3.48068 31.7842 2.49495 31.7269 2.42691L31.7241 2.42359L31.7212 2.42054C31.6934 2.39229 31.4848 2.18081 31.3264 1.55055C31.2279 1.15711 31.2176 0.865734 31.2097 0.642863V0.64283C31.2061 0.542611 31.2031 0.456244 31.1927 0.380677C31.1593 0.137057 30.9086 -0.112382 30.4908 0.0539109C30.1381 0.22939 30.1469 0.671399 30.1545 1.05775L30.1545 1.05793C30.1556 1.1127 30.1566 1.16635 30.1566 1.21796C30.1566 1.49401 30.3237 2.46516 30.9922 3.21348C31.0505 3.27875 31.1037 3.33896 31.1533 3.39505C31.6721 3.982 31.7918 4.11747 33.1647 4.87641C33.5426 5.0854 33.8737 5.24504 34.1542 5.38024C34.4796 5.53711 34.7367 5.66107 34.9194 5.79102C34.9759 5.83122 35.0328 5.86989 35.0894 5.90839C35.6184 6.2681 36.1243 6.61213 36.1243 8.03016C36.1243 8.36607 36.0658 8.68868 35.9571 8.98801C35.7574 8.82836 35.5277 8.70531 35.2778 8.62715C35.0773 8.56313 34.8625 8.52904 34.6411 8.52904C34.4423 8.52904 34.2492 8.55647 34.0671 8.60886C33.7989 8.68286 33.5532 8.81007 33.3401 8.9772L33.3395 8.97633C33.3393 8.97579 33.3393 8.97524 33.3393 8.9747C33.0159 9.20918 32.6182 9.34637 32.1879 9.34637C31.8754 9.34637 31.5796 9.27403 31.3172 9.14349C31.3181 9.14432 31.3181 9.14598 31.3172 9.14682C31.0724 9.04371 30.8159 8.96306 30.5493 8.90819C30.4875 8.89488 30.4257 8.88407 30.363 8.87409C30.2778 8.47998 30.124 8.11164 29.9151 7.78072C29.8458 7.67013 29.7706 7.56371 29.6887 7.46227C29.6594 7.42485 29.6294 7.3891 29.5976 7.35334C29.5888 7.34295 29.5799 7.33277 29.5709 7.32258L29.5524 7.30144L29.5441 7.29182C29.4196 7.15629 29.2851 7.03074 29.1414 6.91599C29.0645 6.85447 28.9851 6.79626 28.9024 6.74139C28.8189 6.68568 28.7328 6.6333 28.6434 6.58507C28.1487 6.31401 27.5797 6.15936 26.9748 6.15936C26.7191 6.15936 26.4701 6.1868 26.2303 6.23918H26.2294C26.1266 6.26163 26.0264 6.28824 25.9286 6.31983C25.7707 6.36889 25.6178 6.42959 25.4707 6.49943C25.378 6.39965 25.281 6.30404 25.1808 6.21174C24.1931 5.30212 22.8713 4.74587 21.4182 4.74587C21.0639 4.74587 20.718 4.77913 20.3829 4.84232C21.6898 5.10506 22.8069 5.88747 23.5071 6.96422C23.157 7.0457 22.7927 7.08894 22.4175 7.08894C21.2125 7.08894 19.4683 6.09003 18.7941 5.70392L18.794 5.7039L18.794 5.70387L18.7939 5.70382C18.6519 5.62252 18.5574 5.56841 18.5255 5.55655C18.2873 5.44181 18.0433 5.33704 17.7935 5.24475C17.6932 5.20733 17.5921 5.17158 17.4902 5.13832C17.1493 5.02524 16.7983 4.93378 16.4399 4.86477C16.2778 4.83317 16.114 4.80657 15.9486 4.78495C15.7981 4.76499 15.6461 4.74836 15.494 4.73589C15.3586 4.72176 15.2275 4.69515 15.1013 4.65441C15.0461 4.63778 14.991 4.61782 14.9375 4.59454C14.8122 4.54299 14.6935 4.47814 14.5824 4.40247C14.0677 4.04993 13.7309 3.46042 13.7309 2.79193C13.7309 2.62314 13.7527 2.45934 13.7928 2.30386C13.7961 2.29222 13.7995 2.27974 13.8028 2.26727C13.8112 2.22986 13.8153 2.19078 13.8153 2.15087C13.8153 1.97875 13.7335 1.82576 13.6056 1.72931C13.5822 1.71102 13.5571 1.69522 13.5312 1.68192C13.4569 1.64201 13.3716 1.61956 13.2814 1.61956C13.0759 1.61956 12.8979 1.73513 12.8085 1.90475C12.8018 1.91722 12.7951 1.93136 12.7893 1.94466C12.7625 2.00037 12.7383 2.05691 12.7157 2.11428C12.6957 2.165 12.6773 2.21572 12.6597 2.26727C12.5603 2.5666 12.506 2.88671 12.506 3.2193V3.21946C12.506 3.24352 12.506 3.26758 12.5068 3.29164C12.5085 3.34485 12.511 3.3989 12.5152 3.45128V3.45294C12.5561 3.98508 12.7349 4.47814 13.0165 4.8972C13.0533 4.95207 13.0926 5.00612 13.1335 5.0585C12.9121 5.10174 12.6831 5.12502 12.4492 5.12502C12.4325 5.12502 12.4166 5.12502 12.3999 5.12419C12.3314 5.12335 12.2628 5.12086 12.1952 5.11587C12.0648 5.10673 11.9361 5.0901 11.81 5.06681C11.0981 4.93628 10.4622 4.59039 9.97254 4.10065C9.34252 3.47206 8.95398 2.60485 8.95398 1.647V1.60958C8.9498 1.28531 8.68409 1.0234 8.35738 1.0234C8.05324 1.0234 7.80257 1.24956 7.7658 1.54223C7.76413 1.5572 7.76246 1.573 7.76162 1.5888C7.74909 1.72599 7.74324 1.86401 7.74324 2.00453C7.74324 3.25339 8.22286 4.39167 9.00913 5.24558C9.32414 5.58814 9.68929 5.88498 10.092 6.12527C10.5207 6.38136 10.9928 6.5726 11.495 6.68568C11.5835 6.70563 11.6721 6.72309 11.7623 6.73806C12.0239 6.78213 12.2921 6.80458 12.5662 6.80458C12.7692 6.80458 12.9689 6.79211 13.1653 6.76799H13.1661L13.2588 6.75552L13.3107 6.74804C13.6232 6.70231 13.9423 6.6757 14.2657 6.66988C14.3158 6.66905 14.3668 6.66822 14.4169 6.66822C14.7754 6.66822 15.128 6.69316 15.4731 6.74139C15.5349 6.74887 15.5968 6.75885 15.6578 6.76882C16.0822 6.83784 16.4942 6.94177 16.8919 7.07813C17.5086 7.28849 18.0884 7.57618 18.6215 7.92872L18.633 7.93643L18.658 7.95304L18.67 7.96115C19.7329 8.66373 20.9829 9.10774 22.3306 9.20169C22.5103 9.215 22.6916 9.22165 22.8746 9.22165C22.9406 9.22165 23.0058 9.22082 23.071 9.21915C23.2255 9.215 23.3801 9.20668 23.5322 9.19255C23.6851 9.18091 23.8372 9.16344 23.9876 9.141C24.0795 9.12769 24.1706 9.11273 24.2608 9.0961C24.9477 8.97054 25.6019 8.7527 26.2102 8.4567C26.3347 8.39683 26.4701 8.35526 26.613 8.33531C26.6564 8.32865 26.6998 8.3245 26.745 8.32283C26.7659 8.322 26.7867 8.32117 26.8076 8.32117C27.1887 8.32117 27.5329 8.47499 27.7828 8.72277C27.8822 8.82171 27.9657 8.93562 28.0309 9.06117C28.0368 9.07198 28.0426 9.08279 28.0476 9.0936C28.056 9.11023 28.0635 9.12686 28.071 9.14432C28.1454 9.31228 28.1863 9.49769 28.1863 9.69309C28.1863 10.1562 27.9557 10.5653 27.6031 10.8131C27.4602 10.9145 27.2964 10.9893 27.1201 11.0293C27.05 11.0459 26.9773 11.0567 26.9029 11.0617C26.8711 11.0642 26.8394 11.065 26.8076 11.065C26.5453 11.065 26.3004 10.9918 26.0916 10.8655C25.8526 10.7208 25.6604 10.5054 25.5468 10.2477C25.2919 10.3616 25.0295 10.4614 24.7605 10.547C24.5633 10.6102 24.3619 10.6651 24.1572 10.7125H24.1564C24.0477 10.7374 23.9374 10.7599 23.8272 10.7798H23.8263C23.7904 10.7873 23.7545 10.7931 23.7186 10.7989L23.7185 10.7989C23.6935 10.8039 23.6676 10.8081 23.6417 10.8114C23.4344 10.8447 23.2247 10.8696 23.0116 10.8846C22.8228 10.8987 22.6315 10.9062 22.4384 10.9062C22.2371 10.9062 22.0365 10.8987 21.8393 10.8829C21.6229 10.8663 21.4082 10.8405 21.1976 10.8056C20.2467 10.6509 19.3543 10.32 18.5572 9.84774C18.1904 9.63239 17.811 9.43783 17.4192 9.26488H17.4183C16.9855 9.07448 16.5385 8.91151 16.0789 8.77848C15.6218 8.64544 15.1523 8.54151 14.6718 8.46834C14.3994 8.4276 14.1237 8.396 13.8454 8.37522C13.5714 8.35526 13.2956 8.34445 13.0165 8.34445C12.7742 8.34445 12.5336 8.35194 12.2946 8.36773C12.013 8.38603 11.7348 8.41513 11.459 8.45504C10.5934 8.57726 9.76031 8.80176 8.97237 9.11522C8.88964 9.14848 8.80776 9.18174 8.72587 9.21666C8.73005 9.21084 8.73423 9.20585 8.74008 9.20003C8.27299 9.3605 7.7775 9.46111 7.26279 9.49187C7.22017 9.4952 7.17672 9.49769 7.13327 9.49852C7.05974 9.50185 6.98538 9.50351 6.91018 9.50351H6.89179C5.59916 9.49936 4.40847 9.06117 3.46094 8.32699C3.51525 8.45919 3.57457 8.58807 3.63808 8.71445L3.64685 8.7315L3.65562 8.74854C4.1461 9.7014 4.90397 10.4963 5.82978 11.0351C6.03951 11.1573 6.25759 11.2662 6.48403 11.361C6.70295 11.4525 6.92856 11.5306 7.16001 11.5946C7.19845 11.6055 7.23688 11.6154 7.27532 11.6246H7.27616C7.34802 11.6429 7.41904 11.6595 7.49173 11.6745C7.86941 11.7551 8.26129 11.7967 8.6632 11.7967C9.71686 11.7967 10.7012 11.509 11.5434 11.0085C11.5443 11.0085 11.5443 11.0076 11.5451 11.0076C11.5468 11.0068 11.5484 11.0058 11.5501 11.0047L11.5501 11.0047L11.5534 11.0027L11.5551 11.0018C11.5568 11.0002 11.5585 10.9993 11.5601 10.9985C11.561 10.9977 11.5618 10.9977 11.5626 10.9968C11.5743 10.9894 11.586 10.9827 11.5976 10.9761L11.5977 10.976C11.6988 10.9145 11.8024 10.8563 11.9069 10.8014C12.6865 10.3874 13.5538 10.1163 14.4738 10.0215C14.4746 10.0215 14.4746 10.0215 14.4754 10.0207L14.5573 10.0132C14.7704 9.99408 14.986 9.9841 15.2041 9.9841C15.433 9.9841 15.6586 9.99491 15.8817 10.0165C17.1551 10.1379 18.3299 10.5977 19.3134 11.307C18.5956 11.1931 17.8595 11.1407 17.1083 11.1548C16.7215 11.1623 16.3388 11.1872 15.9611 11.2288C15.5984 11.2687 15.24 11.3244 14.8865 11.3951C14.0418 11.5639 13.2271 11.8183 12.4525 12.1484C12.308 12.2099 12.1651 12.274 12.0239 12.3405C11.8601 12.4178 11.6988 12.4976 11.5392 12.5816C11.1591 12.7812 10.7897 13.0007 10.4329 13.2376C10.387 13.2676 10.3419 13.2975 10.2976 13.3291C9.9926 13.5361 9.69848 13.7556 9.41271 13.9901C9.41188 13.9901 9.41188 13.9901 9.41105 13.9909L9.41104 13.9909C9.14616 14.2079 8.88964 14.4349 8.64315 14.6719C8.64315 14.6719 8.64315 14.6722 8.64294 14.6725L8.64269 14.6727L8.64231 14.6727C8.64231 14.6727 8.64231 14.6736 8.64148 14.6736C8.52263 14.7652 8.26365 15.0479 8.11038 15.2153L8.11033 15.2153L8.08332 15.2448C7.88194 15.4643 7.68809 15.6904 7.50176 15.9241C7.37392 16.0837 7.25025 16.2467 7.12993 16.4122L7.1298 16.4123L7.12976 16.4124L7.12972 16.4125L7.12967 16.4125C7.08631 16.4731 7.04294 16.5337 7.00042 16.5951C6.38126 17.4823 5.86989 18.4526 5.48469 19.4861C5.22399 20.1862 5.02095 20.9137 4.88224 21.6654V21.6662C4.74187 22.4228 4.6675 23.2027 4.66332 23.9993V24.0259C4.66332 24.124 4.66416 24.2221 4.66583 24.3202C4.6792 25.0303 4.74939 25.7262 4.87055 26.403C4.88559 26.4895 4.9023 26.576 4.91984 26.6616V26.6625C5.03432 27.2395 5.18723 27.8016 5.37439 28.347C5.37941 28.362 5.38191 28.3786 5.38191 28.3961C5.38191 28.4568 5.34849 28.51 5.29919 28.5382C5.27496 28.5524 5.24655 28.5607 5.21647 28.5607C5.14879 28.5607 5.09114 28.5208 5.0644 28.4634C5.06336 28.4598 5.06199 28.4558 5.0605 28.452L5.05771 28.4451L5.05762 28.4447L5.05746 28.4444C5.05731 28.4442 5.05722 28.444 5.05771 28.4435C4.96831 28.2015 4.85968 27.9645 4.73184 27.7359C4.27729 26.9601 4.0191 26.1012 3.9581 25.2315C3.95726 25.2307 3.95727 25.2299 3.95727 25.2299C3.94724 25.0827 3.94222 24.9355 3.94306 24.7892C3.89376 24.854 3.84446 24.9205 3.79851 24.9871C3.55786 25.3288 3.36317 25.6921 3.21277 26.0696C2.94038 26.7506 2.81504 27.4756 2.83593 28.1982C2.83844 28.2988 2.84429 28.3994 2.85264 28.5C2.88773 28.9182 2.97213 29.3323 3.10582 29.7347L3.10584 29.7348C3.11336 29.7572 3.12087 29.7797 3.12838 29.8012C3.61635 31.307 3.55034 32.9525 2.93118 34.4209C3.27628 34.2155 3.60131 33.9644 3.89878 33.6684C4.32157 33.2477 4.6533 32.7696 4.89311 32.2599C5.11537 31.7868 5.25825 31.2871 5.32175 30.779C5.33011 30.7192 5.33679 30.6585 5.34181 30.5986V30.5936C5.34181 30.582 5.34264 30.5712 5.34515 30.5604V30.5595C5.36103 30.4847 5.42787 30.4282 5.50809 30.4282C5.59415 30.4282 5.66517 30.493 5.67353 30.577C5.6869 30.73 5.70445 30.8822 5.72701 31.0326C5.82226 31.7236 5.99439 32.3913 6.23253 33.0257C7.08147 35.2922 8.776 37.1489 10.9351 38.2157C10.4923 37.6428 10.2107 36.9419 10.1555 36.1778C10.1489 36.0863 10.1455 35.9948 10.1455 35.9017C10.1455 35.5267 10.1998 35.1642 10.3018 34.8225C10.3703 34.5913 10.4605 34.3693 10.57 34.159C10.565 34.2396 10.5633 34.3211 10.5633 34.4026C10.5633 34.6121 10.5767 34.8191 10.6026 35.022C10.7889 36.4605 11.6153 37.6993 12.7876 38.4477C12.8553 38.4909 12.9246 38.5325 12.9948 38.5724C13.3641 38.7861 13.7477 38.979 14.1446 39.1477C14.1454 39.1486 14.1454 39.1486 14.1462 39.1486C14.4713 39.2874 14.8038 39.4105 15.1456 39.5169H15.1464C16.1508 39.8312 17.2186 40 18.3266 40C21.3773 40 24.1263 38.7195 26.0606 36.6692C26.0907 36.6384 26.12 36.6068 26.1484 36.5752C26.1676 36.5552 26.186 36.5353 26.2035 36.5153C26.2311 36.4862 26.2578 36.4563 26.2837 36.4264C26.2854 36.4239 26.2871 36.4222 26.2887 36.4205C26.9572 35.6531 27.4569 34.7368 27.7301 33.7283C27.8872 33.1554 27.9699 32.5534 27.9699 31.9315C27.9699 31.7244 27.9607 31.5199 27.9423 31.3178C27.9398 31.2896 27.9373 31.2613 27.934 31.233C27.8914 30.8073 27.8095 30.3932 27.6908 29.995C27.609 29.7148 27.5087 29.4421 27.3917 29.1785C27.3892 29.1718 27.3867 29.1652 27.3825 29.1585C27.3274 29.033 27.2689 28.9099 27.2054 28.7894C26.9731 28.3412 26.6923 27.9221 26.3698 27.538C25.9963 27.0915 25.566 26.6941 25.0905 26.354L25.0903 26.3538C25.0486 26.3248 25.0069 26.2957 24.9652 26.2675C24.9218 26.2368 24.8775 26.2077 24.8332 26.1794C24.5056 25.9665 24.1589 25.7811 23.7954 25.6265C23.7327 25.599 23.6692 25.5732 23.6057 25.5483C23.1361 25.3637 22.6415 25.229 22.1276 25.1509L22.12 25.1499L22.1158 25.1493C22.1113 25.1487 22.1066 25.148 22.1017 25.1475C21.8602 25.1109 21.6137 25.0877 21.3647 25.0785C21.348 25.0769 21.3305 25.076 21.3138 25.0769C21.2352 25.0735 21.1558 25.0719 21.0765 25.0719C20.7355 25.0719 20.3996 25.0968 20.0721 25.1442C20.0641 25.1455 20.0561 25.1466 20.0479 25.1477L20.0477 25.1478L20.0261 25.1509C19.9443 25.1633 19.8632 25.1775 19.7822 25.1933C19.7696 25.1916 19.7571 25.1899 19.7446 25.1874C19.6987 25.1928 19.6522 25.1974 19.6063 25.202L19.6061 25.202L19.5933 25.2032C19.5624 25.2057 19.5315 25.2082 19.5006 25.2099C19.3151 25.2249 19.1262 25.2323 18.9366 25.2323C18.7126 25.2323 18.492 25.2224 18.2739 25.2024L18.2205 25.1974C17.3807 25.1151 16.5894 24.8889 15.8792 24.548C15.7739 24.4982 15.6703 24.4449 15.5684 24.3884C15.3603 24.2753 15.1606 24.1514 14.9693 24.0184C14.94 23.9984 14.9116 23.9785 14.884 23.9577C14.8773 23.9536 14.8715 23.9494 14.8648 23.9444C14.7094 23.8313 14.5598 23.7124 14.4178 23.5869C14.3451 23.5237 14.2741 23.458 14.2055 23.3915C13.8571 23.0556 13.5538 22.6831 13.3048 22.2798C13.1937 22.1002 13.0926 21.9148 13.0048 21.7236C12.9956 21.7061 12.9873 21.6878 12.9798 21.6703C12.9472 21.5997 12.9163 21.5273 12.8879 21.455C12.8544 21.3743 12.8244 21.292 12.7959 21.2097C12.7232 20.9969 12.6639 20.779 12.6196 20.5562C12.6113 20.5583 12.6027 20.5606 12.5941 20.5628L12.5687 20.5695C12.5753 20.5653 12.5817 20.561 12.5883 20.5567L12.5885 20.5566C12.591 20.5549 12.5935 20.5532 12.5961 20.5515C12.5998 20.549 12.6036 20.5466 12.6075 20.5441L12.6163 20.5387C12.572 20.3151 12.5428 20.0856 12.5294 19.8536C12.5269 19.8095 12.5252 19.7646 12.5244 19.7206C12.5219 19.6682 12.521 19.6158 12.521 19.5626C12.521 18.9082 12.6464 18.2788 12.8787 17.6943C12.9288 17.5654 12.9848 17.4382 13.0466 17.3135C13.0926 17.2195 13.141 17.1264 13.1928 17.0349C13.3198 16.8104 13.4627 16.5943 13.6215 16.388C13.7435 16.2284 13.8747 16.0746 14.0142 15.9274C14.2548 15.6722 14.5214 15.436 14.8097 15.2223C15.1071 15.0012 15.4272 14.8033 15.7672 14.6328C15.8717 14.5796 15.9786 14.5297 16.0873 14.4823C16.5009 14.3002 16.9404 14.1572 17.3991 14.0583C17.4225 14.0525 17.4451 14.0475 17.4685 14.0433C17.9397 13.9452 18.4319 13.8937 18.9366 13.8937C19.3995 13.8937 19.8507 13.9369 20.2852 14.02H20.2877C20.3044 14.0225 20.3211 14.025 20.337 14.03C20.464 14.0641 20.5592 14.173 20.5734 14.3061C20.5743 14.3177 20.5751 14.3293 20.5751 14.341C20.5751 14.5073 20.4481 14.6445 20.2852 14.6611C19.6986 14.7068 19.1363 14.8291 18.6107 15.0161C18.1344 15.1857 17.6899 15.4078 17.2838 15.6763H17.283C17.176 15.7462 17.0724 15.8193 16.9713 15.8958C16.8702 15.9715 16.7724 16.0505 16.678 16.1328C16.5869 16.2101 16.4992 16.2908 16.4148 16.3747C16.038 16.7423 15.7188 17.158 15.4698 17.6103C15.3478 17.8315 15.2425 18.061 15.1556 18.2988C15.0219 18.6596 14.9317 19.0388 14.889 19.4295L14.9041 19.442C14.9005 19.443 14.8969 19.4444 14.8935 19.4456L14.8874 19.4478C14.869 19.6158 14.8598 19.7854 14.8598 19.9567C14.8598 20.044 14.8623 20.1305 14.8665 20.2169C14.8698 20.2668 14.8732 20.3167 14.8773 20.3666C14.8874 20.4872 14.9024 20.6069 14.9216 20.7258C14.95 20.9029 14.9885 21.0767 15.0361 21.2471C15.0528 21.3078 15.0712 21.3669 15.0904 21.4259V21.4267C15.1155 21.5065 15.1431 21.5847 15.1723 21.6629H15.1731C15.1856 21.6969 15.199 21.7308 15.2123 21.7648L15.2123 21.7649L15.2124 21.7651H15.2132C15.2433 21.84 15.2759 21.9148 15.3102 21.988C15.3194 22.0088 15.3286 22.0287 15.3386 22.0487C15.3812 21.9422 15.4263 21.8366 15.4739 21.7327C15.4873 21.7019 15.5015 21.672 15.5166 21.6412C15.6127 21.4392 15.7188 21.2421 15.8332 21.0517C15.8569 21.0117 15.8815 20.9726 15.906 20.9338L15.9285 20.8979H15.9293C16.0346 20.7325 16.1466 20.572 16.2661 20.4173C16.2995 20.3724 16.3346 20.3284 16.3697 20.2851C16.3571 20.2835 16.3446 20.2818 16.3321 20.281C16.3596 20.2627 16.3879 20.2453 16.4162 20.2279L16.4165 20.2278C16.5568 20.0573 16.7047 19.8935 16.861 19.738C16.8894 19.7089 16.9178 19.6806 16.9479 19.6524C16.9955 19.6058 17.0431 19.5609 17.0916 19.5177C17.1994 19.4179 17.3105 19.3231 17.425 19.2317C17.5746 19.1111 17.7292 18.9972 17.8887 18.8899H17.8904L17.8909 18.8898C17.8911 18.8896 17.8913 18.8894 17.8913 18.8891C18.2639 18.638 18.66 18.4218 19.0794 18.2464V18.2455C19.1363 18.2223 19.1939 18.199 19.2524 18.1765C19.4304 18.1075 19.6117 18.0452 19.7964 17.9911C20.235 17.8622 20.6921 17.7749 21.1634 17.7359C21.2411 17.7284 21.3188 17.7234 21.3973 17.7192C21.3965 17.7176 21.3956 17.7159 21.3948 17.7134H21.424C21.475 17.7134 21.526 17.7134 21.5761 17.7126H21.5778C21.7299 17.7101 21.8803 17.7043 22.0298 17.6943C22.0811 17.6927 22.1316 17.6887 22.1828 17.6846L22.1869 17.6843C22.73 17.6444 23.2606 17.5604 23.7762 17.4357C24.1054 17.3567 24.4288 17.2619 24.7438 17.1505C24.8666 17.1081 24.9878 17.0632 25.1073 17.0158C25.022 17.1281 24.9343 17.2386 24.844 17.3476C24.6184 17.6194 24.3786 17.8797 24.1263 18.1258C24.0477 18.2031 23.9675 18.2788 23.8865 18.3536C23.4227 18.7768 22.9181 19.1585 22.3791 19.4886C22.3164 19.5285 22.2529 19.5667 22.1894 19.6025C21.983 19.7247 21.7716 19.8386 21.5552 19.9442C21.45 19.9966 21.343 20.0473 21.2352 20.0956C21.2218 20.1014 21.2076 20.108 21.1943 20.113C21.0681 20.1696 20.9403 20.2236 20.8107 20.2743C20.5601 20.3733 20.3044 20.4622 20.0437 20.5412C19.5891 20.6792 19.1212 20.7848 18.6424 20.8572C18.6032 20.863 18.5639 20.8688 18.5246 20.8738C18.4753 20.8813 18.426 20.8879 18.3767 20.8938C18.2389 20.9112 18.0993 20.9254 17.9598 20.9362C17.9598 20.937 17.9598 20.937 17.9589 20.9362C17.9188 20.9395 17.8804 20.9428 17.8403 20.9453C17.8252 20.947 17.8102 20.9478 17.7952 20.9478C17.6456 20.9586 17.4952 20.9653 17.344 20.9678C17.4426 21.011 17.5428 21.0526 17.6439 21.0925C17.6748 21.1049 17.7058 21.1166 17.7375 21.1282L17.7445 21.1298L17.7446 21.1298C17.7575 21.1326 17.7708 21.1355 17.7835 21.139C17.8135 21.1465 17.8436 21.1548 17.8737 21.1632C17.9021 21.1706 17.9297 21.1781 17.9573 21.1864C18.1478 21.2421 18.3341 21.3095 18.5138 21.3885C18.5154 21.3893 18.5171 21.3901 18.5196 21.3901C19.0494 21.5431 19.5983 21.6512 20.1615 21.7119C20.22 21.7186 20.2793 21.7244 20.3395 21.7285H20.3403C20.342 21.7269 20.3437 21.7252 20.3445 21.7236C20.3478 21.7252 20.3512 21.7269 20.3545 21.7302C20.6378 21.756 20.9235 21.7685 21.2135 21.7685C21.3597 21.7685 21.5051 21.7651 21.6497 21.7585C22.0374 21.7419 22.4192 21.7019 22.7936 21.6396C22.8274 21.6352 22.8613 21.6294 22.8951 21.6237L22.9289 21.618C23.1829 21.5722 24.0386 21.3536 24.2132 21.297C24.4154 21.2313 24.6143 21.1598 24.8106 21.0808C24.9293 21.0343 25.0463 20.9852 25.1624 20.9337C25.7272 20.6826 26.2637 20.3791 26.765 20.0282C26.7901 20.0116 26.8152 19.9941 26.8402 19.9758C26.8477 19.9708 26.8553 19.9658 26.8628 19.9592C27.2488 19.684 27.6131 19.3805 27.954 19.0504C28.2122 18.8026 28.4571 18.5382 28.6868 18.2622C28.7152 18.2281 28.7428 18.1948 28.7696 18.1607C29.1706 18.401 29.4397 18.8384 29.4397 19.3381C29.4397 19.368 29.4389 19.398 29.4363 19.4279C29.4272 19.5726 29.3954 19.7106 29.3444 19.8395C29.2475 20.0872 29.0796 20.2993 28.8657 20.4522C28.732 20.5479 28.6016 20.6485 28.4754 20.7541C28.2532 20.9387 28.0434 21.1382 27.8479 21.3502C27.5104 21.7161 27.2146 22.121 26.9672 22.5567C26.8853 22.7014 26.8085 22.8494 26.7375 23.0015C26.4784 23.552 26.2946 24.1456 26.1985 24.7667C26.5494 24.4316 26.9305 24.1282 27.3374 23.8604C27.5926 23.6923 27.8657 23.5533 28.1399 23.4136L28.14 23.4136L28.14 23.4136L28.14 23.4136C28.2672 23.3488 28.3946 23.284 28.5206 23.216C29.0704 22.9192 30.1867 22.6872 30.2911 22.6681H30.292C30.7916 22.5825 31.2746 22.4503 31.7375 22.2765C32.4469 22.0112 33.1087 21.6487 33.7061 21.2056C34.0253 20.9694 34.3261 20.71 34.6069 20.4306C34.7339 20.3034 34.8575 20.1712 34.9762 20.0357C34.9762 20.0353 34.9763 20.035 34.9766 20.0346L34.9779 20.0332L34.9795 20.0315C34.9836 20.0274 34.9873 20.0233 34.991 20.0191C34.9941 20.0155 34.9971 20.0119 35.0002 20.008L35.0003 20.008L35.0021 20.0058C35.0058 20.0016 35.0093 19.9975 35.0129 19.9934L35.0135 19.9926L35.0238 19.9808C35.0865 19.9035 35.1383 19.8162 35.1751 19.7222C35.2202 19.61 35.2444 19.4878 35.2444 19.3597C35.2444 19.0304 35.0823 18.7386 34.8333 18.559C35.0155 18.3104 35.1216 18.0052 35.1216 17.6743C35.1216 16.8969 34.5317 16.2567 33.773 16.1735C34.0403 16.4579 34.2024 16.8395 34.2024 17.2586C34.2024 17.543 34.1281 17.8099 33.9961 18.041C33.9275 18.1632 33.8423 18.2746 33.7454 18.3736C33.7412 18.3769 33.7379 18.3811 33.7337 18.3852C33.6518 18.4642 33.5382 18.5141 33.4137 18.5141C33.1605 18.5141 32.9541 18.3087 32.9541 18.0568C32.9541 18.041 32.9549 18.0252 32.9566 18.0102C32.9583 17.9944 32.9608 17.9795 32.9633 17.9645C32.9725 17.893 32.9767 17.819 32.9767 17.7442C32.9767 17.3035 32.8154 16.9011 32.5472 16.5909C32.4503 16.477 32.3383 16.3756 32.2146 16.2908C32.0316 16.1627 31.8227 16.0679 31.598 16.0164C31.5779 16.0322 31.5587 16.0488 31.5395 16.0663V16.0671C31.613 16.2442 31.6656 16.4313 31.6949 16.6258C31.7141 16.7464 31.7233 16.8703 31.7233 16.9958C31.7233 17.3002 31.6673 17.5912 31.5645 17.8597C31.3849 17.6752 31.1969 17.4981 31.0014 17.3276C30.9245 17.2619 30.8468 17.1962 30.7682 17.133C30.7248 17.0973 30.6813 17.0624 30.6371 17.0274C30.4048 16.8445 30.1633 16.6716 29.9143 16.5111C29.8967 16.4986 29.8784 16.487 29.8608 16.4762C29.8124 16.4454 29.7647 16.4155 29.7163 16.3856C29.1038 16.0089 28.4454 15.6988 27.7518 15.4643C27.6516 15.431 27.5496 15.3986 27.4477 15.3687C27.1419 15.2755 26.8294 15.1974 26.511 15.1359C26.4258 15.1192 26.3389 15.1034 26.252 15.0893C26.1935 15.0793 26.1342 15.0693 26.0748 15.0619C25.6061 14.9912 25.1256 14.9554 24.6368 14.9554C24.5299 14.9554 24.4229 14.9571 24.3168 14.9613L24.318 14.9609C24.3185 14.9608 24.319 14.9605 24.3194 14.9602C24.3197 14.96 24.3199 14.9598 24.3201 14.9596C24.311 14.9604 24.3018 14.9604 24.2926 14.9604C23.7436 14.9604 23.2991 14.5173 23.2991 13.971C23.2991 13.9336 23.3007 13.897 23.3049 13.8612C23.3475 13.4812 23.6049 13.167 23.9542 13.0414C24.0586 13.004 24.1706 12.9832 24.2876 12.9824H24.2993C24.3406 12.9828 24.3818 12.983 24.423 12.9832C24.4641 12.9834 24.5052 12.9836 24.5466 12.984C24.8691 12.9857 25.1916 12.9882 25.5125 12.9915C25.7531 12.9932 25.9921 12.9957 26.2311 12.9982C26.2336 12.9923 26.2369 12.9874 26.2395 12.9824C26.2662 12.9882 26.2938 12.994 26.3213 12.999H26.3355L26.9221 13.0065C27.023 13.0081 27.1238 13.0096 27.2246 13.011C27.3267 13.0125 27.4286 13.014 27.5304 13.0156H27.7259C27.8195 13.0156 27.9858 13.0214 28.0794 13.0248C28.098 13.0252 28.1163 13.0254 28.1345 13.0256H28.1345C28.1529 13.0258 28.1712 13.026 28.1897 13.0264C28.757 13.0364 29.3219 13.0481 29.8825 13.0622C30.1165 13.0672 30.3488 13.073 30.5811 13.0788L30.8518 13.0863C30.9939 13.0896 31.1359 13.0938 31.2771 13.0979L31.2779 13.0988C31.2805 13.3075 31.2671 13.512 31.2387 13.7124C31.2011 13.9893 31.1359 14.257 31.0457 14.5139C31.0223 14.5813 30.9972 14.647 30.9705 14.7126C31.039 14.6761 31.1058 14.6386 31.1718 14.5996C31.4091 14.4599 31.6322 14.3011 31.8411 14.124C32.1787 13.8388 32.477 13.5087 32.7268 13.1428C32.7786 13.0838 32.7882 13.0788 32.793 13.0763L32.7943 13.0757C32.7981 13.0734 32.8009 13.0693 32.8304 13.0248C32.8525 12.9918 32.8731 12.9599 32.8927 12.9294C33.0276 12.7199 33.1206 12.5753 33.3919 12.5891C33.6585 12.6024 33.8665 12.8252 33.8665 13.0905V13.0954C33.8665 13.1129 33.8657 13.1304 33.864 13.1478C33.864 13.1603 33.864 13.1719 33.8624 13.1836C33.8365 13.7182 33.7095 14.2262 33.4989 14.6894C34.2024 14.3726 34.8024 13.867 35.2335 13.2385C35.3965 13.0007 35.5352 12.7446 35.6463 12.4752L35.6472 12.4743C35.9463 12.313 36.202 12.0811 36.3916 11.8009C36.6189 11.4666 36.7509 11.0633 36.7509 10.6285C36.7509 10.399 36.7142 10.1778 36.6448 9.9708C36.9782 9.40457 37.1687 8.74522 37.1687 8.0418ZM15.9043 39.1769H15.8967C15.9001 39.1769 15.9026 39.1769 15.9051 39.176C15.9043 39.176 15.9043 39.1769 15.9043 39.1769ZM15.6026 27.7625C15.6051 27.7733 15.6076 27.7841 15.611 27.7949L15.5918 27.7758C15.5951 27.7708 15.5984 27.7667 15.6026 27.7625L15.6026 27.7625ZM13.0324 29.033C13.2822 29.3182 13.5145 29.4903 13.5145 29.4903C13.5211 29.4891 13.5832 29.5371 13.6632 29.5987C13.7573 29.6712 13.876 29.7628 13.9574 29.8154H13.9582C14.0242 29.8586 14.0894 29.8994 14.1579 29.9384C14.1788 29.9517 14.1997 29.9634 14.2214 29.975C14.2916 30.0149 14.3626 30.0532 14.4353 30.0881C14.6685 30.2053 14.9133 30.3035 15.1673 30.3808C15.6177 30.5196 16.0964 30.5945 16.5928 30.5945C16.7281 30.5945 16.8627 30.5886 16.9947 30.5778C16.9988 30.5776 17.0028 30.5774 17.0069 30.577C17.0108 30.5767 17.0148 30.5764 17.0188 30.576L17.0423 30.5737C17.2111 30.5587 17.3782 30.5346 17.5411 30.5022C17.4275 30.4248 17.3172 30.3425 17.2111 30.2561C17.0331 30.1097 16.8652 29.9517 16.7106 29.783H16.7098C16.6229 29.6882 16.5393 29.5901 16.4599 29.4886C16.4449 29.4695 16.4299 29.4496 16.4149 29.4297L16.4148 29.4296C16.3789 29.3822 16.3438 29.3348 16.3104 29.2857C16.2711 29.2317 16.2343 29.176 16.1984 29.1194C16.185 29.0995 16.1716 29.0787 16.1591 29.0571C16.0572 28.8925 15.9644 28.7212 15.8834 28.5441C15.7722 28.3046 15.6812 28.0543 15.6118 27.7958C15.6427 27.8249 15.6745 27.854 15.7071 27.8822V27.8831C15.87 28.0302 16.0446 28.1666 16.2276 28.2905C16.4098 28.4144 16.602 28.5266 16.8017 28.6247L16.8142 28.6155C16.8267 28.6063 16.8393 28.5971 16.8518 28.5865C16.8418 28.6023 16.8309 28.6172 16.8192 28.633L16.8348 28.6407C17.1194 28.7799 17.3799 28.9072 17.7901 28.9889C18.1435 29.0592 18.5565 29.0701 19.1946 29.0868L19.195 29.0868C19.3113 29.0899 19.4351 29.0931 19.5674 29.097C19.7337 29.102 19.8966 29.1103 20.0554 29.1369C20.1289 29.1485 20.2024 29.1635 20.2743 29.1818H20.2751C21.1901 29.4046 21.9388 30.0499 22.3006 30.8979C22.3699 31.0609 22.4251 31.2314 22.4643 31.4076C22.4827 31.4924 22.4986 31.5789 22.5095 31.6662C22.5262 31.7918 22.5345 31.9198 22.5345 32.0495C22.5345 32.7255 22.3064 33.3483 21.9221 33.8455C21.4993 34.3943 20.8876 34.7909 20.1832 34.938L20.1807 34.9655H20.1799C20.0537 34.9771 19.9259 34.9863 19.798 34.9937L19.7977 34.9938C19.7801 34.9949 19.7626 34.996 19.745 34.9969L19.7203 34.9979C19.7178 34.9979 19.7153 34.9987 19.7128 34.9987C19.5741 35.0054 19.4337 35.0112 19.2933 35.0137C18.741 35.0245 18.1954 34.9987 17.6606 34.9389C16.5828 34.8183 15.5433 34.5606 14.5623 34.1814C13.5989 33.8097 12.6907 33.3217 11.8542 32.7338C11.6913 32.6199 11.5317 32.5018 11.3746 32.3805C11.2869 32.3123 11.2 32.2433 11.1139 32.1734L11.0791 32.1446L11.0446 32.116C10.4923 31.6579 9.97756 31.1532 9.50797 30.6078C9.26147 30.3226 9.02751 30.0257 8.80609 29.7181C8.63396 29.4795 8.47019 29.2342 8.31477 28.9831C8.28302 28.9324 8.2521 28.8816 8.22119 28.8309C8.07329 28.5856 7.93375 28.3362 7.80173 28.0809V28.0801C7.34718 27.1963 6.98872 26.2526 6.74223 25.2614V25.2606C6.72301 25.1833 6.70462 25.1043 6.68708 25.0261C6.68541 25.0195 6.68375 25.0121 6.68209 25.0046L6.68206 25.0045C6.67371 24.9696 6.66619 24.9347 6.65867 24.8998C6.65198 24.8707 6.64613 24.8424 6.64029 24.8133L6.63885 24.8091C6.63805 24.8062 6.6375 24.8033 6.63694 24.8C6.62107 24.7243 6.60603 24.6487 6.59182 24.5722C6.59349 24.573 6.59517 24.573 6.59684 24.573C6.54754 24.267 6.52247 23.9536 6.52247 23.6343C6.52247 23.4031 6.53584 23.1753 6.56174 22.9508C6.59433 22.6681 6.64614 22.3921 6.71716 22.1227C7.02214 20.9644 7.66804 19.9442 8.54288 19.176L8.53787 19.1585L8.5412 19.1577L8.54124 19.1577C8.55082 19.1555 8.5598 19.1534 8.56879 19.1527L8.56962 19.1518C8.58132 19.141 8.59385 19.1302 8.60638 19.1202C8.62644 19.1028 8.64649 19.0862 8.66655 19.0695C8.87627 18.8941 9.0977 18.7336 9.32999 18.5889C9.208 18.7477 9.09352 18.9115 8.98573 19.0812C8.94563 19.1435 8.90719 19.2075 8.86876 19.2716C8.85121 19.3007 8.8345 19.3298 8.81778 19.3597C8.77517 19.4337 8.73423 19.5085 8.69495 19.5842C8.20698 20.5188 7.9279 21.5781 7.92122 22.7022C7.92038 22.7172 7.92038 22.733 7.92038 22.7479C7.92038 22.9225 7.92706 23.0946 7.9396 23.2651V23.2659C7.94545 23.3416 7.95213 23.4173 7.96132 23.4921C7.99976 23.8579 8.06828 24.2155 8.16437 24.5622C8.25043 24.8765 8.35822 25.1825 8.48773 25.4776C9.08266 26.8429 10.1104 27.9787 11.3997 28.712C11.1666 28.0236 11.0404 27.2869 11.0404 26.5203C11.0404 26.0721 11.0839 25.6348 11.1666 25.2107C11.1961 25.261 11.3824 25.7743 11.4743 26.0273L11.4744 26.0276L11.4747 26.0284C11.4997 26.0973 11.5176 26.1468 11.5234 26.1619C11.5444 26.2179 11.5667 26.2779 11.5903 26.3416C11.8473 27.0348 12.2625 28.1549 13.0324 29.033ZM15.9879 20.2464L15.9862 20.2452C15.9878 20.2452 15.9895 20.2452 15.9912 20.246C15.9912 20.246 15.9906 20.2463 15.9903 20.2467C15.9901 20.247 15.99 20.2474 15.9903 20.2477L15.9879 20.2464ZM16.7457 19.003C16.7449 19.0013 16.744 18.9997 16.7423 18.998C16.7457 18.9972 16.7474 18.9972 16.7507 18.9964C16.7499 18.998 16.7482 19.0005 16.7457 19.003ZM34.6152 21.8682C34.5843 22.2474 34.5258 22.619 34.4431 22.9816C34.3946 23.1936 34.3378 23.4031 34.2718 23.6077V23.6093C34.0713 24.2437 33.7938 24.844 33.4496 25.3995C33.3502 25.5599 33.2449 25.7171 33.1346 25.8709C32.4569 26.803 31.9765 27.8864 31.7542 29.0604C31.7007 29.3356 31.6623 29.6167 31.6397 29.901C31.6214 30.1197 31.6122 30.34 31.6122 30.5629C31.6122 30.7932 31.6222 31.0218 31.6414 31.248C31.669 31.5806 31.7183 31.9073 31.786 32.2275C31.8052 32.3181 31.8261 32.407 31.8486 32.496C31.7576 32.3987 31.6707 32.299 31.5871 32.1967H31.5863C31.4501 32.0304 31.3214 31.8575 31.2019 31.6779C30.8585 31.1648 30.5869 30.6003 30.3998 29.9991C30.3095 29.7081 30.2393 29.4088 30.19 29.1028C30.1541 28.8808 30.1299 28.6546 30.1182 28.426V28.4252C30.1178 28.4247 30.1175 28.4245 30.1175 28.4243C30.1175 28.4241 30.1178 28.4239 30.1182 28.4235L30.1237 28.4135C30.1259 28.4094 30.128 28.4052 30.1299 28.4011C30.1257 28.4044 30.1215 28.406 30.1165 28.4077C30.1115 28.2955 30.1081 28.1824 30.1081 28.0685C30.1081 26.5169 30.6529 25.091 31.5629 23.9702H31.5637C31.5796 23.9486 31.5971 23.9269 31.6164 23.9053C32.0241 23.4148 32.5046 22.9841 33.0393 22.6307C33.3418 22.4303 33.6618 22.254 33.9961 22.106C34.1974 22.0162 34.4038 21.9364 34.6152 21.8682ZM30.0018 25.2052C30.2383 24.8144 30.3896 24.3677 30.4314 23.8887C30.3002 23.9028 30.1715 23.9261 30.0461 23.9561C29.5162 24.0841 29.0398 24.3478 28.6553 24.7096C28.4481 24.9033 28.2684 25.1262 28.1213 25.3708C27.8872 25.7592 27.7376 26.2033 27.6967 26.6782C27.9324 26.6524 28.1597 26.6 28.3753 26.5243C28.4221 26.5085 28.4673 26.491 28.5124 26.4719H28.5132C29.1367 26.2207 29.6591 25.7725 30.0018 25.2052ZM9.0367 12.8019C8.68409 12.9532 8.34903 13.137 8.03485 13.3499H8.03402C7.85521 13.4712 7.68308 13.601 7.51847 13.7398C7.26446 13.9543 7.02883 14.1888 6.81325 14.4407V14.4416C6.71883 14.5513 6.62859 14.6652 6.54253 14.7825C6.51495 14.8207 6.48654 14.8581 6.4573 14.8947C5.54819 16.0638 4.12438 16.8162 2.52426 16.8162C2.4758 16.8162 2.4265 16.8154 2.37804 16.8137C2.1048 16.8063 1.83742 16.7763 1.57672 16.7256C1.01104 16.6175 0.479618 16.4138 0 16.1311C1.12217 15.9174 2.11567 15.3445 2.85515 14.5364C2.85598 14.5347 2.85682 14.5339 2.85849 14.5322C3.04816 14.3252 3.25204 14.1314 3.46929 13.9518C3.6222 13.8246 3.7818 13.7057 3.94724 13.5943C4.64243 13.1254 5.44124 12.7969 6.30271 12.6498C6.52915 12.6107 6.76144 12.5841 6.99624 12.5708C7.08397 12.5666 7.17254 12.5633 7.26111 12.5625C7.28702 12.5616 7.31292 12.5616 7.33882 12.5616C7.37475 12.5616 7.41068 12.5616 7.44661 12.5625C7.99809 12.5724 8.53118 12.6547 9.0367 12.8019ZM3.72161 19.8594C3.96978 18.9091 4.38172 18.0261 4.92818 17.2403C4.2756 17.7317 3.69738 18.3179 3.21442 18.9773C2.81585 19.5202 2.48246 20.1139 2.22594 20.7458C2.1357 20.9636 2.05632 21.1873 1.98613 21.4143C1.78977 22.0445 1.66778 22.7072 1.62851 23.3923C1.62767 23.3957 1.62767 23.399 1.62767 23.4023C1.58172 24.0359 1.40624 24.6628 1.10043 25.239C0.90908 25.5999 0.6676 25.9399 0.37515 26.2509H0.374315C0.340057 26.2875 0.304962 26.3241 0.269033 26.3598C0.19968 26.4288 0.128656 26.4954 0.0559616 26.5594C0.252321 26.5278 0.44701 26.4846 0.639191 26.428C1.06533 26.3058 1.47643 26.1237 1.86163 25.8809C2.01203 25.7878 2.15826 25.6847 2.29947 25.5716C2.44068 25.4602 2.57772 25.3388 2.7089 25.2083C2.98213 24.9364 3.21609 24.6395 3.40995 24.3261C3.50687 24.1706 3.59377 24.0109 3.67064 23.8471C3.62803 23.6684 3.5921 23.4871 3.56286 23.3034C3.491 22.8652 3.4534 22.4154 3.4534 21.9572C3.4534 21.233 3.54614 20.5304 3.72161 19.8603V19.8594Z" fill="url(#paint0_linear_99_93217)"/>
    <defs>
        <linearGradient id="paint0_linear_99_93217" x1="2.88468e-09" y1="20" x2="36.6592" y2="19.9499" gradientUnits="userSpaceOnUse">
            <stop stop-color="#95765C"/>
            <stop offset="1" stop-color="#DDBA8E"/>
        </linearGradient>
    </defs>
</svg>