<svg xmlns="http://www.w3.org/2000/svg" width="20" height="20" viewBox="0 0 20 20" fill="none">
    <path fill-rule="evenodd" clip-rule="evenodd" d="M10 20C15.5228 20 20 15.5228 20 10C20 4.47715 15.5228 0 10 0C4.47715 0 0 4.47715 0 10C0 15.5228 4.47715 20 10 20ZM14.0628 6.91627C14.2927 6.60546 14.2271 6.16712 13.9163 5.93722C13.6055 5.70732 13.1671 5.77292 12.9372 6.08373L9.29371 11.0096L7.42742 9.57065C7.12126 9.33459 6.6817 9.39141 6.44564 9.69758C6.20959 10.0037 6.26642 10.4433 6.57258 10.6794L9.00439 12.5544C9.15334 12.6692 9.34223 12.7193 9.5285 12.6933C9.71477 12.6673 9.88275 12.5675 9.9946 12.4163L14.0628 6.91627Z" fill="#7CD77B"/>
</svg>