<svg width="32" height="32" viewBox="0 0 32 32" fill="none" xmlns="http://www.w3.org/2000/svg">
<path d="M5.33335 0L26.6667 0L32 5.33333L32 26.6667L26.6667 32H5.33335L0 26.6667L0 5.33333L5.33335 0Z" fill="#202020"/>
<path d="M14.0192 22.153L14.2678 18.2374L21.0855 11.8317C21.3873 11.5447 21.0234 11.4059 20.6239 11.6558L12.2082 17.2006L8.56856 15.9973C7.78736 15.7658 7.77849 15.2012 8.74611 14.7939L22.9231 9.09169C23.5711 8.78621 24.1925 9.25831 23.944 10.2951L21.5294 22.153C21.3607 22.9954 20.8724 23.199 20.1978 22.8103L16.5226 19.9777L14.756 21.7642C14.5518 21.9771 14.3832 22.153 14.0192 22.153Z" fill="#8E8E8E"/>
</svg>
