<svg xmlns="http://www.w3.org/2000/svg" width="16" height="16" viewBox="0 0 16 16" fill="none">
    <path d="M8 16C12.4183 16 16 12.4183 16 8C16 3.58172 12.4183 0 8 0C3.58172 0 0 3.58172 0 8C0 12.4183 3.58172 16 8 16Z" fill="#26A17B"/>
    <path d="M9.02549 8.73752V8.73645C8.96682 8.74072 8.66442 8.75885 7.98975 8.75885C7.45109 8.75885 7.07189 8.74285 6.93855 8.73645V8.73805C4.86495 8.64685 3.31722 8.28579 3.31722 7.85379C3.31722 7.42232 4.86495 7.06125 6.93855 6.96845V8.37859C7.07402 8.38819 7.46229 8.41112 7.99882 8.41112C8.64255 8.41112 8.96522 8.38445 9.02549 8.37912V6.96952C11.0948 7.06179 12.6388 7.42285 12.6388 7.85379C12.6388 8.28579 11.0948 8.64579 9.02549 8.73752ZM9.02549 6.82285V5.56099H11.913V3.63672H4.05109V5.56099H6.93855V6.82232C4.59189 6.93005 2.82709 7.39512 2.82709 7.95192C2.82709 8.50872 4.59189 8.97325 6.93855 9.08152V13.1253H9.02549V9.08045C11.3684 8.97272 13.129 8.50819 13.129 7.95192C13.129 7.39565 11.3684 6.93112 9.02549 6.82285Z" fill="white"/>
</svg>